<svg width="33" height="32" viewBox="0 0 33 32" fill="none" xmlns="http://www.w3.org/2000/svg">
<path d="M16.5015 2.00443C16.5015 2.00443 24.7536 1.63544 29.1288 9.90051H15.7993C15.7993 9.90051 13.2838 9.81972 11.1349 12.8606C10.5177 14.1369 9.85417 15.4516 10.5988 18.0427C9.52614 16.232 4.9043 8.21295 4.9043 8.21295C4.9043 8.21295 8.1643 2.33118 16.5014 2.00443H16.5015Z" fill="#EF3F36"/>
<path d="M28.7004 22.9865C28.7004 22.9865 24.8925 30.2943 15.5254 29.933C16.6828 27.9378 22.1919 18.431 22.1919 18.431C22.1919 18.431 23.523 16.3013 21.9528 12.9261C21.1541 11.7536 20.34 10.5273 17.7167 9.87373C19.8271 9.85462 29.1055 9.87373 29.1055 9.87373C29.1055 9.87373 32.5814 15.6286 28.7004 22.9865Z" fill="#FCD900"/>
<path d="M4.36029 23.0438C4.36029 23.0438 -0.0880156 16.1049 4.91193 8.20117C6.0655 10.1964 11.5747 19.7032 11.5747 19.7032C11.5747 19.7032 12.763 21.9175 16.4782 22.2479C17.8942 22.1442 19.3679 22.0558 21.2507 20.1222C20.2127 21.9521 15.556 29.9481 15.556 29.9481C15.556 29.9481 8.81231 30.0711 4.36018 23.0438H4.36029Z" fill="#61BC5B"/>
<path d="M15.5215 30.0013L17.3964 22.2053C17.3964 22.2053 19.4567 22.0437 21.1851 20.1562C20.1125 22.0362 15.5215 30.0013 15.5215 30.0013Z" fill="#5AB055"/>
<path d="M10.2207 16.089C10.2207 12.6523 13.0178 9.86523 16.4668 9.86523C19.9158 9.86523 22.7129 12.6523 22.7129 16.089C22.7129 19.5257 19.9158 22.3127 16.4668 22.3127C13.0178 22.3089 10.2207 19.5257 10.2207 16.089Z" fill="white"/>
<path d="M11.2656 16.0902C11.2656 13.2302 13.5921 10.9082 16.4663 10.9082C19.3366 10.9082 21.6669 13.2263 21.6669 16.0902C21.6669 18.9504 19.3406 21.2724 16.4663 21.2724C13.5959 21.2724 11.2656 18.9504 11.2656 16.0902Z" fill="url(#paint0_linear_66_139)"/>
<path d="M29.1016 9.87819L21.3818 12.1348C21.3818 12.1348 20.2167 10.4317 17.7129 9.87819C19.8849 9.86662 29.1016 9.87819 29.1016 9.87819Z" fill="#EACA05"/>
<path d="M10.4483 17.7582C9.3641 15.886 4.9043 8.21289 4.9043 8.21289L10.6219 13.8486C10.6219 13.8486 10.0354 15.0518 10.2554 16.774L10.4482 17.7582H10.4483Z" fill="#DF3A32"/>
<defs>
<linearGradient id="paint0_linear_66_139" x1="16.4661" y1="10.9814" x2="16.4661" y2="20.9604" gradientUnits="userSpaceOnUse">
<stop stop-color="#86BBE5"/>
<stop offset="1" stop-color="#1072BA"/>
</linearGradient>
</defs>
</svg>
