<svg width="36" height="37" viewBox="0 0 36 37" fill="none" xmlns="http://www.w3.org/2000/svg">
<path d="M14.6457 8.44278C15.6993 8.16087 16.8181 8 17.9996 8C23.6357 8 27.8456 11.6606 30.3485 14.659C32.2268 16.909 32.2266 20.0913 30.3483 22.3413C30.0605 22.6861 29.7501 23.0396 29.4176 23.3952M18.7496 14.0622C20.634 14.3784 22.1213 15.8656 22.4374 17.75M4.49963 5L31.4996 32M17.2496 22.9378C15.6234 22.6649 14.2929 21.5198 13.7557 20M6.52335 13.6673C6.21283 14.0019 5.92195 14.3341 5.65106 14.6586C3.77277 16.9086 3.77247 20.091 5.65072 22.341C8.1537 25.3394 12.3636 29 17.9997 29C19.2028 29 20.3409 28.8332 21.4113 28.5416" stroke="#3B6D8D" stroke-width="1.5" stroke-linecap="round" stroke-linejoin="round"/>
</svg>
