<svg width="129" height="70" viewBox="0 0 129 70" fill="none" xmlns="http://www.w3.org/2000/svg">
<path d="M10.9768 2.67986V12.7881L8.7053 11.4717C4.67219 9.12091 2.16887 4.74852 2.16887 0H0.5V11.5657C0.5 15.3269 2.63245 18.806 6.01655 20.4515L11.0232 22.8963V12.7881L13.2947 14.1045C17.3278 16.4552 19.8311 20.8276 19.8311 25.5762H21.5V14.0105C21.5 10.2493 19.3676 6.77016 15.9834 5.12463L10.9768 2.67986Z" fill="#FDFDFD"/>
<path d="M37.7871 17.585C37.2923 17.0576 36.9277 16.4587 36.6934 15.7881C36.459 15.111 36.3418 14.486 36.3418 13.9131C36.3418 13.3402 36.3711 13.0179 36.4297 12.9463C36.4948 12.8747 36.5664 12.8128 36.6445 12.7607C36.7812 12.6696 36.9473 12.598 37.1426 12.5459C37.6764 13.9131 38.6628 14.792 40.1016 15.1826C40.5638 15.3128 41.0293 15.3779 41.498 15.3779C41.9733 15.3779 42.3932 15.3389 42.7578 15.2607C43.1289 15.1761 43.4512 15.0459 43.7246 14.8701C44.3171 14.4795 44.6133 13.8903 44.6133 13.1025C44.6133 12.5036 44.3757 11.8363 43.9004 11.1006C43.6986 10.7751 43.4805 10.4528 43.2461 10.1338C43.0117 9.80827 42.7936 9.47949 42.5918 9.14746C42.1165 8.38574 41.8789 7.7347 41.8789 7.19434C41.8789 6.64746 41.9538 6.19499 42.1035 5.83691C42.2598 5.47233 42.4714 5.14681 42.7383 4.86035C43.0052 4.56738 43.3177 4.31022 43.6758 4.08887C44.0404 3.86751 44.4342 3.68197 44.8574 3.53223C45.7038 3.23275 46.6022 3.08301 47.5527 3.08301C48.4512 3.08301 49.1576 3.17741 49.6719 3.36621C50.1862 3.5485 50.5508 3.7373 50.7656 3.93262C50.987 4.12793 51.0977 4.31999 51.0977 4.50879C51.0977 4.69759 51.0684 4.8571 51.0098 4.9873C50.9512 5.111 50.8763 5.2347 50.7852 5.3584C50.5898 5.6123 50.3978 5.80436 50.209 5.93457C49.7598 5.21842 49.0111 4.71387 47.9629 4.4209C47.6243 4.32975 47.2663 4.28418 46.8887 4.28418C46.5176 4.28418 46.1465 4.32975 45.7754 4.4209C45.4043 4.51204 45.0788 4.64225 44.7988 4.81152C44.1673 5.17611 43.8516 5.65137 43.8516 6.2373C43.8516 6.55632 43.9622 6.87533 44.1836 7.19434C44.4115 7.51335 44.6914 7.84538 45.0234 8.19043C45.362 8.53548 45.7266 8.89681 46.1172 9.27441C46.5078 9.65202 46.8691 10.0557 47.2012 10.4854C47.9889 11.488 48.3828 12.4775 48.3828 13.4541C48.3828 14.4242 48.2005 15.2673 47.8359 15.9834C47.4714 16.693 46.9798 17.2855 46.3613 17.7607C45.1243 18.7308 43.5651 19.2158 41.6836 19.2158C40.0951 19.2158 38.7962 18.6722 37.7871 17.585ZM51.6836 18.2881C50.2643 18.2881 49.5547 17.4775 49.5547 15.8564C49.5547 14.4827 50.3132 12.7249 51.8301 10.583C53.1647 8.7015 54.61 7.12598 56.166 5.85645C57.1491 5.05566 57.875 4.65527 58.3438 4.65527C58.6888 4.65527 58.9948 4.81478 59.2617 5.13379C59.5547 5.47233 59.7012 5.82064 59.7012 6.17871C59.7012 6.53027 59.623 6.84928 59.4668 7.13574C59.3171 7.41569 59.112 7.69889 58.8516 7.98535C58.5977 8.27181 58.2949 8.55501 57.9434 8.83496C57.5983 9.11491 57.2305 9.37858 56.8398 9.62598C56.0326 10.1468 55.2415 10.5374 54.4668 10.7979C54.1868 11.4163 53.9102 12.1032 53.6367 12.8584C54.9518 11.6735 56.485 10.8467 58.2363 10.3779C58.7962 10.2282 59.2682 10.1533 59.6523 10.1533C60.0365 10.1533 60.2676 10.2217 60.3457 10.3584C60.4238 10.4886 60.4368 10.6644 60.3848 10.8857C60.3392 11.1071 60.248 11.3577 60.1113 11.6377C59.9746 11.9176 59.8346 12.2074 59.6914 12.5068C59.3333 13.2816 59.1543 13.835 59.1543 14.167C59.1543 14.8506 59.3724 15.1924 59.8086 15.1924C60.2904 15.1924 60.8275 14.9743 61.4199 14.5381C61.9473 14.141 62.4095 13.6462 62.8066 13.0537C63.0996 13.0342 63.2461 13.1546 63.2461 13.415C63.2461 13.6234 63.1094 13.9619 62.8359 14.4307C62.569 14.8929 62.3053 15.2933 62.0449 15.6318C61.7845 15.9704 61.4915 16.3057 61.166 16.6377C60.8405 16.9632 60.4922 17.2529 60.1211 17.5068C59.2878 18.0863 58.487 18.376 57.7188 18.376C56.9505 18.376 56.4036 18.1807 56.0781 17.79C55.7591 17.3929 55.5996 16.8265 55.5996 16.0908C55.5996 15.1468 56.1693 13.9652 57.3086 12.5459C57.6602 12.1097 57.8132 11.8916 57.7676 11.8916C57.2467 11.8916 56.4557 12.2171 55.3945 12.8682C54.2682 13.5583 53.474 14.2354 53.0117 14.8994C52.7448 15.9476 52.5853 16.9469 52.5332 17.8975C52.5332 18.1579 52.25 18.2881 51.6836 18.2881ZM55.0137 9.66504C55.8535 9.28092 56.5762 8.82194 57.1816 8.28809C57.7871 7.74121 58.0898 7.26921 58.0898 6.87207C58.0898 6.67676 58.0508 6.49772 57.9727 6.33496C57.901 6.16569 57.8034 6.08105 57.6797 6.08105C57.5625 6.08105 57.4095 6.16895 57.2207 6.34473C57.0319 6.52051 56.8203 6.76465 56.5859 7.07715C56.0911 7.72819 55.5671 8.59082 55.0137 9.66504ZM64.7012 18.3369L64.5059 18.3467C63.4772 18.3467 62.6927 18.0928 62.1523 17.585C61.6445 17.1097 61.3906 16.4652 61.3906 15.6514C61.3906 14.5316 61.8366 13.4606 62.7285 12.4385C63.5944 11.4489 64.6458 10.7555 65.8828 10.3584C65.8438 10.0654 65.9512 9.82454 66.2051 9.63574C66.3874 9.49902 66.6868 9.43066 67.1035 9.43066C67.5267 9.43066 67.9336 9.46973 68.3242 9.54785C68.7148 9.62598 69.1087 9.7985 69.5059 10.0654C70.3652 10.6318 70.7949 11.3936 70.7949 12.3506C70.7949 13.3857 70.5378 14.3688 70.0234 15.2998C71.1432 15.0589 72.123 14.3102 72.9629 13.0537C73.2559 13.0342 73.4023 13.1546 73.4023 13.415C73.4023 13.5192 73.3698 13.6462 73.3047 13.7959C72.4193 15.8988 70.6484 17.292 67.9922 17.9756C67.0417 18.223 65.9609 18.3467 64.75 18.3467L64.7012 18.3369ZM64.5352 14.0596C64.5352 14.8148 64.8509 15.1924 65.4824 15.1924C66.0163 15.1924 66.5534 14.8701 67.0938 14.2256C67.6602 13.555 67.9434 12.8747 67.9434 12.1846C67.9434 11.4814 67.6048 11.016 66.9277 10.7881C65.7624 11.1136 65.0169 11.8428 64.6914 12.9756C64.5872 13.3206 64.5352 13.682 64.5352 14.0596ZM72.3379 22.7705C72.3379 23.0309 72.1198 23.1611 71.6836 23.1611C70.6745 23.1611 69.9941 22.7445 69.6426 21.9111C69.5124 21.6051 69.4473 21.2633 69.4473 20.8857C69.4473 20.5146 69.5091 20.1045 69.6328 19.6553C69.75 19.2126 69.916 18.7275 70.1309 18.2002C70.3392 17.6663 70.5866 17.1064 70.873 16.5205C71.1595 15.9281 71.4655 15.3389 71.791 14.7529C72.1165 14.167 72.4551 13.6006 72.8066 13.0537C73.1647 12.5068 73.5195 12.0055 73.8711 11.5498C74.8086 10.3324 75.5508 9.68783 76.0977 9.61621C76.1758 9.60319 76.2441 9.59668 76.3027 9.59668C76.3613 9.59668 76.4329 9.59993 76.5176 9.60645C76.7324 9.62598 76.8919 9.70736 76.9961 9.85059C76.8854 10.0915 76.752 10.3747 76.5957 10.7002C76.446 11.0192 76.2865 11.374 76.1172 11.7646C77.3932 10.7881 78.7474 10.1305 80.1797 9.79199C80.6484 9.6748 81.0944 9.61621 81.5176 9.61621C82.3639 9.61621 82.582 10.0068 82.1719 10.7881C81.9766 11.1657 81.7096 11.5856 81.3711 12.0479C81.0326 12.5036 80.7786 12.8584 80.6094 13.1123C80.2057 13.7113 80.0039 14.1605 80.0039 14.46C80.0039 14.9938 80.2936 15.2607 80.873 15.2607C81.3809 15.2607 81.9538 15.0329 82.5918 14.5771C83.1712 14.1605 83.6595 13.6527 84.0566 13.0537C84.2259 13.0407 84.3398 13.0732 84.3984 13.1514C84.4635 13.2295 84.4961 13.3174 84.4961 13.415C84.4961 13.5062 84.4538 13.6527 84.3691 13.8545C84.2845 14.0563 84.1478 14.3167 83.959 14.6357C83.7767 14.9548 83.5521 15.2835 83.2852 15.6221C83.0247 15.9606 82.7253 16.2959 82.3867 16.6279C82.0482 16.9535 81.6771 17.2464 81.2734 17.5068C80.3815 18.0732 79.4505 18.3564 78.4805 18.3564C77.4453 18.3564 76.7487 17.9821 76.3906 17.2334C76.2734 16.9925 76.2148 16.6963 76.2148 16.3447C76.2148 15.9932 76.3125 15.6188 76.5078 15.2217C76.7096 14.8245 76.9505 14.4437 77.2305 14.0791C77.5104 13.708 77.8034 13.363 78.1094 13.0439C78.4154 12.7249 78.6725 12.4482 78.8809 12.2139C79.0957 11.9795 79.2324 11.7939 79.291 11.6572C79.3496 11.5205 79.2715 11.4521 79.0566 11.4521C78.8418 11.4521 78.5651 11.5238 78.2266 11.667C77.8945 11.8037 77.5462 11.986 77.1816 12.2139C76.3613 12.7217 75.6908 13.2913 75.1699 13.9229C73.3014 18.2979 72.3574 21.2471 72.3379 22.7705ZM87.4941 12.4287C86.7129 12.3896 86.0488 12.3083 85.502 12.1846C84.8314 13.3499 84.1738 14.3883 83.5293 15.2998C83.4447 15.4365 83.2526 15.4723 82.9531 15.4072C82.4193 15.29 82.1133 15.1533 82.0352 14.9971C83.194 14.1833 84.0078 13.1383 84.4766 11.8623C83.793 11.5498 83.4512 11.1071 83.4512 10.5342C83.4512 10.1826 83.6823 9.7334 84.1445 9.18652C84.5807 8.65267 84.903 8.38574 85.1113 8.38574C85.7493 8.38574 86.2344 8.5485 86.5664 8.87402C86.6966 8.99772 86.7617 9.16374 86.7617 9.37207C86.7617 9.57389 86.651 9.91569 86.4297 10.3975C87.4323 10.8857 88.6953 11.1722 90.2188 11.2568C90.1732 11.7061 89.9844 12.0706 89.6523 12.3506C89.5612 12.4352 89.4701 12.4775 89.3789 12.4775C88.9167 12.8942 88.5911 13.3467 88.4023 13.835C88.3438 13.9912 88.3145 14.141 88.3145 14.2842C88.3145 14.8896 88.6758 15.1924 89.3984 15.1924C89.8867 15.1924 90.4271 14.9743 91.0195 14.5381C91.5469 14.141 92.0091 13.6462 92.4062 13.0537C92.6992 13.0342 92.8457 13.1546 92.8457 13.415C92.8457 13.6364 92.709 13.9749 92.4355 14.4307C92.1686 14.8864 91.9082 15.2803 91.6543 15.6123C91.4004 15.9443 91.1172 16.2699 90.8047 16.5889C90.4922 16.9079 90.1602 17.1943 89.8086 17.4482C89.0208 18.0081 88.2493 18.2881 87.4941 18.2881C86.2116 18.2881 85.3522 17.891 84.916 17.0967C84.7663 16.8298 84.6914 16.5205 84.6914 16.1689C84.6914 15.8109 84.763 15.4593 84.9062 15.1143C85.056 14.7692 85.2578 14.4339 85.5117 14.1084C86.0326 13.4313 86.6934 12.8714 87.4941 12.4287ZM94.877 14.4502C95.2546 15.1273 96.1107 15.4658 97.4453 15.4658C98.2786 15.4658 99.0632 15.264 99.7988 14.8604C100.541 14.4502 101.176 13.848 101.703 13.0537C101.996 13.0342 102.143 13.1546 102.143 13.415C102.143 13.708 101.967 14.1312 101.615 14.6846C101.27 15.2314 100.945 15.6742 100.639 16.0127C100.339 16.3512 100.001 16.667 99.623 16.96C99.252 17.2464 98.8516 17.4938 98.4219 17.7021C97.4909 18.1579 96.5111 18.3857 95.4824 18.3857C93.4121 18.3857 92.0677 17.8128 91.4492 16.667C91.2279 16.2503 91.1172 15.7751 91.1172 15.2412C91.1172 14.7008 91.2083 14.2061 91.3906 13.7568C91.5794 13.3076 91.8366 12.8812 92.1621 12.4775C92.4876 12.0674 92.875 11.6898 93.3242 11.3447C93.7734 10.9997 94.2617 10.7035 94.7891 10.4561C95.9089 9.91569 97.0514 9.64551 98.2168 9.64551C99.0566 9.64551 99.6328 9.90918 99.9453 10.4365C100.056 10.6188 100.111 10.863 100.111 11.1689C100.111 11.4684 100.033 11.7646 99.877 12.0576C99.7272 12.3506 99.5221 12.6175 99.2617 12.8584C99.0013 13.0928 98.6986 13.3011 98.3535 13.4834C98.0085 13.6592 97.6406 13.8122 97.25 13.9424C96.5599 14.1768 95.7689 14.346 94.877 14.4502ZM94.7402 13.542C95.5736 13.4443 96.2897 13.2132 96.8887 12.8486C97.5202 12.458 97.8359 12.0023 97.8359 11.4814C97.8359 10.9541 97.5951 10.6904 97.1133 10.6904C96.4883 10.6904 95.9447 10.9899 95.4824 11.5889C95.0397 12.1618 94.7923 12.8128 94.7402 13.542ZM98.5977 7.5459C98.2917 7.72168 98.0085 7.86491 97.748 7.97559C97.4876 8.07975 97.3151 8.13184 97.2305 8.13184C97.1458 8.13184 97.0645 8.1123 96.9863 8.07324C96.9082 8.02767 96.8268 7.97233 96.7422 7.90723C96.5404 7.75098 96.4199 7.62402 96.3809 7.52637C96.8105 7.22689 97.2956 6.82324 97.8359 6.31543C98.3828 5.80762 98.7702 5.43327 98.998 5.19238C99.5189 4.64551 99.8249 4.2321 99.916 3.95215C100.3 4.03678 100.717 4.30371 101.166 4.75293C101.277 4.86361 101.332 4.98079 101.332 5.10449C101.332 5.22168 101.247 5.3877 101.078 5.60254C100.909 5.81738 100.691 6.03874 100.424 6.2666C100.163 6.49447 99.8704 6.72233 99.5449 6.9502C99.2259 7.17155 98.9102 7.37012 98.5977 7.5459ZM103.627 17.8975C103.627 18.1579 103.409 18.2881 102.973 18.2881C102.335 18.2881 101.775 18.0928 101.293 17.7021C100.707 17.2334 100.414 16.5856 100.414 15.7588C100.414 14.652 100.883 13.4574 101.82 12.1748C102.686 10.9834 103.588 10.1598 104.525 9.7041C104.682 9.63249 104.822 9.59668 104.945 9.59668C105.076 9.59668 105.183 9.59993 105.268 9.60645C105.482 9.62598 105.642 9.70736 105.746 9.85059C105.355 10.6579 105.014 11.4717 104.721 12.292C105.502 11.5693 106.456 10.9476 107.582 10.4268C108.754 9.88639 109.812 9.61621 110.756 9.61621C111.186 9.61621 111.4 9.87663 111.4 10.3975C111.4 10.7555 111.309 11.2275 111.127 11.8135C112.214 10.8174 113.415 10.1436 114.73 9.79199C115.173 9.6748 115.574 9.61621 115.932 9.61621C116.29 9.61621 116.534 9.66829 116.664 9.77246C116.794 9.87012 116.869 10.0068 116.889 10.1826C116.908 10.3519 116.882 10.5537 116.811 10.7881C116.745 11.016 116.654 11.2601 116.537 11.5205C116.42 11.7809 116.29 12.0479 116.146 12.3213C116.003 12.5947 115.87 12.8584 115.746 13.1123C115.453 13.7243 115.307 14.1735 115.307 14.46C115.307 14.9938 115.596 15.2607 116.176 15.2607C116.866 15.2607 117.543 14.7952 118.207 13.8643C118.402 13.5973 118.591 13.3271 118.773 13.0537C118.943 13.0407 119.057 13.0732 119.115 13.1514C119.18 13.2295 119.213 13.3174 119.213 13.415C119.213 13.5062 119.171 13.6527 119.086 13.8545C119.008 14.0563 118.887 14.3167 118.725 14.6357C118.568 14.9548 118.38 15.2835 118.158 15.6221C117.937 15.9606 117.683 16.2959 117.396 16.6279C117.11 16.9535 116.788 17.2464 116.43 17.5068C115.629 18.0732 114.747 18.3564 113.783 18.3564C112.748 18.3564 112.051 17.9821 111.693 17.2334C111.576 16.9925 111.518 16.6963 111.518 16.3447C111.518 15.9932 111.586 15.6188 111.723 15.2217C111.866 14.8245 112.038 14.4437 112.24 14.0791C112.442 13.708 112.654 13.363 112.875 13.0439C113.103 12.7249 113.301 12.4482 113.471 12.2139C113.64 11.9795 113.76 11.7939 113.832 11.6572C113.904 11.5205 113.887 11.4521 113.783 11.4521C113.327 11.4521 112.745 11.7321 112.035 12.292C111.339 12.8258 110.759 13.4313 110.297 14.1084C109.626 15.8727 109.291 17.0479 109.291 17.6338C109.291 17.751 109.294 17.8519 109.301 17.9365C109.314 18.0212 109.298 18.0895 109.252 18.1416C109.206 18.1872 109.145 18.223 109.066 18.249C108.754 18.3727 108.386 18.389 107.963 18.2979C107.546 18.2067 107.224 18.0798 106.996 17.917C106.482 17.5524 106.225 16.9567 106.225 16.1299C106.225 15.0036 106.833 13.6592 108.051 12.0967C108.415 11.6214 108.578 11.3838 108.539 11.3838C108.038 11.3838 107.296 11.6995 106.312 12.3311C105.29 12.9886 104.555 13.6559 104.105 14.333C103.812 15.5049 103.653 16.693 103.627 17.8975ZM121.244 14.4502C121.622 15.1273 122.478 15.4658 123.812 15.4658C124.646 15.4658 125.43 15.264 126.166 14.8604C126.908 14.4502 127.543 13.848 128.07 13.0537C128.363 13.0342 128.51 13.1546 128.51 13.415C128.51 13.708 128.334 14.1312 127.982 14.6846C127.637 15.2314 127.312 15.6742 127.006 16.0127C126.706 16.3512 126.368 16.667 125.99 16.96C125.619 17.2464 125.219 17.4938 124.789 17.7021C123.858 18.1579 122.878 18.3857 121.85 18.3857C119.779 18.3857 118.435 17.8128 117.816 16.667C117.595 16.2503 117.484 15.7751 117.484 15.2412C117.484 14.7008 117.576 14.2061 117.758 13.7568C117.947 13.3076 118.204 12.8812 118.529 12.4775C118.855 12.0674 119.242 11.6898 119.691 11.3447C120.141 10.9997 120.629 10.7035 121.156 10.4561C122.276 9.91569 123.419 9.64551 124.584 9.64551C125.424 9.64551 126 9.90918 126.312 10.4365C126.423 10.6188 126.479 10.863 126.479 11.1689C126.479 11.4684 126.4 11.7646 126.244 12.0576C126.094 12.3506 125.889 12.6175 125.629 12.8584C125.368 13.0928 125.066 13.3011 124.721 13.4834C124.376 13.6592 124.008 13.8122 123.617 13.9424C122.927 14.1768 122.136 14.346 121.244 14.4502ZM121.107 13.542C121.941 13.4443 122.657 13.2132 123.256 12.8486C123.887 12.458 124.203 12.0023 124.203 11.4814C124.203 10.9541 123.962 10.6904 123.48 10.6904C122.855 10.6904 122.312 10.9899 121.85 11.5889C121.407 12.1618 121.16 12.8128 121.107 13.542Z" fill="#FDFDFD"/>
<path d="M37.5 57.8795C37.5 52.3229 33.0229 47.8184 27.5 47.8184C21.9771 47.8184 17.5 52.3229 17.5 57.8795C17.5 62.9012 21.1568 67.0636 25.9375 67.8184V60.7878H23.3984V57.8795H25.9375V55.6629C25.9375 53.1413 27.4305 51.7485 29.7146 51.7485C30.8088 51.7485 31.9531 51.945 31.9531 51.945V54.421H30.6922C29.45 54.421 29.0625 55.1966 29.0625 55.9923V57.8795H31.8359L31.3926 60.7878H29.0625V67.8184C33.8432 67.0636 37.5 62.9014 37.5 57.8795Z" fill="#FDFDFD"/>
<path fill-rule="evenodd" clip-rule="evenodd" d="M67.5 48.8184H59.5C56.7386 48.8184 54.5 51.0569 54.5 53.8184V61.8184C54.5 64.5798 56.7386 66.8184 59.5 66.8184H67.5C70.2614 66.8184 72.5 64.5798 72.5 61.8184V53.8184C72.5 51.0569 70.2614 48.8184 67.5 48.8184ZM70.75 61.8184C70.7445 63.611 69.2926 65.0629 67.5 65.0684H59.5C57.7074 65.0629 56.2555 63.611 56.25 61.8184V53.8184C56.2555 52.0257 57.7074 50.5738 59.5 50.5684H67.5C69.2926 50.5738 70.7445 52.0257 70.75 53.8184V61.8184ZM68.25 54.0684C68.8023 54.0684 69.25 53.6206 69.25 53.0684C69.25 52.5161 68.8023 52.0684 68.25 52.0684C67.6977 52.0684 67.25 52.5161 67.25 53.0684C67.25 53.6206 67.6977 54.0684 68.25 54.0684ZM63.5 53.3184C61.0147 53.3184 59 55.3331 59 57.8184C59 60.3037 61.0147 62.3184 63.5 62.3184C65.9853 62.3184 68 60.3037 68 57.8184C68.0027 56.6241 67.5294 55.4779 66.6849 54.6334C65.8404 53.7889 64.6943 53.3157 63.5 53.3184ZM60.75 57.8184C60.75 59.3372 61.9812 60.5684 63.5 60.5684C65.0188 60.5684 66.25 59.3372 66.25 57.8184C66.25 56.2996 65.0188 55.0684 63.5 55.0684C61.9812 55.0684 60.75 56.2996 60.75 57.8184Z" fill="#FDFDFD"/>
<path d="M104.676 49.8184H107.436L101.406 56.5958L108.5 65.8184H102.946L98.5951 60.225L93.6172 65.8184H90.8554L97.3052 58.5692L90.5 49.8184H96.1954L100.128 54.931L104.676 49.8184ZM103.707 64.1938H105.237L95.3644 51.3576H93.7232L103.707 64.1938Z" fill="#FDFDFD"/>
</svg>
