<svg width="162" height="33" viewBox="0 0 162 33" fill="none" xmlns="http://www.w3.org/2000/svg">
<path d="M13.4702 3.39736V16.2119L10.5497 14.543C5.36424 11.5629 2.14569 6.01987 2.14569 0H0V14.6623C0 19.4305 2.74172 23.8411 7.09271 25.9272L13.5298 29.0265V16.2119L16.4503 17.8808C21.6358 20.8609 24.8543 26.404 24.8543 32.4238H27V17.7616C27 12.9934 24.2583 8.58278 19.9073 6.49669L13.4702 3.39736Z" fill="#24A4F8"/>
<path d="M43.8232 22.2979C43.18 21.6123 42.7061 20.8337 42.4014 19.9619C42.0967 19.0817 41.9443 18.2692 41.9443 17.5244C41.9443 16.7796 41.9824 16.3607 42.0586 16.2676C42.1432 16.1745 42.2363 16.0941 42.3379 16.0264C42.5156 15.9079 42.7314 15.8148 42.9854 15.7471C43.6794 17.5244 44.9616 18.667 46.832 19.1748C47.4329 19.3441 48.0381 19.4287 48.6475 19.4287C49.2653 19.4287 49.8112 19.3779 50.2852 19.2764C50.7676 19.1663 51.1865 18.9971 51.542 18.7686C52.3122 18.2607 52.6973 17.4948 52.6973 16.4707C52.6973 15.6921 52.3883 14.8245 51.7705 13.8682C51.5081 13.445 51.2246 13.026 50.9199 12.6113C50.6152 12.1882 50.3317 11.7607 50.0693 11.3291C49.4515 10.3389 49.1426 9.49251 49.1426 8.79004C49.1426 8.0791 49.2399 7.49089 49.4346 7.02539C49.6377 6.55143 49.9128 6.12826 50.2598 5.75586C50.6068 5.375 51.013 5.04069 51.4785 4.75293C51.9525 4.46517 52.4645 4.22396 53.0146 4.0293C54.1149 3.63997 55.2829 3.44531 56.5186 3.44531C57.6865 3.44531 58.6048 3.56803 59.2734 3.81348C59.9421 4.05046 60.416 4.2959 60.6953 4.5498C60.9831 4.80371 61.127 5.05339 61.127 5.29883C61.127 5.54427 61.0889 5.75163 61.0127 5.9209C60.9365 6.08171 60.8392 6.24251 60.7207 6.40332C60.4668 6.7334 60.2171 6.98307 59.9717 7.15234C59.3877 6.22135 58.4144 5.56543 57.0518 5.18457C56.6117 5.06608 56.1462 5.00684 55.6553 5.00684C55.1729 5.00684 54.6904 5.06608 54.208 5.18457C53.7256 5.30306 53.3024 5.47233 52.9385 5.69238C52.1175 6.16634 51.707 6.78418 51.707 7.5459C51.707 7.96061 51.8509 8.37533 52.1387 8.79004C52.4349 9.20475 52.7988 9.63639 53.2305 10.085C53.6706 10.5335 54.1445 11.0033 54.6523 11.4941C55.1602 11.985 55.6299 12.5098 56.0615 13.0684C57.0856 14.3717 57.5977 15.6582 57.5977 16.9277C57.5977 18.1888 57.3607 19.2848 56.8867 20.2158C56.4128 21.1383 55.7738 21.9085 54.9697 22.5264C53.3617 23.7874 51.3346 24.418 48.8887 24.418C46.8236 24.418 45.1351 23.7113 43.8232 22.2979ZM61.8887 23.2119C60.0436 23.2119 59.1211 22.1582 59.1211 20.0508C59.1211 18.265 60.1071 15.9798 62.0791 13.1953C63.8141 10.7493 65.693 8.70117 67.7158 7.05078C68.9938 6.00977 69.9375 5.48926 70.5469 5.48926C70.9954 5.48926 71.3932 5.69661 71.7402 6.11133C72.1211 6.55143 72.3115 7.00423 72.3115 7.46973C72.3115 7.92676 72.21 8.34147 72.0068 8.71387C71.8122 9.0778 71.5456 9.44596 71.207 9.81836C70.877 10.1908 70.4834 10.5589 70.0264 10.9229C69.5778 11.2868 69.0996 11.6296 68.5918 11.9512C67.5423 12.6283 66.514 13.1361 65.5068 13.4746C65.1429 14.2786 64.7832 15.1715 64.4277 16.1533C66.1374 14.613 68.1305 13.5381 70.4072 12.9287C71.1351 12.734 71.7487 12.6367 72.248 12.6367C72.7474 12.6367 73.0479 12.7256 73.1494 12.9033C73.251 13.0726 73.2679 13.3011 73.2002 13.5889C73.141 13.8766 73.0225 14.2025 72.8447 14.5664C72.667 14.9303 72.485 15.307 72.2988 15.6963C71.8333 16.7035 71.6006 17.4229 71.6006 17.8545C71.6006 18.7432 71.8841 19.1875 72.4512 19.1875C73.0775 19.1875 73.7757 18.904 74.5459 18.3369C75.2314 17.8206 75.8324 17.1774 76.3486 16.4072C76.7295 16.3818 76.9199 16.5384 76.9199 16.877C76.9199 17.1478 76.7422 17.5879 76.3867 18.1973C76.0397 18.7982 75.6969 19.3187 75.3584 19.7588C75.0199 20.1989 74.639 20.6348 74.2158 21.0664C73.7926 21.4896 73.3398 21.8662 72.8574 22.1963C71.7741 22.9495 70.7331 23.3262 69.7344 23.3262C68.7357 23.3262 68.0247 23.0723 67.6016 22.5645C67.1868 22.0482 66.9795 21.3118 66.9795 20.3555C66.9795 19.1283 67.7201 17.5921 69.2012 15.7471C69.6582 15.18 69.8571 14.8965 69.7979 14.8965C69.1208 14.8965 68.0924 15.3197 66.7129 16.166C65.2487 17.0632 64.2161 17.9434 63.6152 18.8066C63.2682 20.1693 63.0609 21.4684 62.9932 22.7041C62.9932 23.0426 62.625 23.2119 61.8887 23.2119ZM66.2178 12.002C67.3096 11.5026 68.249 10.9059 69.0361 10.2119C69.8232 9.50098 70.2168 8.88737 70.2168 8.37109C70.2168 8.11719 70.166 7.88444 70.0645 7.67285C69.9714 7.4528 69.8444 7.34277 69.6836 7.34277C69.5312 7.34277 69.3324 7.45703 69.0869 7.68555C68.8415 7.91406 68.5664 8.23145 68.2617 8.6377C67.6185 9.48405 66.9372 10.6055 66.2178 12.002ZM78.8115 23.2754L78.5576 23.2881C77.2204 23.2881 76.2005 22.958 75.498 22.2979C74.8379 21.68 74.5078 20.8421 74.5078 19.7842C74.5078 18.3285 75.0876 16.9362 76.2471 15.6074C77.3727 14.321 78.7396 13.4196 80.3477 12.9033C80.2969 12.5225 80.4365 12.2093 80.7666 11.9639C81.0036 11.7861 81.3929 11.6973 81.9346 11.6973C82.4847 11.6973 83.0137 11.748 83.5215 11.8496C84.0293 11.9512 84.5413 12.1755 85.0576 12.5225C86.1748 13.2588 86.7334 14.249 86.7334 15.4932C86.7334 16.8389 86.3991 18.1169 85.7305 19.3271C87.1862 19.014 88.46 18.0407 89.5518 16.4072C89.9326 16.3818 90.123 16.5384 90.123 16.877C90.123 17.0124 90.0807 17.1774 89.9961 17.3721C88.8451 20.1058 86.543 21.917 83.0898 22.8057C81.8542 23.1273 80.4492 23.2881 78.875 23.2881L78.8115 23.2754ZM78.5957 17.7148C78.5957 18.6966 79.0062 19.1875 79.8271 19.1875C80.5212 19.1875 81.2194 18.7686 81.9219 17.9307C82.6582 17.0589 83.0264 16.1745 83.0264 15.2773C83.0264 14.3633 82.5863 13.7581 81.7061 13.4619C80.1911 13.8851 79.222 14.833 78.7988 16.3057C78.6634 16.7542 78.5957 17.224 78.5957 17.7148ZM88.7393 29.0391C88.7393 29.3776 88.4557 29.5469 87.8887 29.5469C86.5768 29.5469 85.6924 29.0052 85.2354 27.9219C85.0661 27.5241 84.9814 27.0798 84.9814 26.5889C84.9814 26.1064 85.0618 25.5732 85.2227 24.9893C85.375 24.4137 85.5908 23.7832 85.8701 23.0977C86.141 22.4036 86.4626 21.6758 86.835 20.9141C87.2074 20.1439 87.6051 19.3779 88.0283 18.6162C88.4515 17.8545 88.8916 17.1182 89.3486 16.4072C89.8141 15.6963 90.2754 15.0446 90.7324 14.4521C91.9512 12.8695 92.916 12.0316 93.627 11.9385C93.7285 11.9215 93.8174 11.9131 93.8936 11.9131C93.9697 11.9131 94.0628 11.9173 94.1729 11.9258C94.4521 11.9512 94.6595 12.057 94.7949 12.2432C94.651 12.5563 94.4775 12.9245 94.2744 13.3477C94.0798 13.7624 93.8724 14.2236 93.6523 14.7314C95.3112 13.4619 97.0716 12.6071 98.9336 12.167C99.543 12.0146 100.123 11.9385 100.673 11.9385C101.773 11.9385 102.057 12.4463 101.523 13.4619C101.27 13.9528 100.923 14.4987 100.482 15.0996C100.042 15.6921 99.7122 16.1533 99.4922 16.4834C98.9674 17.262 98.7051 17.846 98.7051 18.2354C98.7051 18.9294 99.0817 19.2764 99.835 19.2764C100.495 19.2764 101.24 18.9801 102.069 18.3877C102.823 17.846 103.457 17.1859 103.974 16.4072C104.194 16.3903 104.342 16.4326 104.418 16.5342C104.503 16.6357 104.545 16.75 104.545 16.877C104.545 16.9954 104.49 17.1859 104.38 17.4482C104.27 17.7106 104.092 18.0492 103.847 18.4639C103.61 18.8786 103.318 19.306 102.971 19.7461C102.632 20.1862 102.243 20.6221 101.803 21.0537C101.363 21.4769 100.88 21.8577 100.355 22.1963C99.196 22.9326 97.9857 23.3008 96.7246 23.3008C95.3789 23.3008 94.4733 22.8141 94.0078 21.8408C93.8555 21.5277 93.7793 21.1426 93.7793 20.6855C93.7793 20.2285 93.9062 19.7419 94.1602 19.2256C94.4225 18.7093 94.7357 18.2142 95.0996 17.7402C95.4635 17.2578 95.8444 16.8092 96.2422 16.3945C96.64 15.9798 96.9743 15.6201 97.2451 15.3154C97.5244 15.0107 97.7021 14.7695 97.7783 14.5918C97.8545 14.4141 97.7529 14.3252 97.4736 14.3252C97.1943 14.3252 96.8346 14.4183 96.3945 14.6045C95.9629 14.7822 95.5101 15.0192 95.0361 15.3154C93.9697 15.9756 93.098 16.7161 92.4209 17.5371C89.9919 23.2246 88.7646 27.0586 88.7393 29.0391ZM108.442 15.5947C107.427 15.5439 106.563 15.4382 105.853 15.2773C104.981 16.7923 104.126 18.1423 103.288 19.3271C103.178 19.5049 102.928 19.5514 102.539 19.4668C101.845 19.3145 101.447 19.1367 101.346 18.9336C102.852 17.8757 103.91 16.5173 104.52 14.8584C103.631 14.4521 103.187 13.8766 103.187 13.1318C103.187 12.6748 103.487 12.0908 104.088 11.3799C104.655 10.6859 105.074 10.3389 105.345 10.3389C106.174 10.3389 106.805 10.5505 107.236 10.9736C107.406 11.1344 107.49 11.3503 107.49 11.6211C107.49 11.8835 107.346 12.3278 107.059 12.9541C108.362 13.5889 110.004 13.9613 111.984 14.0713C111.925 14.6553 111.68 15.1292 111.248 15.4932C111.13 15.6032 111.011 15.6582 110.893 15.6582C110.292 16.1999 109.868 16.7881 109.623 17.4229C109.547 17.626 109.509 17.8206 109.509 18.0068C109.509 18.7939 109.979 19.1875 110.918 19.1875C111.553 19.1875 112.255 18.904 113.025 18.3369C113.711 17.8206 114.312 17.1774 114.828 16.4072C115.209 16.3818 115.399 16.5384 115.399 16.877C115.399 17.1647 115.222 17.6048 114.866 18.1973C114.519 18.7897 114.181 19.3018 113.851 19.7334C113.521 20.165 113.152 20.5882 112.746 21.0029C112.34 21.4176 111.908 21.79 111.451 22.1201C110.427 22.848 109.424 23.2119 108.442 23.2119C106.775 23.2119 105.658 22.6956 105.091 21.6631C104.896 21.3161 104.799 20.9141 104.799 20.457C104.799 19.9915 104.892 19.5345 105.078 19.0859C105.273 18.6374 105.535 18.2015 105.865 17.7783C106.542 16.8981 107.401 16.1702 108.442 15.5947ZM118.04 18.2227C118.531 19.1029 119.644 19.543 121.379 19.543C122.462 19.543 123.482 19.2806 124.438 18.7559C125.403 18.2227 126.229 17.4398 126.914 16.4072C127.295 16.3818 127.485 16.5384 127.485 16.877C127.485 17.2578 127.257 17.8079 126.8 18.5273C126.351 19.2383 125.928 19.8138 125.53 20.2539C125.141 20.694 124.701 21.1045 124.21 21.4854C123.728 21.8577 123.207 22.1794 122.648 22.4502C121.438 23.0426 120.164 23.3389 118.827 23.3389C116.136 23.3389 114.388 22.5941 113.584 21.1045C113.296 20.5628 113.152 19.945 113.152 19.251C113.152 18.5485 113.271 17.9053 113.508 17.3213C113.753 16.7373 114.088 16.1829 114.511 15.6582C114.934 15.125 115.438 14.6341 116.021 14.1855C116.605 13.737 117.24 13.3519 117.926 13.0303C119.382 12.3278 120.867 11.9766 122.382 11.9766C123.474 11.9766 124.223 12.3193 124.629 13.0049C124.773 13.2419 124.845 13.5592 124.845 13.957C124.845 14.3464 124.743 14.7314 124.54 15.1123C124.345 15.4932 124.079 15.8402 123.74 16.1533C123.402 16.458 123.008 16.7288 122.56 16.9658C122.111 17.1943 121.633 17.3932 121.125 17.5625C120.228 17.8672 119.2 18.0872 118.04 18.2227ZM117.862 17.042C118.946 16.915 119.877 16.6146 120.655 16.1406C121.476 15.6328 121.887 15.0404 121.887 14.3633C121.887 13.6777 121.574 13.335 120.947 13.335C120.135 13.335 119.428 13.7243 118.827 14.5029C118.252 15.2477 117.93 16.0941 117.862 17.042ZM122.877 9.24707C122.479 9.47559 122.111 9.66178 121.772 9.80566C121.434 9.94108 121.21 10.0088 121.1 10.0088C120.99 10.0088 120.884 9.9834 120.782 9.93262C120.681 9.87337 120.575 9.80143 120.465 9.7168C120.202 9.51367 120.046 9.34863 119.995 9.22168C120.554 8.83236 121.184 8.30762 121.887 7.64746C122.598 6.9873 123.101 6.50065 123.397 6.1875C124.075 5.47656 124.472 4.93913 124.591 4.5752C125.09 4.68522 125.632 5.03223 126.216 5.61621C126.36 5.76009 126.432 5.91243 126.432 6.07324C126.432 6.22559 126.322 6.44141 126.102 6.7207C125.882 7 125.598 7.28776 125.251 7.58398C124.912 7.88021 124.532 8.17643 124.108 8.47266C123.694 8.76042 123.283 9.01855 122.877 9.24707ZM129.415 22.7041C129.415 23.0426 129.132 23.2119 128.564 23.2119C127.735 23.2119 127.007 22.958 126.381 22.4502C125.619 21.8408 125.238 20.9987 125.238 19.9238C125.238 18.485 125.848 16.932 127.066 15.2646C128.192 13.7158 129.364 12.6452 130.583 12.0527C130.786 11.9596 130.968 11.9131 131.129 11.9131C131.298 11.9131 131.438 11.9173 131.548 11.9258C131.827 11.9512 132.035 12.057 132.17 12.2432C131.662 13.2926 131.218 14.3506 130.837 15.417C131.853 14.4775 133.092 13.6693 134.557 12.9922C136.08 12.2897 137.455 11.9385 138.683 11.9385C139.241 11.9385 139.521 12.277 139.521 12.9541C139.521 13.4196 139.402 14.0332 139.165 14.7949C140.578 13.5 142.14 12.624 143.85 12.167C144.425 12.0146 144.946 11.9385 145.411 11.9385C145.877 11.9385 146.194 12.0062 146.363 12.1416C146.533 12.2686 146.63 12.4463 146.655 12.6748C146.681 12.8949 146.647 13.1572 146.554 13.4619C146.469 13.7581 146.351 14.0755 146.198 14.4141C146.046 14.7526 145.877 15.0996 145.69 15.4551C145.504 15.8105 145.331 16.1533 145.17 16.4834C144.789 17.279 144.599 17.863 144.599 18.2354C144.599 18.9294 144.975 19.2764 145.729 19.2764C146.626 19.2764 147.506 18.6712 148.369 17.4609C148.623 17.1139 148.868 16.7627 149.105 16.4072C149.326 16.3903 149.474 16.4326 149.55 16.5342C149.634 16.6357 149.677 16.75 149.677 16.877C149.677 16.9954 149.622 17.1859 149.512 17.4482C149.41 17.7106 149.254 18.0492 149.042 18.4639C148.839 18.8786 148.593 19.306 148.306 19.7461C148.018 20.1862 147.688 20.6221 147.315 21.0537C146.943 21.4769 146.524 21.8577 146.059 22.1963C145.018 22.9326 143.871 23.3008 142.618 23.3008C141.272 23.3008 140.367 22.8141 139.901 21.8408C139.749 21.5277 139.673 21.1426 139.673 20.6855C139.673 20.2285 139.762 19.7419 139.939 19.2256C140.126 18.7093 140.35 18.2142 140.612 17.7402C140.875 17.2578 141.15 16.8092 141.438 16.3945C141.734 15.9798 141.992 15.6201 142.212 15.3154C142.432 15.0107 142.589 14.7695 142.682 14.5918C142.775 14.4141 142.754 14.3252 142.618 14.3252C142.026 14.3252 141.268 14.6891 140.346 15.417C139.44 16.111 138.687 16.8981 138.086 17.7783C137.214 20.0719 136.778 21.5996 136.778 22.3613C136.778 22.5137 136.783 22.6449 136.791 22.7549C136.808 22.8649 136.787 22.9538 136.728 23.0215C136.668 23.0807 136.588 23.1273 136.486 23.1611C136.08 23.3219 135.602 23.3431 135.052 23.2246C134.51 23.1061 134.091 22.9411 133.795 22.7295C133.126 22.2555 132.792 21.4811 132.792 20.4062C132.792 18.9421 133.583 17.1943 135.166 15.1631C135.64 14.5452 135.852 14.2363 135.801 14.2363C135.149 14.2363 134.184 14.6468 132.906 15.4678C131.577 16.3226 130.621 17.1901 130.037 18.0703C129.656 19.5938 129.449 21.1383 129.415 22.7041ZM152.317 18.2227C152.808 19.1029 153.921 19.543 155.656 19.543C156.74 19.543 157.759 19.2806 158.716 18.7559C159.681 18.2227 160.506 17.4398 161.191 16.4072C161.572 16.3818 161.763 16.5384 161.763 16.877C161.763 17.2578 161.534 17.8079 161.077 18.5273C160.629 19.2383 160.205 19.8138 159.808 20.2539C159.418 20.694 158.978 21.1045 158.487 21.4854C158.005 21.8577 157.484 22.1794 156.926 22.4502C155.715 23.0426 154.442 23.3389 153.104 23.3389C150.413 23.3389 148.665 22.5941 147.861 21.1045C147.574 20.5628 147.43 19.945 147.43 19.251C147.43 18.5485 147.548 17.9053 147.785 17.3213C148.031 16.7373 148.365 16.1829 148.788 15.6582C149.211 15.125 149.715 14.6341 150.299 14.1855C150.883 13.737 151.518 13.3519 152.203 13.0303C153.659 12.3278 155.144 11.9766 156.659 11.9766C157.751 11.9766 158.5 12.3193 158.906 13.0049C159.05 13.2419 159.122 13.5592 159.122 13.957C159.122 14.3464 159.021 14.7314 158.817 15.1123C158.623 15.4932 158.356 15.8402 158.018 16.1533C157.679 16.458 157.285 16.7288 156.837 16.9658C156.388 17.1943 155.91 17.3932 155.402 17.5625C154.505 17.8672 153.477 18.0872 152.317 18.2227ZM152.14 17.042C153.223 16.915 154.154 16.6146 154.933 16.1406C155.754 15.6328 156.164 15.0404 156.164 14.3633C156.164 13.6777 155.851 13.335 155.225 13.335C154.412 13.335 153.705 13.7243 153.104 14.5029C152.529 15.2477 152.207 16.0941 152.14 17.042Z" fill="#24A4F8"/>
</svg>
