<svg width="129" height="27" viewBox="0 0 129 27" fill="none" xmlns="http://www.w3.org/2000/svg">
<g clip-path="url(#clip0_72_8658)">
<path d="M13.552 19.7742C13.2045 19.598 12.7955 19.598 12.448 19.7742L7.99438 22.0314C7.05116 22.5094 5.98913 21.6459 6.24489 20.6088L7.28624 16.3865C7.38581 15.9828 7.28086 15.5553 7.00624 15.246L3.56867 11.3743C2.88345 10.6026 3.3702 9.36941 4.39147 9.28978L9.18695 8.91585C9.63553 8.88088 10.0298 8.60126 10.216 8.18609L11.8763 4.48345C12.3148 3.50552 13.6852 3.50552 14.1237 4.48345L15.784 8.18609C15.9702 8.60126 16.3645 8.88088 16.8131 8.91585L21.6085 9.28978C22.6298 9.36941 23.1165 10.6026 22.4313 11.3743L18.9938 15.246C18.7191 15.5553 18.6142 15.9828 18.7138 16.3865L19.7551 20.6088C20.0109 21.6459 18.9488 22.5094 18.0056 22.0314L13.552 19.7742Z" fill="#24A4F8"/>
<path d="M42.552 19.7742C42.2045 19.598 41.7955 19.598 41.448 19.7742L36.9944 22.0314C36.0512 22.5094 34.9891 21.6459 35.2449 20.6088L36.2862 16.3865C36.3858 15.9828 36.2809 15.5553 36.0062 15.246L32.5687 11.3743C31.8835 10.6026 32.3702 9.36941 33.3915 9.28978L38.187 8.91585C38.6355 8.88088 39.0298 8.60126 39.216 8.18609L40.8763 4.48345C41.3148 3.50552 42.6852 3.50552 43.1237 4.48345L44.784 8.18609C44.9702 8.60126 45.3645 8.88088 45.8131 8.91585L50.6085 9.28978C51.6298 9.36941 52.1165 10.6026 51.4313 11.3743L47.9938 15.246C47.7191 15.5553 47.6142 15.9828 47.7138 16.3865L48.7551 20.6088C49.0109 21.6459 47.9488 22.5094 47.0056 22.0314L42.552 19.7742Z" fill="#24A4F8"/>
<path d="M71.552 19.7742C71.2045 19.598 70.7955 19.598 70.448 19.7742L65.9944 22.0314C65.0512 22.5094 63.9891 21.6459 64.2449 20.6088L65.2862 16.3865C65.3858 15.9828 65.2809 15.5553 65.0062 15.246L61.5687 11.3743C60.8835 10.6026 61.3702 9.36941 62.3915 9.28978L67.187 8.91585C67.6355 8.88088 68.0298 8.60126 68.216 8.18609L69.8763 4.48345C70.3148 3.50552 71.6852 3.50552 72.1237 4.48345L73.784 8.18609C73.9702 8.60126 74.3645 8.88088 74.8131 8.91585L79.6085 9.28978C80.6298 9.36941 81.1165 10.6026 80.4313 11.3743L76.9938 15.246C76.7191 15.5553 76.6142 15.9828 76.7138 16.3865L77.7551 20.6088C78.0109 21.6459 76.9488 22.5094 76.0056 22.0314L71.552 19.7742Z" fill="#24A4F8"/>
<path d="M100.552 19.7742C100.205 19.598 99.7955 19.598 99.448 19.7742L94.9944 22.0314C94.0512 22.5094 92.9891 21.6459 93.2449 20.6088L94.2862 16.3865C94.3858 15.9828 94.2809 15.5553 94.0062 15.246L90.5687 11.3743C89.8835 10.6026 90.3702 9.36941 91.3915 9.28978L96.187 8.91585C96.6355 8.88088 97.0298 8.60126 97.216 8.18609L98.8763 4.48345C99.3148 3.50552 100.685 3.50552 101.124 4.48345L102.784 8.18609C102.97 8.60126 103.364 8.88088 103.813 8.91585L108.609 9.28978C109.63 9.36941 110.117 10.6026 109.431 11.3743L105.994 15.246C105.719 15.5553 105.614 15.9828 105.714 16.3865L106.755 20.6088C107.011 21.6459 105.949 22.5094 105.006 22.0314L100.552 19.7742Z" fill="#24A4F8"/>
<path d="M129.552 19.7742C129.205 19.598 128.795 19.598 128.448 19.7742L123.994 22.0314C123.051 22.5094 121.989 21.6459 122.245 20.6088L123.286 16.3865C123.386 15.9828 123.281 15.5553 123.006 15.246L119.569 11.3743C118.883 10.6026 119.37 9.36941 120.391 9.28978L125.187 8.91585C125.636 8.88088 126.03 8.60126 126.216 8.18609L127.876 4.48345C128.315 3.50552 129.685 3.50552 130.124 4.48345L131.784 8.18609C131.97 8.60126 132.364 8.88088 132.813 8.91585L137.609 9.28978C138.63 9.36941 139.117 10.6026 138.431 11.3743L134.994 15.246C134.719 15.5553 134.614 15.9828 134.714 16.3865L135.755 20.6088C136.011 21.6459 134.949 22.5094 134.006 22.0314L129.552 19.7742Z" fill="#24A4F8"/>
</g>
<defs>
<clipPath id="clip0_72_8658">
<rect width="129" height="26" fill="white" transform="translate(0 0.5)"/>
</clipPath>
</defs>
</svg>
