<svg width="285" height="48" viewBox="0 0 285 48" fill="none" xmlns="http://www.w3.org/2000/svg">
<path d="M16.7008 14.5416V33.5H14.2256V24.9048H4.5696V33.5H2.0944V14.5416H4.5696V22.8648H14.2256V14.5416H16.7008ZM27.428 33.7448C26.0317 33.7448 24.7624 33.4275 23.62 32.7928C22.4957 32.1581 21.6072 31.2605 20.9544 30.1C20.3197 28.9213 20.0024 27.5613 20.0024 26.02C20.0024 24.4968 20.3288 23.1549 20.9816 21.9944C21.6525 20.8157 22.5592 19.9181 23.7016 19.3016C24.844 18.6669 26.1224 18.3496 27.5368 18.3496C28.9512 18.3496 30.2296 18.6669 31.372 19.3016C32.5144 19.9181 33.412 20.8067 34.0648 21.9672C34.7357 23.1277 35.0712 24.4787 35.0712 26.02C35.0712 27.5613 34.7267 28.9213 34.0376 30.1C33.3667 31.2605 32.4509 32.1581 31.2904 32.7928C30.1299 33.4275 28.8424 33.7448 27.428 33.7448ZM27.428 31.5688C28.3165 31.5688 29.1507 31.3603 29.9304 30.9432C30.7101 30.5261 31.3357 29.9005 31.8072 29.0664C32.2968 28.2323 32.5416 27.2168 32.5416 26.02C32.5416 24.8232 32.3059 23.8077 31.8344 22.9736C31.3629 22.1395 30.7464 21.5229 29.9848 21.124C29.2232 20.7069 28.3981 20.4984 27.5096 20.4984C26.6029 20.4984 25.7688 20.7069 25.0072 21.124C24.2637 21.5229 23.6653 22.1395 23.212 22.9736C22.7587 23.8077 22.532 24.8232 22.532 26.02C22.532 27.2349 22.7496 28.2595 23.1848 29.0936C23.6381 29.9277 24.2365 30.5533 24.98 30.9704C25.7235 31.3693 26.5395 31.5688 27.428 31.5688ZM56.2505 18.3224C57.411 18.3224 58.4446 18.5672 59.3513 19.0568C60.2579 19.5283 60.9742 20.2445 61.5001 21.2056C62.0259 22.1667 62.2889 23.3363 62.2889 24.7144V33.5H59.8409V25.068C59.8409 23.5811 59.4691 22.4477 58.7257 21.668C58.0003 20.8701 57.0121 20.4712 55.7609 20.4712C54.4734 20.4712 53.4489 20.8883 52.6873 21.7224C51.9257 22.5384 51.5449 23.7261 51.5449 25.2856V33.5H49.0969V25.068C49.0969 23.5811 48.7251 22.4477 47.9817 21.668C47.2563 20.8701 46.2681 20.4712 45.0169 20.4712C43.7294 20.4712 42.7049 20.8883 41.9433 21.7224C41.1817 22.5384 40.8009 23.7261 40.8009 25.2856V33.5H38.3257V18.5944H40.8009V20.7432C41.2905 19.9635 41.9433 19.3651 42.7593 18.948C43.5934 18.5309 44.5091 18.3224 45.5065 18.3224C46.7577 18.3224 47.8638 18.6035 48.8249 19.1656C49.7859 19.7277 50.5022 20.5528 50.9737 21.6408C51.3907 20.5891 52.0798 19.7731 53.0409 19.1928C54.0019 18.6125 55.0718 18.3224 56.2505 18.3224ZM79.9491 25.476C79.9491 25.9475 79.9219 26.4461 79.8675 26.972H67.9539C68.0446 28.4408 68.5432 29.5923 69.4499 30.4264C70.3747 31.2424 71.4899 31.6504 72.7955 31.6504C73.8654 31.6504 74.7539 31.4056 75.4611 30.916C76.1864 30.4083 76.6942 29.7373 76.9843 28.9032H79.6499C79.251 30.3357 78.4531 31.5053 77.2563 32.412C76.0595 33.3005 74.5726 33.7448 72.7955 33.7448C71.3811 33.7448 70.1118 33.4275 68.9875 32.7928C67.8814 32.1581 67.011 31.2605 66.3763 30.1C65.7416 28.9213 65.4243 27.5613 65.4243 26.02C65.4243 24.4787 65.7326 23.1277 66.3491 21.9672C66.9656 20.8067 67.827 19.9181 68.9331 19.3016C70.0574 18.6669 71.3448 18.3496 72.7955 18.3496C74.2099 18.3496 75.4611 18.6579 76.5491 19.2744C77.6371 19.8909 78.4712 20.7432 79.0515 21.8312C79.6499 22.9011 79.9491 24.116 79.9491 25.476ZM77.3923 24.9592C77.3923 24.0163 77.1838 23.2093 76.7667 22.5384C76.3496 21.8493 75.7784 21.3325 75.0531 20.988C74.3459 20.6253 73.5571 20.444 72.6867 20.444C71.4355 20.444 70.3656 20.8429 69.4771 21.6408C68.6067 22.4387 68.108 23.5448 67.9811 24.9592H77.3923Z" fill="#A1BCD6"/>
<path d="M99.9021 14.5985L108.402 23.0985C108.521 23.2169 108.615 23.3577 108.68 23.5127C108.744 23.6676 108.777 23.8338 108.777 24.0016C108.777 24.1694 108.744 24.3356 108.68 24.4905C108.615 24.6455 108.521 24.7863 108.402 24.9047L99.9021 33.4047C99.6626 33.6442 99.3377 33.7788 98.999 33.7788C98.6602 33.7788 98.3354 33.6442 98.0959 33.4047C97.8563 33.1652 97.7218 32.8403 97.7218 32.5016C97.7218 32.1629 97.8563 31.838 98.0959 31.5985L105.694 24.0005L98.0948 16.4026C97.8553 16.1631 97.7207 15.8382 97.7207 15.4995C97.7207 15.1607 97.8553 14.8359 98.0948 14.5963C98.3343 14.3568 98.6592 14.2223 98.9979 14.2223C99.3367 14.2223 99.6615 14.3568 99.901 14.5963L99.9021 14.5985Z" fill="#A1BCD6"/>
<path d="M152.208 30.456H142.896L141.296 35H137.488L145.456 12.728H149.68L157.648 35H153.808L152.208 30.456ZM151.184 27.48L147.568 17.144L143.92 27.48H151.184ZM164.76 19.992C165.379 19.1387 166.222 18.4453 167.288 17.912C168.376 17.3573 169.582 17.08 170.904 17.08C172.462 17.08 173.87 17.4533 175.128 18.2C176.387 18.9467 177.379 20.0133 178.104 21.4C178.83 22.7653 179.192 24.3333 179.192 26.104C179.192 27.8747 178.83 29.464 178.104 30.872C177.379 32.2587 176.376 33.3467 175.096 34.136C173.838 34.904 172.44 35.288 170.904 35.288C169.539 35.288 168.323 35.0213 167.256 34.488C166.211 33.9547 165.379 33.272 164.76 32.44V35H161.112V11.32H164.76V19.992ZM175.48 26.104C175.48 24.888 175.224 23.8427 174.712 22.968C174.222 22.072 173.56 21.4 172.728 20.952C171.918 20.4827 171.043 20.248 170.104 20.248C169.187 20.248 168.312 20.4827 167.48 20.952C166.67 21.4213 166.008 22.104 165.496 23C165.006 23.896 164.76 24.952 164.76 26.168C164.76 27.384 165.006 28.4507 165.496 29.368C166.008 30.264 166.67 30.9467 167.48 31.416C168.312 31.8853 169.187 32.12 170.104 32.12C171.043 32.12 171.918 31.8853 172.728 31.416C173.56 30.9253 174.222 30.2213 174.712 29.304C175.224 28.3867 175.48 27.32 175.48 26.104ZM190.448 35.288C188.784 35.288 187.28 34.9147 185.936 34.168C184.592 33.4 183.536 32.3333 182.768 30.968C182 29.5813 181.616 27.9813 181.616 26.168C181.616 24.376 182.011 22.7867 182.8 21.4C183.589 20.0133 184.667 18.9467 186.032 18.2C187.397 17.4533 188.923 17.08 190.608 17.08C192.293 17.08 193.819 17.4533 195.184 18.2C196.549 18.9467 197.627 20.0133 198.416 21.4C199.205 22.7867 199.6 24.376 199.6 26.168C199.6 27.96 199.195 29.5493 198.384 30.936C197.573 32.3227 196.464 33.4 195.056 34.168C193.669 34.9147 192.133 35.288 190.448 35.288ZM190.448 32.12C191.387 32.12 192.261 31.896 193.072 31.448C193.904 31 194.576 30.328 195.088 29.432C195.6 28.536 195.856 27.448 195.856 26.168C195.856 24.888 195.611 23.8107 195.12 22.936C194.629 22.04 193.979 21.368 193.168 20.92C192.357 20.472 191.483 20.248 190.544 20.248C189.605 20.248 188.731 20.472 187.92 20.92C187.131 21.368 186.501 22.04 186.032 22.936C185.563 23.8107 185.328 24.888 185.328 26.168C185.328 28.0667 185.808 29.5387 186.768 30.584C187.749 31.608 188.976 32.12 190.448 32.12ZM219.174 17.368V35H215.526V32.92C214.95 33.6453 214.193 34.2213 213.254 34.648C212.337 35.0533 211.355 35.256 210.31 35.256C208.923 35.256 207.675 34.968 206.566 34.392C205.478 33.816 204.614 32.9627 203.974 31.832C203.355 30.7013 203.046 29.336 203.046 27.736V17.368H206.662V27.192C206.662 28.7707 207.057 29.9867 207.846 30.84C208.635 31.672 209.713 32.088 211.078 32.088C212.443 32.088 213.521 31.672 214.31 30.84C215.121 29.9867 215.526 28.7707 215.526 27.192V17.368H219.174ZM228.243 20.344V30.104C228.243 30.7653 228.393 31.2453 228.691 31.544C229.011 31.8213 229.545 31.96 230.291 31.96H232.531V35H229.651C228.009 35 226.75 34.616 225.875 33.848C225.001 33.08 224.563 31.832 224.563 30.104V20.344H222.483V17.368H224.563V12.984H228.243V17.368H232.531V20.344H228.243Z" fill="#222222"/>
</svg>
