<svg width="1241" height="274" viewBox="0 0 1241 274" fill="none" xmlns="http://www.w3.org/2000/svg">
<rect x="0.75" y="16.75" width="268.5" height="228.5" rx="23.25" stroke="#0592EF" stroke-width="1.5"/>
<path opacity="0.3" d="M174.5 86C174.5 108.091 156.591 126 134.5 126C112.409 126 94.5 108.091 94.5 86C94.5 63.9086 112.409 46 134.5 46C156.591 46 174.5 63.9086 174.5 86ZM105.407 86C105.407 102.068 118.432 115.093 134.5 115.093C150.568 115.093 163.593 102.068 163.593 86C163.593 69.9325 150.568 56.9071 134.5 56.9071C118.432 56.9071 105.407 69.9325 105.407 86Z" fill="#A1BCD6"/>
<circle cx="134.5" cy="86" r="29" fill="#0592EF"/>
<path d="M148.642 71H141.988L142.822 79.3333C142.822 79.3333 144.488 81 146.988 81C148.301 81.0017 149.568 80.524 150.553 79.6567C150.657 79.5594 150.735 79.4372 150.779 79.3016C150.822 79.166 150.831 79.0214 150.803 78.8817L149.627 71.8333C149.587 71.6005 149.467 71.3891 149.286 71.2366C149.106 71.084 148.878 71.0002 148.642 71V71Z" stroke="white" stroke-width="2"/>
<path d="M141.988 71L142.822 79.3333C142.822 79.3333 141.155 81 138.655 81C136.155 81 134.488 79.3333 134.488 79.3333V71H141.988Z" stroke="#FAFAFA" stroke-width="2"/>
<path d="M134.488 71V79.3333C134.488 79.3333 132.821 81 130.321 81C127.821 81 126.155 79.3333 126.155 79.3333L126.988 71H134.488Z" stroke="#FAFAFA" stroke-width="2"/>
<path d="M126.988 71H120.337C120.1 70.9999 119.871 71.0838 119.69 71.2367C119.51 71.3896 119.389 71.6016 119.35 71.835L118.175 78.8833C118.147 79.0231 118.156 79.1676 118.2 79.3032C118.243 79.4387 118.321 79.5609 118.425 79.6583C118.972 80.1417 120.193 81.0017 121.988 81.0017C124.488 81.0017 126.155 79.335 126.155 79.335L126.988 71.0017V71Z" stroke="#FAFAFA" stroke-width="2"/>
<path d="M119.5 81V97.6667C119.5 98.5507 119.851 99.3986 120.476 100.024C121.101 100.649 121.949 101 122.833 101H146.167C147.051 101 147.899 100.649 148.524 100.024C149.149 99.3986 149.5 98.5507 149.5 97.6667V81" stroke="#FAFAFA" stroke-width="2"/>
<path d="M139.222 101V90.9998C139.222 90.1158 138.87 89.2679 138.245 88.6428C137.62 88.0177 136.772 87.6665 135.888 87.6665H132.555C131.671 87.6665 130.823 88.0177 130.198 88.6428C129.573 89.2679 129.222 90.1158 129.222 90.9998V101" stroke="#FAFAFA" stroke-width="2" stroke-miterlimit="16"/>
<path d="M116.511 153.727V177H111.591V158.398H111.455L106.125 161.739V157.375L111.886 153.727H116.511ZM132.254 177.318C131.057 177.311 129.902 177.11 128.789 176.716C127.682 176.322 126.69 175.682 125.811 174.795C124.932 173.909 124.235 172.735 123.72 171.273C123.213 169.811 122.959 168.015 122.959 165.886C122.967 163.932 123.19 162.186 123.629 160.648C124.076 159.102 124.713 157.792 125.539 156.716C126.372 155.64 127.368 154.822 128.527 154.261C129.686 153.693 130.985 153.409 132.425 153.409C133.978 153.409 135.349 153.712 136.539 154.318C137.728 154.917 138.682 155.731 139.402 156.761C140.129 157.792 140.569 158.947 140.72 160.227H135.868C135.679 159.417 135.281 158.78 134.675 158.318C134.069 157.856 133.319 157.625 132.425 157.625C130.91 157.625 129.758 158.284 128.97 159.602C128.19 160.92 127.792 162.712 127.777 164.977H127.936C128.285 164.288 128.754 163.701 129.345 163.216C129.944 162.723 130.622 162.348 131.379 162.091C132.145 161.826 132.951 161.693 133.8 161.693C135.179 161.693 136.406 162.019 137.482 162.67C138.557 163.314 139.406 164.201 140.027 165.33C140.648 166.458 140.959 167.75 140.959 169.205C140.959 170.78 140.592 172.182 139.857 173.409C139.129 174.636 138.11 175.598 136.8 176.295C135.497 176.985 133.982 177.326 132.254 177.318ZM132.232 173.455C132.989 173.455 133.667 173.273 134.266 172.909C134.864 172.545 135.334 172.053 135.675 171.432C136.016 170.811 136.186 170.114 136.186 169.341C136.186 168.568 136.016 167.875 135.675 167.261C135.342 166.648 134.879 166.159 134.289 165.795C133.698 165.432 133.023 165.25 132.266 165.25C131.698 165.25 131.171 165.356 130.686 165.568C130.209 165.78 129.789 166.076 129.425 166.455C129.069 166.833 128.789 167.273 128.584 167.773C128.379 168.265 128.277 168.792 128.277 169.352C128.277 170.102 128.448 170.788 128.789 171.409C129.137 172.03 129.607 172.527 130.198 172.898C130.796 173.269 131.474 173.455 132.232 173.455ZM150.159 171.977L150.171 166.17H150.875L156.466 159.545H162.023L154.512 168.318H153.364L150.159 171.977ZM145.773 177V153.727H150.614V177H145.773ZM156.682 177L151.546 169.398L154.773 165.977L162.353 177H156.682Z" fill="#0592EF"/>
<path d="M54.8696 210.112C54.1336 210.112 53.4722 209.984 52.8856 209.728C52.3096 209.461 51.8562 209.099 51.5256 208.64C51.1949 208.171 51.0242 207.632 51.0136 207.024H52.5656C52.6189 207.547 52.8322 207.989 53.2056 208.352C53.5896 208.704 54.1442 208.88 54.8696 208.88C55.5629 208.88 56.1069 208.709 56.5016 208.368C56.9069 208.016 57.1096 207.568 57.1096 207.024C57.1096 206.597 56.9922 206.251 56.7576 205.984C56.5229 205.717 56.2296 205.515 55.8776 205.376C55.5256 205.237 55.0509 205.088 54.4536 204.928C53.7176 204.736 53.1256 204.544 52.6776 204.352C52.2402 204.16 51.8616 203.861 51.5416 203.456C51.2322 203.04 51.0776 202.485 51.0776 201.792C51.0776 201.184 51.2322 200.645 51.5416 200.176C51.8509 199.707 52.2829 199.344 52.8376 199.088C53.4029 198.832 54.0482 198.704 54.7736 198.704C55.8189 198.704 56.6722 198.965 57.3336 199.488C58.0056 200.011 58.3842 200.704 58.4696 201.568H56.8696C56.8162 201.141 56.5922 200.768 56.1976 200.448C55.8029 200.117 55.2802 199.952 54.6296 199.952C54.0216 199.952 53.5256 200.112 53.1416 200.432C52.7576 200.741 52.5656 201.179 52.5656 201.744C52.5656 202.149 52.6776 202.48 52.9016 202.736C53.1362 202.992 53.4189 203.189 53.7496 203.328C54.0909 203.456 54.5656 203.605 55.1736 203.776C55.9096 203.979 56.5016 204.181 56.9496 204.384C57.3976 204.576 57.7816 204.88 58.1016 205.296C58.4216 205.701 58.5816 206.256 58.5816 206.96C58.5816 207.504 58.4376 208.016 58.1496 208.496C57.8616 208.976 57.4349 209.365 56.8696 209.664C56.3042 209.963 55.6376 210.112 54.8696 210.112ZM60.1802 205.584C60.1802 204.688 60.3615 203.904 60.7242 203.232C61.0869 202.549 61.5829 202.021 62.2122 201.648C62.8522 201.275 63.5615 201.088 64.3402 201.088C65.1082 201.088 65.7749 201.253 66.3402 201.584C66.9055 201.915 67.3269 202.331 67.6042 202.832V201.232H69.0762V210H67.6042V208.368C67.3162 208.88 66.8842 209.307 66.3082 209.648C65.7429 209.979 65.0815 210.144 64.3242 210.144C63.5455 210.144 62.8415 209.952 62.2122 209.568C61.5829 209.184 61.0869 208.645 60.7242 207.952C60.3615 207.259 60.1802 206.469 60.1802 205.584ZM67.6042 205.6C67.6042 204.939 67.4709 204.363 67.2042 203.872C66.9375 203.381 66.5749 203.008 66.1162 202.752C65.6682 202.485 65.1722 202.352 64.6282 202.352C64.0842 202.352 63.5882 202.48 63.1402 202.736C62.6922 202.992 62.3349 203.365 62.0682 203.856C61.8015 204.347 61.6682 204.923 61.6682 205.584C61.6682 206.256 61.8015 206.843 62.0682 207.344C62.3349 207.835 62.6922 208.213 63.1402 208.48C63.5882 208.736 64.0842 208.864 64.6282 208.864C65.1722 208.864 65.6682 208.736 66.1162 208.48C66.5749 208.213 66.9375 207.835 67.2042 207.344C67.4709 206.843 67.6042 206.261 67.6042 205.6ZM72.9927 198.16V210H71.5367V198.16H72.9927ZM76.9302 198.16V210H75.4742V198.16H76.9302ZM87.4117 205.28C87.4117 205.557 87.3957 205.851 87.3637 206.16H80.3557C80.409 207.024 80.7024 207.701 81.2357 208.192C81.7797 208.672 82.4357 208.912 83.2037 208.912C83.833 208.912 84.3557 208.768 84.7717 208.48C85.1984 208.181 85.497 207.787 85.6677 207.296H87.2357C87.001 208.139 86.5317 208.827 85.8277 209.36C85.1237 209.883 84.249 210.144 83.2037 210.144C82.3717 210.144 81.625 209.957 80.9637 209.584C80.313 209.211 79.801 208.683 79.4277 208C79.0544 207.307 78.8677 206.507 78.8677 205.6C78.8677 204.693 79.049 203.899 79.4117 203.216C79.7744 202.533 80.281 202.011 80.9317 201.648C81.593 201.275 82.3504 201.088 83.2037 201.088C84.0357 201.088 84.7717 201.269 85.4117 201.632C86.0517 201.995 86.5424 202.496 86.8837 203.136C87.2357 203.765 87.4117 204.48 87.4117 205.28ZM85.9077 204.976C85.9077 204.421 85.785 203.947 85.5397 203.552C85.2944 203.147 84.9584 202.843 84.5317 202.64C84.1157 202.427 83.6517 202.32 83.1397 202.32C82.4037 202.32 81.7744 202.555 81.2517 203.024C80.7397 203.493 80.4464 204.144 80.3717 204.976H85.9077ZM90.7896 202.656C91.0456 202.155 91.4082 201.765 91.8776 201.488C92.3576 201.211 92.9389 201.072 93.6216 201.072V202.576H93.2376C91.6056 202.576 90.7896 203.461 90.7896 205.232V210H89.3336V201.232H90.7896V202.656ZM98.4063 210.144C97.7343 210.144 97.1316 210.032 96.5983 209.808C96.065 209.573 95.6436 209.253 95.3343 208.848C95.025 208.432 94.8543 207.957 94.8223 207.424H96.3263C96.369 207.861 96.5716 208.219 96.9343 208.496C97.3076 208.773 97.793 208.912 98.3903 208.912C98.945 208.912 99.3823 208.789 99.7023 208.544C100.022 208.299 100.182 207.989 100.182 207.616C100.182 207.232 100.012 206.949 99.6703 206.768C99.329 206.576 98.801 206.389 98.0863 206.208C97.4356 206.037 96.9023 205.867 96.4863 205.696C96.081 205.515 95.729 205.253 95.4303 204.912C95.1423 204.56 94.9983 204.101 94.9983 203.536C94.9983 203.088 95.1316 202.677 95.3983 202.304C95.665 201.931 96.0436 201.637 96.5343 201.424C97.025 201.2 97.585 201.088 98.2143 201.088C99.185 201.088 99.969 201.333 100.566 201.824C101.164 202.315 101.484 202.987 101.526 203.84H100.07C100.038 203.381 99.8516 203.013 99.5103 202.736C99.1796 202.459 98.7316 202.32 98.1663 202.32C97.6436 202.32 97.2276 202.432 96.9183 202.656C96.609 202.88 96.4543 203.173 96.4543 203.536C96.4543 203.824 96.545 204.064 96.7263 204.256C96.9183 204.437 97.153 204.587 97.4303 204.704C97.7183 204.811 98.113 204.933 98.6143 205.072C99.2436 205.243 99.7556 205.413 100.15 205.584C100.545 205.744 100.881 205.989 101.158 206.32C101.446 206.651 101.596 207.083 101.606 207.616C101.606 208.096 101.473 208.528 101.206 208.912C100.94 209.296 100.561 209.6 100.07 209.824C99.5903 210.037 99.0356 210.144 98.4063 210.144ZM107.383 205.584C107.383 204.688 107.565 203.904 107.927 203.232C108.29 202.549 108.786 202.021 109.415 201.648C110.055 201.275 110.765 201.088 111.543 201.088C112.311 201.088 112.978 201.253 113.543 201.584C114.109 201.915 114.53 202.331 114.807 202.832V201.232H116.279V210H114.807V208.368C114.519 208.88 114.087 209.307 113.511 209.648C112.946 209.979 112.285 210.144 111.527 210.144C110.749 210.144 110.045 209.952 109.415 209.568C108.786 209.184 108.29 208.645 107.927 207.952C107.565 207.259 107.383 206.469 107.383 205.584ZM114.807 205.6C114.807 204.939 114.674 204.363 114.407 203.872C114.141 203.381 113.778 203.008 113.319 202.752C112.871 202.485 112.375 202.352 111.831 202.352C111.287 202.352 110.791 202.48 110.343 202.736C109.895 202.992 109.538 203.365 109.271 203.856C109.005 204.347 108.871 204.923 108.871 205.584C108.871 206.256 109.005 206.843 109.271 207.344C109.538 207.835 109.895 208.213 110.343 208.48C110.791 208.736 111.287 208.864 111.831 208.864C112.375 208.864 112.871 208.736 113.319 208.48C113.778 208.213 114.141 207.835 114.407 207.344C114.674 206.843 114.807 206.261 114.807 205.6ZM118.196 205.6C118.196 204.693 118.377 203.904 118.74 203.232C119.102 202.549 119.604 202.021 120.244 201.648C120.894 201.275 121.636 201.088 122.468 201.088C123.545 201.088 124.43 201.349 125.124 201.872C125.828 202.395 126.292 203.12 126.516 204.048H124.948C124.798 203.515 124.505 203.093 124.068 202.784C123.641 202.475 123.108 202.32 122.468 202.32C121.636 202.32 120.964 202.608 120.452 203.184C119.94 203.749 119.684 204.555 119.684 205.6C119.684 206.656 119.94 207.472 120.452 208.048C120.964 208.624 121.636 208.912 122.468 208.912C123.108 208.912 123.641 208.763 124.068 208.464C124.494 208.165 124.788 207.739 124.948 207.184H126.516C126.281 208.08 125.812 208.8 125.108 209.344C124.404 209.877 123.524 210.144 122.468 210.144C121.636 210.144 120.894 209.957 120.244 209.584C119.604 209.211 119.102 208.683 118.74 208C118.377 207.317 118.196 206.517 118.196 205.6ZM130.235 202.432V207.6C130.235 208.027 130.325 208.331 130.507 208.512C130.688 208.683 131.003 208.768 131.451 208.768H132.523V210H131.211C130.4 210 129.792 209.813 129.387 209.44C128.981 209.067 128.779 208.453 128.779 207.6V202.432H127.643V201.232H128.779V199.024H130.235V201.232H132.523V202.432H130.235ZM135.039 199.808C134.761 199.808 134.527 199.712 134.335 199.52C134.143 199.328 134.047 199.093 134.047 198.816C134.047 198.539 134.143 198.304 134.335 198.112C134.527 197.92 134.761 197.824 135.039 197.824C135.305 197.824 135.529 197.92 135.711 198.112C135.903 198.304 135.999 198.539 135.999 198.816C135.999 199.093 135.903 199.328 135.711 199.52C135.529 199.712 135.305 199.808 135.039 199.808ZM135.743 201.232V210H134.287V201.232H135.743ZM141.488 208.656L144.208 201.232H145.76L142.32 210H140.624L137.184 201.232H138.752L141.488 208.656ZM155.193 205.28C155.193 205.557 155.177 205.851 155.145 206.16H148.137C148.19 207.024 148.484 207.701 149.017 208.192C149.561 208.672 150.217 208.912 150.985 208.912C151.614 208.912 152.137 208.768 152.553 208.48C152.98 208.181 153.278 207.787 153.449 207.296H155.017C154.782 208.139 154.313 208.827 153.609 209.36C152.905 209.883 152.03 210.144 150.985 210.144C150.153 210.144 149.406 209.957 148.745 209.584C148.094 209.211 147.582 208.683 147.209 208C146.836 207.307 146.649 206.507 146.649 205.6C146.649 204.693 146.83 203.899 147.193 203.216C147.556 202.533 148.062 202.011 148.713 201.648C149.374 201.275 150.132 201.088 150.985 201.088C151.817 201.088 152.553 201.269 153.193 201.632C153.833 201.995 154.324 202.496 154.665 203.136C155.017 203.765 155.193 204.48 155.193 205.28ZM153.689 204.976C153.689 204.421 153.566 203.947 153.321 203.552C153.076 203.147 152.74 202.843 152.313 202.64C151.897 202.427 151.433 202.32 150.921 202.32C150.185 202.32 149.556 202.555 149.033 203.024C148.521 203.493 148.228 204.144 148.153 204.976H153.689ZM165.204 210.144C164.383 210.144 163.636 209.957 162.964 209.584C162.303 209.211 161.78 208.683 161.396 208C161.023 207.307 160.836 206.507 160.836 205.6C160.836 204.704 161.028 203.915 161.412 203.232C161.807 202.539 162.34 202.011 163.012 201.648C163.684 201.275 164.436 201.088 165.268 201.088C166.1 201.088 166.852 201.275 167.524 201.648C168.196 202.011 168.724 202.533 169.108 203.216C169.503 203.899 169.7 204.693 169.7 205.6C169.7 206.507 169.498 207.307 169.092 208C168.698 208.683 168.159 209.211 167.476 209.584C166.794 209.957 166.036 210.144 165.204 210.144ZM165.204 208.864C165.727 208.864 166.218 208.741 166.676 208.496C167.135 208.251 167.503 207.883 167.78 207.392C168.068 206.901 168.212 206.304 168.212 205.6C168.212 204.896 168.074 204.299 167.796 203.808C167.519 203.317 167.156 202.955 166.708 202.72C166.26 202.475 165.775 202.352 165.252 202.352C164.719 202.352 164.228 202.475 163.78 202.72C163.343 202.955 162.991 203.317 162.724 203.808C162.458 204.299 162.324 204.896 162.324 205.6C162.324 206.315 162.452 206.917 162.708 207.408C162.975 207.899 163.327 208.267 163.764 208.512C164.202 208.747 164.682 208.864 165.204 208.864ZM179.391 201.232V210H177.935V208.704C177.657 209.152 177.268 209.504 176.767 209.76C176.276 210.005 175.732 210.128 175.135 210.128C174.452 210.128 173.839 209.989 173.295 209.712C172.751 209.424 172.319 208.997 171.999 208.432C171.689 207.867 171.535 207.179 171.535 206.368V201.232H172.975V206.176C172.975 207.04 173.193 207.707 173.631 208.176C174.068 208.635 174.665 208.864 175.423 208.864C176.201 208.864 176.815 208.624 177.263 208.144C177.711 207.664 177.935 206.965 177.935 206.048V201.232H179.391ZM183.305 202.656C183.561 202.155 183.924 201.765 184.393 201.488C184.873 201.211 185.455 201.072 186.137 201.072V202.576H185.753C184.121 202.576 183.305 203.461 183.305 205.232V210H181.849V201.232H183.305V202.656ZM195.188 210.144C194.516 210.144 193.913 210.032 193.38 209.808C192.846 209.573 192.425 209.253 192.116 208.848C191.806 208.432 191.636 207.957 191.604 207.424H193.108C193.15 207.861 193.353 208.219 193.716 208.496C194.089 208.773 194.574 208.912 195.172 208.912C195.726 208.912 196.164 208.789 196.484 208.544C196.804 208.299 196.964 207.989 196.964 207.616C196.964 207.232 196.793 206.949 196.452 206.768C196.11 206.576 195.582 206.389 194.868 206.208C194.217 206.037 193.684 205.867 193.268 205.696C192.862 205.515 192.51 205.253 192.212 204.912C191.924 204.56 191.78 204.101 191.78 203.536C191.78 203.088 191.913 202.677 192.18 202.304C192.446 201.931 192.825 201.637 193.316 201.424C193.806 201.2 194.366 201.088 194.996 201.088C195.966 201.088 196.75 201.333 197.348 201.824C197.945 202.315 198.265 202.987 198.308 203.84H196.852C196.82 203.381 196.633 203.013 196.292 202.736C195.961 202.459 195.513 202.32 194.948 202.32C194.425 202.32 194.009 202.432 193.7 202.656C193.39 202.88 193.236 203.173 193.236 203.536C193.236 203.824 193.326 204.064 193.508 204.256C193.7 204.437 193.934 204.587 194.212 204.704C194.5 204.811 194.894 204.933 195.396 205.072C196.025 205.243 196.537 205.413 196.932 205.584C197.326 205.744 197.662 205.989 197.94 206.32C198.228 206.651 198.377 207.083 198.388 207.616C198.388 208.096 198.254 208.528 197.988 208.912C197.721 209.296 197.342 209.6 196.852 209.824C196.372 210.037 195.817 210.144 195.188 210.144ZM201.195 199.808C200.918 199.808 200.683 199.712 200.491 199.52C200.299 199.328 200.203 199.093 200.203 198.816C200.203 198.539 200.299 198.304 200.491 198.112C200.683 197.92 200.918 197.824 201.195 197.824C201.462 197.824 201.686 197.92 201.867 198.112C202.059 198.304 202.155 198.539 202.155 198.816C202.155 199.093 202.059 199.328 201.867 199.52C201.686 199.712 201.462 199.808 201.195 199.808ZM201.899 201.232V210H200.443V201.232H201.899ZM206.156 202.432V207.6C206.156 208.027 206.247 208.331 206.428 208.512C206.61 208.683 206.924 208.768 207.372 208.768H208.444V210H207.132C206.322 210 205.714 209.813 205.308 209.44C204.903 209.067 204.7 208.453 204.7 207.6V202.432H203.564V201.232H204.7V199.024H206.156V201.232H208.444V202.432H206.156ZM218.209 205.28C218.209 205.557 218.193 205.851 218.161 206.16H211.153C211.206 207.024 211.499 207.701 212.033 208.192C212.577 208.672 213.233 208.912 214.001 208.912C214.63 208.912 215.153 208.768 215.569 208.48C215.995 208.181 216.294 207.787 216.465 207.296H218.033C217.798 208.139 217.329 208.827 216.625 209.36C215.921 209.883 215.046 210.144 214.001 210.144C213.169 210.144 212.422 209.957 211.761 209.584C211.11 209.211 210.598 208.683 210.225 208C209.851 207.307 209.665 206.507 209.665 205.6C209.665 204.693 209.846 203.899 210.209 203.216C210.571 202.533 211.078 202.011 211.729 201.648C212.39 201.275 213.147 201.088 214.001 201.088C214.833 201.088 215.569 201.269 216.209 201.632C216.849 201.995 217.339 202.496 217.681 203.136C218.033 203.765 218.209 204.48 218.209 205.28ZM216.705 204.976C216.705 204.421 216.582 203.947 216.337 203.552C216.091 203.147 215.755 202.843 215.329 202.64C214.913 202.427 214.449 202.32 213.937 202.32C213.201 202.32 212.571 202.555 212.049 203.024C211.537 203.493 211.243 204.144 211.169 204.976H216.705Z" fill="#0592EF"/>
<g filter="url(#filter0_d_42_6737)">
<rect x="322" y="16" width="270" height="230" rx="24" fill="#0592EF"/>
<path opacity="0.3" d="M497 88C497 110.091 479.091 128 457 128C434.909 128 417 110.091 417 88C417 65.9086 434.909 48 457 48C479.091 48 497 65.9086 497 88ZM427.907 88C427.907 104.068 440.932 117.093 457 117.093C473.068 117.093 486.093 104.068 486.093 88C486.093 71.9325 473.068 58.9071 457 58.9071C440.932 58.9071 427.907 71.9325 427.907 88Z" fill="white"/>
<circle cx="457" cy="88" r="29" fill="white"/>
<path d="M457 105.273C466.539 105.273 474.273 97.5392 474.273 87.9998C474.273 78.4603 466.539 70.7271 457 70.7271C447.46 70.7271 439.727 78.4603 439.727 87.9998C439.727 97.5392 447.46 105.273 457 105.273Z" stroke="#222222" stroke-width="2" stroke-linecap="round" stroke-linejoin="round"/>
<path d="M462.091 82.5468C461.761 81.9756 461.283 81.5047 460.706 81.1845C460.13 80.8644 459.477 80.7069 458.818 80.7291H455.182C454.217 80.7291 453.292 81.1121 452.61 81.7939C451.929 82.4756 451.545 83.4003 451.545 84.3644C451.545 85.3286 451.929 86.2533 452.61 86.935C453.292 87.6168 454.217 87.9998 455.182 87.9998H458.818C459.783 87.9998 460.707 88.3828 461.389 89.0645C462.071 89.7463 462.455 90.671 462.455 91.6351C462.455 92.5993 462.071 93.5239 461.389 94.2057C460.707 94.8874 459.783 95.2704 458.818 95.2704H455.182C454.523 95.2926 453.87 95.1352 453.293 94.815C452.717 94.4948 452.238 94.024 451.909 93.4528" stroke="#222222" stroke-width="2.75" stroke-linecap="round" stroke-linejoin="round"/>
<path d="M457 76.1816V80.121M457 95.8786V99.818" stroke="#222222" stroke-width="2.75" stroke-linecap="round" stroke-linejoin="round"/>
<path d="M426.886 179V175.455L435.17 167.784C435.875 167.102 436.466 166.489 436.943 165.943C437.428 165.398 437.795 164.864 438.045 164.341C438.295 163.811 438.42 163.239 438.42 162.625C438.42 161.943 438.265 161.356 437.955 160.864C437.644 160.364 437.22 159.981 436.682 159.716C436.144 159.443 435.534 159.307 434.852 159.307C434.14 159.307 433.519 159.451 432.989 159.739C432.458 160.027 432.049 160.439 431.761 160.977C431.473 161.515 431.33 162.155 431.33 162.898H426.659C426.659 161.375 427.004 160.053 427.693 158.932C428.383 157.811 429.348 156.943 430.591 156.33C431.833 155.716 433.265 155.409 434.886 155.409C436.553 155.409 438.004 155.705 439.239 156.295C440.481 156.879 441.447 157.689 442.136 158.727C442.826 159.765 443.17 160.955 443.17 162.295C443.17 163.174 442.996 164.042 442.648 164.898C442.307 165.754 441.697 166.705 440.818 167.75C439.939 168.788 438.701 170.034 437.102 171.489L433.705 174.818V174.977H443.477V179H426.886ZM457.448 179.511C455.493 179.504 453.811 179.023 452.402 178.068C451.001 177.114 449.921 175.731 449.164 173.92C448.414 172.11 448.042 169.932 448.05 167.386C448.05 164.848 448.425 162.686 449.175 160.898C449.932 159.11 451.012 157.75 452.414 156.818C453.823 155.879 455.501 155.409 457.448 155.409C459.395 155.409 461.069 155.879 462.47 156.818C463.879 157.758 464.963 159.121 465.72 160.909C466.478 162.689 466.853 164.848 466.845 167.386C466.845 169.939 466.467 172.121 465.709 173.932C464.959 175.742 463.883 177.125 462.482 178.08C461.08 179.034 459.402 179.511 457.448 179.511ZM457.448 175.432C458.781 175.432 459.845 174.761 460.641 173.42C461.436 172.08 461.83 170.068 461.823 167.386C461.823 165.621 461.641 164.152 461.277 162.977C460.921 161.803 460.414 160.92 459.754 160.33C459.103 159.739 458.334 159.443 457.448 159.443C456.122 159.443 455.061 160.106 454.266 161.432C453.47 162.758 453.069 164.742 453.061 167.386C453.061 169.174 453.239 170.667 453.595 171.864C453.959 173.053 454.47 173.947 455.129 174.545C455.789 175.136 456.561 175.432 457.448 175.432ZM476.066 173.977L476.077 168.17H476.782L482.373 161.545H487.929L480.418 170.318H479.27L476.066 173.977ZM471.679 179V155.727H476.52V179H471.679ZM482.588 179L477.452 171.398L480.679 167.977L488.259 179H482.588Z" fill="white"/>
<path d="M369.544 196.928V208H368.088V199.744L364.408 208H363.384L359.688 199.728V208H358.232V196.928H359.8L363.896 206.08L367.992 196.928H369.544ZM375.837 208.144C375.016 208.144 374.269 207.957 373.597 207.584C372.936 207.211 372.413 206.683 372.029 206C371.656 205.307 371.469 204.507 371.469 203.6C371.469 202.704 371.661 201.915 372.045 201.232C372.44 200.539 372.973 200.011 373.645 199.648C374.317 199.275 375.069 199.088 375.901 199.088C376.733 199.088 377.485 199.275 378.157 199.648C378.829 200.011 379.357 200.533 379.741 201.216C380.136 201.899 380.333 202.693 380.333 203.6C380.333 204.507 380.131 205.307 379.725 206C379.331 206.683 378.792 207.211 378.109 207.584C377.427 207.957 376.669 208.144 375.837 208.144ZM375.837 206.864C376.36 206.864 376.851 206.741 377.309 206.496C377.768 206.251 378.136 205.883 378.413 205.392C378.701 204.901 378.845 204.304 378.845 203.6C378.845 202.896 378.707 202.299 378.429 201.808C378.152 201.317 377.789 200.955 377.341 200.72C376.893 200.475 376.408 200.352 375.885 200.352C375.352 200.352 374.861 200.475 374.413 200.72C373.976 200.955 373.624 201.317 373.357 201.808C373.091 202.299 372.957 202.896 372.957 203.6C372.957 204.315 373.085 204.917 373.341 205.408C373.608 205.899 373.96 206.267 374.397 206.512C374.835 206.747 375.315 206.864 375.837 206.864ZM383.704 200.848C383.992 200.347 384.418 199.931 384.984 199.6C385.56 199.259 386.226 199.088 386.984 199.088C387.762 199.088 388.466 199.275 389.096 199.648C389.736 200.021 390.237 200.549 390.6 201.232C390.962 201.904 391.144 202.688 391.144 203.584C391.144 204.469 390.962 205.259 390.6 205.952C390.237 206.645 389.736 207.184 389.096 207.568C388.466 207.952 387.762 208.144 386.984 208.144C386.237 208.144 385.576 207.979 385 207.648C384.434 207.307 384.002 206.885 383.704 206.384V212.16H382.248V199.232H383.704V200.848ZM389.656 203.584C389.656 202.923 389.522 202.347 389.256 201.856C388.989 201.365 388.626 200.992 388.168 200.736C387.72 200.48 387.224 200.352 386.68 200.352C386.146 200.352 385.65 200.485 385.192 200.752C384.744 201.008 384.381 201.387 384.104 201.888C383.837 202.379 383.704 202.949 383.704 203.6C383.704 204.261 383.837 204.843 384.104 205.344C384.381 205.835 384.744 206.213 385.192 206.48C385.65 206.736 386.146 206.864 386.68 206.864C387.224 206.864 387.72 206.736 388.168 206.48C388.626 206.213 388.989 205.835 389.256 205.344C389.522 204.843 389.656 204.256 389.656 203.584ZM397.332 199.072C398.399 199.072 399.263 199.397 399.924 200.048C400.585 200.688 400.916 201.616 400.916 202.832V208H399.476V203.04C399.476 202.165 399.257 201.499 398.82 201.04C398.383 200.571 397.785 200.336 397.028 200.336C396.26 200.336 395.647 200.576 395.188 201.056C394.74 201.536 394.516 202.235 394.516 203.152V208H393.06V199.232H394.516V200.48C394.804 200.032 395.193 199.685 395.684 199.44C396.185 199.195 396.735 199.072 397.332 199.072ZM405.071 200.432V205.6C405.071 206.027 405.161 206.331 405.343 206.512C405.524 206.683 405.839 206.768 406.286 206.768H407.359V208H406.047C405.236 208 404.628 207.813 404.223 207.44C403.817 207.067 403.615 206.453 403.615 205.6V200.432H402.479V199.232H403.615V197.024H405.071V199.232H407.359V200.432H405.071ZM413.475 199.072C414.136 199.072 414.733 199.216 415.267 199.504C415.8 199.781 416.216 200.203 416.515 200.768C416.824 201.333 416.979 202.021 416.979 202.832V208H415.539V203.04C415.539 202.165 415.32 201.499 414.883 201.04C414.445 200.571 413.848 200.336 413.091 200.336C412.323 200.336 411.709 200.576 411.251 201.056C410.803 201.536 410.579 202.235 410.579 203.152V208H409.123V196.16H410.579V200.48C410.867 200.032 411.261 199.685 411.763 199.44C412.275 199.195 412.845 199.072 413.475 199.072ZM420.813 196.16V208H419.357V196.16H420.813ZM430.847 199.232L425.567 212.128H424.062L425.791 207.904L422.255 199.232H423.871L426.623 206.336L429.343 199.232H430.847ZM444.032 200.112C444.032 201.04 443.712 201.813 443.072 202.432C442.442 203.04 441.477 203.344 440.176 203.344H438.032V208H436.576V196.848H440.176C441.434 196.848 442.389 197.152 443.04 197.76C443.701 198.368 444.032 199.152 444.032 200.112ZM440.176 202.144C440.986 202.144 441.584 201.968 441.968 201.616C442.352 201.264 442.544 200.763 442.544 200.112C442.544 198.736 441.754 198.048 440.176 198.048H438.032V202.144H440.176ZM447.297 200.656C447.553 200.155 447.916 199.765 448.385 199.488C448.865 199.211 449.447 199.072 450.129 199.072V200.576H449.745C448.113 200.576 447.297 201.461 447.297 203.232V208H445.841V199.232H447.297V200.656ZM455.634 208.144C454.813 208.144 454.066 207.957 453.394 207.584C452.733 207.211 452.21 206.683 451.826 206C451.453 205.307 451.266 204.507 451.266 203.6C451.266 202.704 451.458 201.915 451.842 201.232C452.237 200.539 452.77 200.011 453.442 199.648C454.114 199.275 454.866 199.088 455.698 199.088C456.53 199.088 457.282 199.275 457.954 199.648C458.626 200.011 459.154 200.533 459.538 201.216C459.933 201.899 460.13 202.693 460.13 203.6C460.13 204.507 459.927 205.307 459.522 206C459.127 206.683 458.589 207.211 457.906 207.584C457.223 207.957 456.466 208.144 455.634 208.144ZM455.634 206.864C456.157 206.864 456.647 206.741 457.106 206.496C457.565 206.251 457.933 205.883 458.21 205.392C458.498 204.901 458.642 204.304 458.642 203.6C458.642 202.896 458.503 202.299 458.226 201.808C457.949 201.317 457.586 200.955 457.138 200.72C456.69 200.475 456.205 200.352 455.682 200.352C455.149 200.352 454.658 200.475 454.21 200.72C453.773 200.955 453.421 201.317 453.154 201.808C452.887 202.299 452.754 202.896 452.754 203.6C452.754 204.315 452.882 204.917 453.138 205.408C453.405 205.899 453.757 206.267 454.194 206.512C454.631 206.747 455.111 206.864 455.634 206.864ZM461.501 203.584C461.501 202.688 461.682 201.904 462.045 201.232C462.407 200.549 462.903 200.021 463.533 199.648C464.173 199.275 464.887 199.088 465.677 199.088C466.359 199.088 466.994 199.248 467.581 199.568C468.167 199.877 468.615 200.288 468.925 200.8V196.16H470.397V208H468.925V206.352C468.637 206.875 468.21 207.307 467.645 207.648C467.079 207.979 466.418 208.144 465.661 208.144C464.882 208.144 464.173 207.952 463.533 207.568C462.903 207.184 462.407 206.645 462.045 205.952C461.682 205.259 461.501 204.469 461.501 203.584ZM468.925 203.6C468.925 202.939 468.791 202.363 468.525 201.872C468.258 201.381 467.895 201.008 467.437 200.752C466.989 200.485 466.493 200.352 465.949 200.352C465.405 200.352 464.909 200.48 464.461 200.736C464.013 200.992 463.655 201.365 463.389 201.856C463.122 202.347 462.989 202.923 462.989 203.584C462.989 204.256 463.122 204.843 463.389 205.344C463.655 205.835 464.013 206.213 464.461 206.48C464.909 206.736 465.405 206.864 465.949 206.864C466.493 206.864 466.989 206.736 467.437 206.48C467.895 206.213 468.258 205.835 468.525 205.344C468.791 204.843 468.925 204.261 468.925 203.6ZM480.633 199.232V208H479.177V206.704C478.9 207.152 478.51 207.504 478.009 207.76C477.518 208.005 476.974 208.128 476.377 208.128C475.694 208.128 475.081 207.989 474.537 207.712C473.993 207.424 473.561 206.997 473.241 206.432C472.932 205.867 472.777 205.179 472.777 204.368V199.232H474.217V204.176C474.217 205.04 474.436 205.707 474.873 206.176C475.31 206.635 475.908 206.864 476.665 206.864C477.444 206.864 478.057 206.624 478.505 206.144C478.953 205.664 479.177 204.965 479.177 204.048V199.232H480.633ZM482.547 203.584C482.547 202.688 482.729 201.904 483.091 201.232C483.454 200.549 483.95 200.021 484.579 199.648C485.219 199.275 485.934 199.088 486.723 199.088C487.406 199.088 488.041 199.248 488.627 199.568C489.214 199.877 489.662 200.288 489.971 200.8V196.16H491.443V208H489.971V206.352C489.683 206.875 489.257 207.307 488.691 207.648C488.126 207.979 487.465 208.144 486.707 208.144C485.929 208.144 485.219 207.952 484.579 207.568C483.95 207.184 483.454 206.645 483.091 205.952C482.729 205.259 482.547 204.469 482.547 203.584ZM489.971 203.6C489.971 202.939 489.838 202.363 489.571 201.872C489.305 201.381 488.942 201.008 488.483 200.752C488.035 200.485 487.539 200.352 486.995 200.352C486.451 200.352 485.955 200.48 485.507 200.736C485.059 200.992 484.702 201.365 484.435 201.856C484.169 202.347 484.035 202.923 484.035 203.584C484.035 204.256 484.169 204.843 484.435 205.344C484.702 205.835 485.059 206.213 485.507 206.48C485.955 206.736 486.451 206.864 486.995 206.864C487.539 206.864 488.035 206.736 488.483 206.48C488.942 206.213 489.305 205.835 489.571 205.344C489.838 204.843 489.971 204.261 489.971 203.6ZM501.68 199.232V208H500.224V206.704C499.947 207.152 499.557 207.504 499.056 207.76C498.565 208.005 498.021 208.128 497.424 208.128C496.741 208.128 496.128 207.989 495.584 207.712C495.04 207.424 494.608 206.997 494.288 206.432C493.979 205.867 493.824 205.179 493.824 204.368V199.232H495.264V204.176C495.264 205.04 495.483 205.707 495.92 206.176C496.357 206.635 496.955 206.864 497.712 206.864C498.491 206.864 499.104 206.624 499.552 206.144C500 205.664 500.224 204.965 500.224 204.048V199.232H501.68ZM503.594 203.6C503.594 202.693 503.776 201.904 504.138 201.232C504.501 200.549 505.002 200.021 505.642 199.648C506.293 199.275 507.034 199.088 507.866 199.088C508.944 199.088 509.829 199.349 510.522 199.872C511.226 200.395 511.69 201.12 511.914 202.048H510.346C510.197 201.515 509.904 201.093 509.466 200.784C509.04 200.475 508.506 200.32 507.866 200.32C507.034 200.32 506.362 200.608 505.85 201.184C505.338 201.749 505.082 202.555 505.082 203.6C505.082 204.656 505.338 205.472 505.85 206.048C506.362 206.624 507.034 206.912 507.866 206.912C508.506 206.912 509.04 206.763 509.466 206.464C509.893 206.165 510.186 205.739 510.346 205.184H511.914C511.68 206.08 511.21 206.8 510.506 207.344C509.802 207.877 508.922 208.144 507.866 208.144C507.034 208.144 506.293 207.957 505.642 207.584C505.002 207.211 504.501 206.683 504.138 206C503.776 205.317 503.594 204.517 503.594 203.6ZM515.633 200.432V205.6C515.633 206.027 515.724 206.331 515.905 206.512C516.086 206.683 516.401 206.768 516.849 206.768H517.921V208H516.609C515.798 208 515.19 207.813 514.785 207.44C514.38 207.067 514.177 206.453 514.177 205.6V200.432H513.041V199.232H514.177V197.024H515.633V199.232H517.921V200.432H515.633ZM527.487 208.112C526.751 208.112 526.089 207.984 525.503 207.728C524.927 207.461 524.473 207.099 524.143 206.64C523.812 206.171 523.641 205.632 523.631 205.024H525.183C525.236 205.547 525.449 205.989 525.823 206.352C526.207 206.704 526.761 206.88 527.487 206.88C528.18 206.88 528.724 206.709 529.119 206.368C529.524 206.016 529.727 205.568 529.727 205.024C529.727 204.597 529.609 204.251 529.375 203.984C529.14 203.717 528.847 203.515 528.495 203.376C528.143 203.237 527.668 203.088 527.071 202.928C526.335 202.736 525.743 202.544 525.295 202.352C524.857 202.16 524.479 201.861 524.159 201.456C523.849 201.04 523.695 200.485 523.695 199.792C523.695 199.184 523.849 198.645 524.159 198.176C524.468 197.707 524.9 197.344 525.455 197.088C526.02 196.832 526.665 196.704 527.391 196.704C528.436 196.704 529.289 196.965 529.951 197.488C530.623 198.011 531.001 198.704 531.087 199.568H529.487C529.433 199.141 529.209 198.768 528.815 198.448C528.42 198.117 527.897 197.952 527.247 197.952C526.639 197.952 526.143 198.112 525.759 198.432C525.375 198.741 525.183 199.179 525.183 199.744C525.183 200.149 525.295 200.48 525.519 200.736C525.753 200.992 526.036 201.189 526.367 201.328C526.708 201.456 527.183 201.605 527.791 201.776C528.527 201.979 529.119 202.181 529.567 202.384C530.015 202.576 530.399 202.88 530.719 203.296C531.039 203.701 531.199 204.256 531.199 204.96C531.199 205.504 531.055 206.016 530.767 206.496C530.479 206.976 530.052 207.365 529.487 207.664C528.921 207.963 528.255 208.112 527.487 208.112ZM532.797 203.584C532.797 202.688 532.979 201.904 533.341 201.232C533.704 200.549 534.2 200.021 534.829 199.648C535.469 199.275 536.179 199.088 536.957 199.088C537.725 199.088 538.392 199.253 538.957 199.584C539.523 199.915 539.944 200.331 540.221 200.832V199.232H541.693V208H540.221V206.368C539.933 206.88 539.501 207.307 538.925 207.648C538.36 207.979 537.699 208.144 536.941 208.144C536.163 208.144 535.459 207.952 534.829 207.568C534.2 207.184 533.704 206.645 533.341 205.952C532.979 205.259 532.797 204.469 532.797 203.584ZM540.221 203.6C540.221 202.939 540.088 202.363 539.821 201.872C539.555 201.381 539.192 201.008 538.733 200.752C538.285 200.485 537.789 200.352 537.245 200.352C536.701 200.352 536.205 200.48 535.757 200.736C535.309 200.992 534.952 201.365 534.685 201.856C534.419 202.347 534.285 202.923 534.285 203.584C534.285 204.256 534.419 204.843 534.685 205.344C534.952 205.835 535.309 206.213 535.757 206.48C536.205 206.736 536.701 206.864 537.245 206.864C537.789 206.864 538.285 206.736 538.733 206.48C539.192 206.213 539.555 205.835 539.821 205.344C540.088 204.843 540.221 204.261 540.221 203.6ZM545.61 196.16V208H544.154V196.16H545.61ZM556.091 203.28C556.091 203.557 556.075 203.851 556.043 204.16H549.035C549.089 205.024 549.382 205.701 549.915 206.192C550.459 206.672 551.115 206.912 551.883 206.912C552.513 206.912 553.035 206.768 553.451 206.48C553.878 206.181 554.177 205.787 554.347 205.296H555.915C555.681 206.139 555.211 206.827 554.507 207.36C553.803 207.883 552.929 208.144 551.883 208.144C551.051 208.144 550.305 207.957 549.643 207.584C548.993 207.211 548.481 206.683 548.107 206C547.734 205.307 547.547 204.507 547.547 203.6C547.547 202.693 547.729 201.899 548.091 201.216C548.454 200.533 548.961 200.011 549.611 199.648C550.273 199.275 551.03 199.088 551.883 199.088C552.715 199.088 553.451 199.269 554.091 199.632C554.731 199.995 555.222 200.496 555.563 201.136C555.915 201.765 556.091 202.48 556.091 203.28ZM554.587 202.976C554.587 202.421 554.465 201.947 554.219 201.552C553.974 201.147 553.638 200.843 553.211 200.64C552.795 200.427 552.331 200.32 551.819 200.32C551.083 200.32 550.454 200.555 549.931 201.024C549.419 201.493 549.126 202.144 549.051 202.976H554.587Z" fill="white"/>
</g>
<rect x="644.75" y="16.75" width="268.5" height="228.5" rx="23.25" stroke="#0592EF" stroke-width="1.5"/>
<path opacity="0.3" d="M819 86C819 108.091 801.091 126 779 126C756.909 126 739 108.091 739 86C739 63.9086 756.909 46 779 46C801.091 46 819 63.9086 819 86ZM749.907 86C749.907 102.068 762.932 115.093 779 115.093C795.068 115.093 808.093 102.068 808.093 86C808.093 69.9325 795.068 56.9071 779 56.9071C762.932 56.9071 749.907 69.9325 749.907 86Z" fill="#A1BCD6"/>
<circle cx="779" cy="86" r="29" fill="#0592EF"/>
<path d="M770.667 77.6667V74.3334C770.667 73.3682 770.946 72.4236 771.471 71.6137C771.996 70.8038 772.744 70.1632 773.625 69.7691C774.506 69.3751 775.483 69.2445 776.436 69.3931C777.39 69.5418 778.28 69.9633 779 70.6067C779.719 69.9633 780.61 69.5418 781.563 69.3931C782.517 69.2445 783.493 69.3751 784.374 69.7691C785.255 70.1632 786.004 70.8038 786.529 71.6137C787.054 72.4236 787.333 73.3682 787.333 74.3334V77.6667H789.833C790.496 77.6667 791.132 77.9301 791.601 78.399C792.07 78.8678 792.333 79.5037 792.333 80.1667V96.8417C792.333 98.3866 791.719 99.8682 790.627 100.961C789.535 102.053 788.053 102.667 786.508 102.667H772.333C770.565 102.667 768.869 101.964 767.619 100.714C766.369 99.4639 765.667 97.7682 765.667 96.0001V80.1667C765.667 79.5037 765.93 78.8678 766.399 78.399C766.868 77.9301 767.503 77.6667 768.167 77.6667H770.667ZM781.725 100.167C781.045 99.1914 780.681 98.0306 780.683 96.8417V80.1667H768.167V96.0001C768.167 96.5472 768.274 97.089 768.484 97.5946C768.693 98.1001 769 98.5594 769.387 98.9463C769.774 99.3332 770.233 99.6402 770.739 99.8496C771.244 100.059 771.786 100.167 772.333 100.167H781.725ZM778.167 77.6667V74.3334C778.167 73.6703 777.903 73.0345 777.434 72.5656C776.965 72.0968 776.33 71.8334 775.667 71.8334C775.003 71.8334 774.368 72.0968 773.899 72.5656C773.43 73.0345 773.167 73.6703 773.167 74.3334V77.6667H778.167ZM780.667 77.6667H784.833V74.3334C784.833 73.8188 784.674 73.3167 784.379 72.8957C784.083 72.4746 783.664 72.1552 783.18 71.9809C782.696 71.8066 782.169 71.786 781.673 71.9219C781.177 72.0577 780.734 72.3435 780.407 72.7401C780.575 73.2401 780.667 73.7767 780.667 74.3334V77.6667ZM783.183 96.8417C783.183 97.7236 783.533 98.5693 784.157 99.1929C784.781 99.8164 785.626 100.167 786.508 100.167C787.39 100.167 788.236 99.8164 788.859 99.1929C789.483 98.5693 789.833 97.7236 789.833 96.8417V80.1667H783.183V96.8417Z" fill="white"/>
<path d="M732.534 172.909V169.034L742.25 153.727H745.591V159.091H743.614L737.489 168.784V168.966H751.295V172.909H732.534ZM743.705 177V171.727L743.795 170.011V153.727H748.409V177H743.705ZM764.536 177.318C762.786 177.318 761.229 177.034 759.865 176.466C758.509 175.89 757.445 175.106 756.672 174.114C755.899 173.121 755.513 171.996 755.513 170.739C755.513 169.769 755.733 168.879 756.172 168.068C756.619 167.25 757.225 166.572 757.99 166.034C758.755 165.489 759.611 165.14 760.558 164.989V164.83C759.316 164.58 758.308 163.977 757.536 163.023C756.763 162.061 756.377 160.943 756.377 159.67C756.377 158.466 756.729 157.394 757.433 156.455C758.138 155.508 759.104 154.765 760.331 154.227C761.566 153.682 762.968 153.409 764.536 153.409C766.104 153.409 767.502 153.682 768.729 154.227C769.964 154.773 770.933 155.519 771.638 156.466C772.343 157.405 772.699 158.473 772.706 159.67C772.699 160.951 772.305 162.068 771.524 163.023C770.744 163.977 769.744 164.58 768.524 164.83V164.989C769.456 165.14 770.301 165.489 771.058 166.034C771.824 166.572 772.43 167.25 772.877 168.068C773.331 168.879 773.562 169.769 773.57 170.739C773.562 171.996 773.172 173.121 772.399 174.114C771.627 175.106 770.558 175.89 769.195 176.466C767.839 177.034 766.286 177.318 764.536 177.318ZM764.536 173.705C765.316 173.705 765.998 173.564 766.581 173.284C767.164 172.996 767.619 172.602 767.945 172.102C768.278 171.595 768.445 171.011 768.445 170.352C768.445 169.678 768.274 169.083 767.933 168.568C767.593 168.045 767.13 167.636 766.547 167.341C765.964 167.038 765.293 166.886 764.536 166.886C763.786 166.886 763.115 167.038 762.524 167.341C761.933 167.636 761.468 168.045 761.127 168.568C760.793 169.083 760.627 169.678 760.627 170.352C760.627 171.011 760.789 171.595 761.115 172.102C761.441 172.602 761.899 172.996 762.49 173.284C763.081 173.564 763.763 173.705 764.536 173.705ZM764.536 163.307C765.187 163.307 765.767 163.174 766.274 162.909C766.782 162.644 767.18 162.277 767.468 161.807C767.755 161.337 767.899 160.795 767.899 160.182C767.899 159.576 767.755 159.045 767.468 158.591C767.18 158.129 766.786 157.769 766.286 157.511C765.786 157.246 765.202 157.114 764.536 157.114C763.877 157.114 763.293 157.246 762.786 157.511C762.278 157.769 761.88 158.129 761.593 158.591C761.312 159.045 761.172 159.576 761.172 160.182C761.172 160.795 761.316 161.337 761.604 161.807C761.892 162.277 762.289 162.644 762.797 162.909C763.305 163.174 763.884 163.307 764.536 163.307ZM780.509 177.295C779.759 177.295 779.115 177.03 778.577 176.5C778.047 175.962 777.782 175.318 777.782 174.568C777.782 173.826 778.047 173.189 778.577 172.659C779.115 172.129 779.759 171.864 780.509 171.864C781.236 171.864 781.873 172.129 782.418 172.659C782.963 173.189 783.236 173.826 783.236 174.568C783.236 175.068 783.107 175.527 782.85 175.943C782.6 176.352 782.27 176.682 781.861 176.932C781.452 177.174 781.001 177.295 780.509 177.295ZM796.758 177.318C795.152 177.318 793.72 177.023 792.462 176.432C791.212 175.841 790.22 175.027 789.485 173.989C788.75 172.951 788.367 171.761 788.337 170.42H793.11C793.163 171.322 793.542 172.053 794.246 172.614C794.951 173.174 795.788 173.455 796.758 173.455C797.53 173.455 798.212 173.284 798.803 172.943C799.402 172.595 799.867 172.114 800.201 171.5C800.542 170.879 800.712 170.167 800.712 169.364C800.712 168.545 800.538 167.826 800.189 167.205C799.849 166.583 799.375 166.098 798.769 165.75C798.163 165.402 797.47 165.223 796.689 165.216C796.008 165.216 795.345 165.356 794.701 165.636C794.064 165.917 793.568 166.299 793.212 166.784L788.837 166L789.939 153.727H804.167V157.75H793.996L793.394 163.58H793.53C793.939 163.004 794.557 162.527 795.383 162.148C796.208 161.769 797.133 161.58 798.155 161.58C799.557 161.58 800.807 161.909 801.905 162.568C803.004 163.227 803.871 164.133 804.508 165.284C805.144 166.428 805.458 167.746 805.451 169.239C805.458 170.807 805.095 172.201 804.36 173.42C803.633 174.633 802.614 175.587 801.303 176.284C800 176.973 798.485 177.318 796.758 177.318ZM814.594 171.977L814.606 166.17H815.31L820.901 159.545H826.458L818.947 168.318H817.799L814.594 171.977ZM810.208 177V153.727H815.049V177H810.208ZM821.117 177L815.981 169.398L819.208 165.977L826.788 177H821.117Z" fill="#0592EF"/>
<path d="M672.188 204.416C672.188 203.328 672.433 202.352 672.924 201.488C673.415 200.613 674.081 199.931 674.924 199.44C675.777 198.949 676.721 198.704 677.756 198.704C678.972 198.704 680.033 198.997 680.94 199.584C681.847 200.171 682.508 201.003 682.924 202.08H681.18C680.871 201.408 680.423 200.891 679.836 200.528C679.26 200.165 678.567 199.984 677.756 199.984C676.977 199.984 676.279 200.165 675.66 200.528C675.041 200.891 674.556 201.408 674.204 202.08C673.852 202.741 673.676 203.52 673.676 204.416C673.676 205.301 673.852 206.08 674.204 206.752C674.556 207.413 675.041 207.925 675.66 208.288C676.279 208.651 676.977 208.832 677.756 208.832C678.567 208.832 679.26 208.656 679.836 208.304C680.423 207.941 680.871 207.424 681.18 206.752H682.924C682.508 207.819 681.847 208.645 680.94 209.232C680.033 209.808 678.972 210.096 677.756 210.096C676.721 210.096 675.777 209.856 674.924 209.376C674.081 208.885 673.415 208.208 672.924 207.344C672.433 206.48 672.188 205.504 672.188 204.416ZM692.867 201.232V210H691.411V208.704C691.134 209.152 690.745 209.504 690.243 209.76C689.753 210.005 689.209 210.128 688.611 210.128C687.929 210.128 687.315 209.989 686.771 209.712C686.227 209.424 685.795 208.997 685.475 208.432C685.166 207.867 685.011 207.179 685.011 206.368V201.232H686.451V206.176C686.451 207.04 686.67 207.707 687.107 208.176C687.545 208.635 688.142 208.864 688.899 208.864C689.678 208.864 690.291 208.624 690.739 208.144C691.187 207.664 691.411 206.965 691.411 206.048V201.232H692.867ZM698.43 210.144C697.758 210.144 697.155 210.032 696.622 209.808C696.088 209.573 695.667 209.253 695.358 208.848C695.048 208.432 694.878 207.957 694.846 207.424H696.35C696.392 207.861 696.595 208.219 696.958 208.496C697.331 208.773 697.816 208.912 698.414 208.912C698.968 208.912 699.406 208.789 699.726 208.544C700.046 208.299 700.206 207.989 700.206 207.616C700.206 207.232 700.035 206.949 699.694 206.768C699.352 206.576 698.824 206.389 698.11 206.208C697.459 206.037 696.926 205.867 696.51 205.696C696.104 205.515 695.752 205.253 695.454 204.912C695.166 204.56 695.022 204.101 695.022 203.536C695.022 203.088 695.155 202.677 695.422 202.304C695.688 201.931 696.067 201.637 696.558 201.424C697.048 201.2 697.608 201.088 698.238 201.088C699.208 201.088 699.992 201.333 700.59 201.824C701.187 202.315 701.507 202.987 701.55 203.84H700.094C700.062 203.381 699.875 203.013 699.534 202.736C699.203 202.459 698.755 202.32 698.19 202.32C697.667 202.32 697.251 202.432 696.942 202.656C696.632 202.88 696.478 203.173 696.478 203.536C696.478 203.824 696.568 204.064 696.75 204.256C696.942 204.437 697.176 204.587 697.454 204.704C697.742 204.811 698.136 204.933 698.638 205.072C699.267 205.243 699.779 205.413 700.174 205.584C700.568 205.744 700.904 205.989 701.182 206.32C701.47 206.651 701.619 207.083 701.63 207.616C701.63 208.096 701.496 208.528 701.23 208.912C700.963 209.296 700.584 209.6 700.094 209.824C699.614 210.037 699.059 210.144 698.43 210.144ZM705.461 202.432V207.6C705.461 208.027 705.552 208.331 705.733 208.512C705.914 208.683 706.229 208.768 706.677 208.768H707.749V210H706.437C705.626 210 705.018 209.813 704.613 209.44C704.208 209.067 704.005 208.453 704.005 207.6V202.432H702.869V201.232H704.005V199.024H705.461V201.232H707.749V202.432H705.461ZM713.337 210.144C712.516 210.144 711.769 209.957 711.097 209.584C710.436 209.211 709.913 208.683 709.529 208C709.156 207.307 708.969 206.507 708.969 205.6C708.969 204.704 709.161 203.915 709.545 203.232C709.94 202.539 710.473 202.011 711.145 201.648C711.817 201.275 712.569 201.088 713.401 201.088C714.233 201.088 714.985 201.275 715.657 201.648C716.329 202.011 716.857 202.533 717.241 203.216C717.636 203.899 717.833 204.693 717.833 205.6C717.833 206.507 717.631 207.307 717.225 208C716.831 208.683 716.292 209.211 715.609 209.584C714.927 209.957 714.169 210.144 713.337 210.144ZM713.337 208.864C713.86 208.864 714.351 208.741 714.809 208.496C715.268 208.251 715.636 207.883 715.913 207.392C716.201 206.901 716.345 206.304 716.345 205.6C716.345 204.896 716.207 204.299 715.929 203.808C715.652 203.317 715.289 202.955 714.841 202.72C714.393 202.475 713.908 202.352 713.385 202.352C712.852 202.352 712.361 202.475 711.913 202.72C711.476 202.955 711.124 203.317 710.857 203.808C710.591 204.299 710.457 204.896 710.457 205.6C710.457 206.315 710.585 206.917 710.841 207.408C711.108 207.899 711.46 208.267 711.897 208.512C712.335 208.747 712.815 208.864 713.337 208.864ZM730.292 201.072C730.974 201.072 731.582 201.216 732.116 201.504C732.649 201.781 733.07 202.203 733.38 202.768C733.689 203.333 733.844 204.021 733.844 204.832V210H732.404V205.04C732.404 204.165 732.185 203.499 731.748 203.04C731.321 202.571 730.74 202.336 730.004 202.336C729.246 202.336 728.644 202.581 728.196 203.072C727.748 203.552 727.524 204.251 727.524 205.168V210H726.084V205.04C726.084 204.165 725.865 203.499 725.428 203.04C725.001 202.571 724.42 202.336 723.684 202.336C722.926 202.336 722.324 202.581 721.876 203.072C721.428 203.552 721.204 204.251 721.204 205.168V210H719.748V201.232H721.204V202.496C721.492 202.037 721.876 201.685 722.356 201.44C722.846 201.195 723.385 201.072 723.972 201.072C724.708 201.072 725.358 201.237 725.924 201.568C726.489 201.899 726.91 202.384 727.188 203.024C727.433 202.405 727.838 201.925 728.404 201.584C728.969 201.243 729.598 201.072 730.292 201.072ZM744.232 205.28C744.232 205.557 744.216 205.851 744.184 206.16H737.176C737.229 207.024 737.523 207.701 738.056 208.192C738.6 208.672 739.256 208.912 740.024 208.912C740.653 208.912 741.176 208.768 741.592 208.48C742.019 208.181 742.317 207.787 742.488 207.296H744.056C743.821 208.139 743.352 208.827 742.648 209.36C741.944 209.883 741.069 210.144 740.024 210.144C739.192 210.144 738.445 209.957 737.784 209.584C737.133 209.211 736.621 208.683 736.248 208C735.875 207.307 735.688 206.507 735.688 205.6C735.688 204.693 735.869 203.899 736.232 203.216C736.595 202.533 737.101 202.011 737.752 201.648C738.413 201.275 739.171 201.088 740.024 201.088C740.856 201.088 741.592 201.269 742.232 201.632C742.872 201.995 743.363 202.496 743.704 203.136C744.056 203.765 744.232 204.48 744.232 205.28ZM742.728 204.976C742.728 204.421 742.605 203.947 742.36 203.552C742.115 203.147 741.779 202.843 741.352 202.64C740.936 202.427 740.472 202.32 739.96 202.32C739.224 202.32 738.595 202.555 738.072 203.024C737.56 203.493 737.267 204.144 737.192 204.976H742.728ZM747.61 202.656C747.866 202.155 748.229 201.765 748.698 201.488C749.178 201.211 749.759 201.072 750.442 201.072V202.576H750.058C748.426 202.576 747.61 203.461 747.61 205.232V210H746.154V201.232H747.61V202.656ZM755.844 205.584C755.844 204.688 756.026 203.904 756.388 203.232C756.751 202.549 757.247 202.021 757.876 201.648C758.516 201.275 759.226 201.088 760.004 201.088C760.772 201.088 761.439 201.253 762.004 201.584C762.57 201.915 762.991 202.331 763.268 202.832V201.232H764.74V210H763.268V208.368C762.98 208.88 762.548 209.307 761.972 209.648C761.407 209.979 760.746 210.144 759.988 210.144C759.21 210.144 758.506 209.952 757.876 209.568C757.247 209.184 756.751 208.645 756.388 207.952C756.026 207.259 755.844 206.469 755.844 205.584ZM763.268 205.6C763.268 204.939 763.135 204.363 762.868 203.872C762.602 203.381 762.239 203.008 761.78 202.752C761.332 202.485 760.836 202.352 760.292 202.352C759.748 202.352 759.252 202.48 758.804 202.736C758.356 202.992 757.999 203.365 757.732 203.856C757.466 204.347 757.332 204.923 757.332 205.584C757.332 206.256 757.466 206.843 757.732 207.344C757.999 207.835 758.356 208.213 758.804 208.48C759.252 208.736 759.748 208.864 760.292 208.864C760.836 208.864 761.332 208.736 761.78 208.48C762.239 208.213 762.602 207.835 762.868 207.344C763.135 206.843 763.268 206.261 763.268 205.6ZM766.657 205.6C766.657 204.693 766.838 203.904 767.201 203.232C767.563 202.549 768.065 202.021 768.705 201.648C769.355 201.275 770.097 201.088 770.929 201.088C772.006 201.088 772.891 201.349 773.585 201.872C774.289 202.395 774.753 203.12 774.977 204.048H773.409C773.259 203.515 772.966 203.093 772.529 202.784C772.102 202.475 771.569 202.32 770.929 202.32C770.097 202.32 769.425 202.608 768.913 203.184C768.401 203.749 768.145 204.555 768.145 205.6C768.145 206.656 768.401 207.472 768.913 208.048C769.425 208.624 770.097 208.912 770.929 208.912C771.569 208.912 772.102 208.763 772.529 208.464C772.955 208.165 773.249 207.739 773.409 207.184H774.977C774.742 208.08 774.273 208.8 773.569 209.344C772.865 209.877 771.985 210.144 770.929 210.144C770.097 210.144 769.355 209.957 768.705 209.584C768.065 209.211 767.563 208.683 767.201 208C766.838 207.317 766.657 206.517 766.657 205.6ZM778.696 202.432V207.6C778.696 208.027 778.786 208.331 778.968 208.512C779.149 208.683 779.464 208.768 779.911 208.768H780.984V210H779.672C778.861 210 778.253 209.813 777.848 209.44C777.442 209.067 777.24 208.453 777.24 207.6V202.432H776.104V201.232H777.24V199.024H778.696V201.232H780.984V202.432H778.696ZM783.5 199.808C783.222 199.808 782.988 199.712 782.796 199.52C782.604 199.328 782.508 199.093 782.508 198.816C782.508 198.539 782.604 198.304 782.796 198.112C782.988 197.92 783.222 197.824 783.5 197.824C783.766 197.824 783.99 197.92 784.172 198.112C784.364 198.304 784.46 198.539 784.46 198.816C784.46 199.093 784.364 199.328 784.172 199.52C783.99 199.712 783.766 199.808 783.5 199.808ZM784.204 201.232V210H782.748V201.232H784.204ZM789.949 208.656L792.669 201.232H794.221L790.781 210H789.085L785.645 201.232H787.213L789.949 208.656ZM803.654 205.28C803.654 205.557 803.638 205.851 803.606 206.16H796.598C796.651 207.024 796.945 207.701 797.478 208.192C798.022 208.672 798.678 208.912 799.446 208.912C800.075 208.912 800.598 208.768 801.014 208.48C801.441 208.181 801.739 207.787 801.91 207.296H803.478C803.243 208.139 802.774 208.827 802.07 209.36C801.366 209.883 800.491 210.144 799.446 210.144C798.614 210.144 797.867 209.957 797.206 209.584C796.555 209.211 796.043 208.683 795.67 208C795.297 207.307 795.11 206.507 795.11 205.6C795.11 204.693 795.291 203.899 795.654 203.216C796.017 202.533 796.523 202.011 797.174 201.648C797.835 201.275 798.593 201.088 799.446 201.088C800.278 201.088 801.014 201.269 801.654 201.632C802.294 201.995 802.785 202.496 803.126 203.136C803.478 203.765 803.654 204.48 803.654 205.28ZM802.15 204.976C802.15 204.421 802.027 203.947 801.782 203.552C801.537 203.147 801.201 202.843 800.774 202.64C800.358 202.427 799.894 202.32 799.382 202.32C798.646 202.32 798.017 202.555 797.494 203.024C796.982 203.493 796.689 204.144 796.614 204.976H802.15ZM810.593 199.808C810.316 199.808 810.081 199.712 809.889 199.52C809.697 199.328 809.601 199.093 809.601 198.816C809.601 198.539 809.697 198.304 809.889 198.112C810.081 197.92 810.316 197.824 810.593 197.824C810.86 197.824 811.084 197.92 811.265 198.112C811.457 198.304 811.553 198.539 811.553 198.816C811.553 199.093 811.457 199.328 811.265 199.52C811.084 199.712 810.86 199.808 810.593 199.808ZM811.297 201.232V210H809.841V201.232H811.297ZM818.051 201.072C819.118 201.072 819.982 201.397 820.643 202.048C821.304 202.688 821.635 203.616 821.635 204.832V210H820.195V205.04C820.195 204.165 819.976 203.499 819.539 203.04C819.102 202.571 818.504 202.336 817.747 202.336C816.979 202.336 816.366 202.576 815.907 203.056C815.459 203.536 815.235 204.235 815.235 205.152V210H813.779V201.232H815.235V202.48C815.523 202.032 815.912 201.685 816.403 201.44C816.904 201.195 817.454 201.072 818.051 201.072ZM832.103 210.144C831.282 210.144 830.535 209.957 829.863 209.584C829.202 209.211 828.679 208.683 828.295 208C827.922 207.307 827.735 206.507 827.735 205.6C827.735 204.704 827.927 203.915 828.311 203.232C828.706 202.539 829.239 202.011 829.911 201.648C830.583 201.275 831.335 201.088 832.167 201.088C832.999 201.088 833.751 201.275 834.423 201.648C835.095 202.011 835.623 202.533 836.007 203.216C836.402 203.899 836.599 204.693 836.599 205.6C836.599 206.507 836.396 207.307 835.991 208C835.596 208.683 835.058 209.211 834.375 209.584C833.692 209.957 832.935 210.144 832.103 210.144ZM832.103 208.864C832.626 208.864 833.116 208.741 833.575 208.496C834.034 208.251 834.402 207.883 834.679 207.392C834.967 206.901 835.111 206.304 835.111 205.6C835.111 204.896 834.972 204.299 834.695 203.808C834.418 203.317 834.055 202.955 833.607 202.72C833.159 202.475 832.674 202.352 832.151 202.352C831.618 202.352 831.127 202.475 830.679 202.72C830.242 202.955 829.89 203.317 829.623 203.808C829.356 204.299 829.223 204.896 829.223 205.6C829.223 206.315 829.351 206.917 829.607 207.408C829.874 207.899 830.226 208.267 830.663 208.512C831.1 208.747 831.58 208.864 832.103 208.864ZM846.289 201.232V210H844.833V208.704C844.556 209.152 844.167 209.504 843.665 209.76C843.175 210.005 842.631 210.128 842.033 210.128C841.351 210.128 840.737 209.989 840.193 209.712C839.649 209.424 839.217 208.997 838.897 208.432C838.588 207.867 838.433 207.179 838.433 206.368V201.232H839.873V206.176C839.873 207.04 840.092 207.707 840.529 208.176C840.967 208.635 841.564 208.864 842.321 208.864C843.1 208.864 843.713 208.624 844.161 208.144C844.609 207.664 844.833 206.965 844.833 206.048V201.232H846.289ZM850.204 202.656C850.46 202.155 850.822 201.765 851.292 201.488C851.772 201.211 852.353 201.072 853.036 201.072V202.576H852.652C851.02 202.576 850.204 203.461 850.204 205.232V210H848.748V201.232H850.204V202.656ZM862.086 210.144C861.414 210.144 860.811 210.032 860.278 209.808C859.745 209.573 859.323 209.253 859.014 208.848C858.705 208.432 858.534 207.957 858.502 207.424H860.006C860.049 207.861 860.251 208.219 860.614 208.496C860.987 208.773 861.473 208.912 862.07 208.912C862.625 208.912 863.062 208.789 863.382 208.544C863.702 208.299 863.862 207.989 863.862 207.616C863.862 207.232 863.691 206.949 863.35 206.768C863.009 206.576 862.481 206.389 861.766 206.208C861.115 206.037 860.582 205.867 860.166 205.696C859.761 205.515 859.409 205.253 859.11 204.912C858.822 204.56 858.678 204.101 858.678 203.536C858.678 203.088 858.811 202.677 859.078 202.304C859.345 201.931 859.723 201.637 860.214 201.424C860.705 201.2 861.265 201.088 861.894 201.088C862.865 201.088 863.649 201.333 864.246 201.824C864.843 202.315 865.163 202.987 865.206 203.84H863.75C863.718 203.381 863.531 203.013 863.19 202.736C862.859 202.459 862.411 202.32 861.846 202.32C861.323 202.32 860.907 202.432 860.598 202.656C860.289 202.88 860.134 203.173 860.134 203.536C860.134 203.824 860.225 204.064 860.406 204.256C860.598 204.437 860.833 204.587 861.11 204.704C861.398 204.811 861.793 204.933 862.294 205.072C862.923 205.243 863.435 205.413 863.83 205.584C864.225 205.744 864.561 205.989 864.838 206.32C865.126 206.651 865.275 207.083 865.286 207.616C865.286 208.096 865.153 208.528 864.886 208.912C864.619 209.296 864.241 209.6 863.75 209.824C863.27 210.037 862.715 210.144 862.086 210.144ZM868.093 199.808C867.816 199.808 867.581 199.712 867.389 199.52C867.197 199.328 867.101 199.093 867.101 198.816C867.101 198.539 867.197 198.304 867.389 198.112C867.581 197.92 867.816 197.824 868.093 197.824C868.36 197.824 868.584 197.92 868.765 198.112C868.957 198.304 869.053 198.539 869.053 198.816C869.053 199.093 868.957 199.328 868.765 199.52C868.584 199.712 868.36 199.808 868.093 199.808ZM868.797 201.232V210H867.341V201.232H868.797ZM873.055 202.432V207.6C873.055 208.027 873.146 208.331 873.327 208.512C873.508 208.683 873.823 208.768 874.271 208.768H875.343V210H874.031C873.22 210 872.612 209.813 872.207 209.44C871.802 209.067 871.599 208.453 871.599 207.6V202.432H870.463V201.232H871.599V199.024H873.055V201.232H875.343V202.432H873.055ZM885.107 205.28C885.107 205.557 885.091 205.851 885.059 206.16H878.051C878.104 207.024 878.398 207.701 878.931 208.192C879.475 208.672 880.131 208.912 880.899 208.912C881.528 208.912 882.051 208.768 882.467 208.48C882.894 208.181 883.192 207.787 883.363 207.296H884.931C884.696 208.139 884.227 208.827 883.523 209.36C882.819 209.883 881.944 210.144 880.899 210.144C880.067 210.144 879.32 209.957 878.659 209.584C878.008 209.211 877.496 208.683 877.123 208C876.75 207.307 876.563 206.507 876.563 205.6C876.563 204.693 876.744 203.899 877.107 203.216C877.47 202.533 877.976 202.011 878.627 201.648C879.288 201.275 880.046 201.088 880.899 201.088C881.731 201.088 882.467 201.269 883.107 201.632C883.747 201.995 884.238 202.496 884.579 203.136C884.931 203.765 885.107 204.48 885.107 205.28ZM883.603 204.976C883.603 204.421 883.48 203.947 883.235 203.552C882.99 203.147 882.654 202.843 882.227 202.64C881.811 202.427 881.347 202.32 880.835 202.32C880.099 202.32 879.47 202.555 878.947 203.024C878.435 203.493 878.142 204.144 878.067 204.976H883.603Z" fill="#0592EF"/>
<rect x="966.75" y="16.75" width="268.5" height="228.5" rx="23.25" stroke="#0592EF" stroke-width="1.5"/>
<path opacity="0.3" d="M1141.5 74C1141.5 96.0914 1123.59 114 1101.5 114C1079.41 114 1061.5 96.0914 1061.5 74C1061.5 51.9086 1079.41 34 1101.5 34C1123.59 34 1141.5 51.9086 1141.5 74ZM1072.41 74C1072.41 90.0675 1085.43 103.093 1101.5 103.093C1117.57 103.093 1130.59 90.0675 1130.59 74C1130.59 57.9325 1117.57 44.9071 1101.5 44.9071C1085.43 44.9071 1072.41 57.9325 1072.41 74Z" fill="#A1BCD6"/>
<circle cx="1101.5" cy="74" r="29" fill="#0592EF"/>
<path d="M1101.93 72.1455V72.6455L1102.43 72.6455C1103.09 72.6455 1103.74 72.8513 1104.28 73.2345C1104.82 73.6176 1105.23 74.1593 1105.45 74.785C1105.47 74.8379 1105.48 74.894 1105.48 74.95C1105.47 75.0061 1105.46 75.061 1105.44 75.1116C1105.41 75.1622 1105.38 75.2076 1105.34 75.2451C1105.29 75.2826 1105.25 75.3116 1105.19 75.3303C1105.14 75.3489 1105.08 75.357 1105.03 75.354C1104.97 75.351 1104.92 75.337 1104.87 75.3128C1104.76 75.264 1104.69 75.1765 1104.65 75.0696L1104.65 75.0693C1104.49 74.6103 1104.18 74.2129 1103.79 73.9318C1103.39 73.6508 1102.91 73.4999 1102.43 73.5L1101.93 73.5002V74V77.7091V78.2091H1102.43C1103.28 78.2091 1104.09 78.5472 1104.7 79.149C1105.3 79.7508 1105.64 80.5671 1105.64 81.4181C1105.64 82.2692 1105.3 83.0855 1104.7 83.6873C1104.09 84.2891 1103.28 84.6272 1102.43 84.6272H1101.93V85.1272V85.5545H1101.07V85.1272V84.6272L1100.57 84.6272C1099.91 84.6272 1099.26 84.4214 1098.72 84.0382C1098.18 83.655 1097.77 83.1132 1097.55 82.4875L1097.55 82.4874L1097.54 82.4743C1097.52 82.421 1097.51 82.3641 1097.51 82.307C1097.52 82.2499 1097.53 82.1938 1097.55 82.1419C1097.58 82.09 1097.61 82.0434 1097.65 82.0049L1097.32 81.6366L1097.65 82.0049C1097.69 81.9664 1097.74 81.9368 1097.8 81.9177C1097.85 81.8987 1097.91 81.8907 1097.97 81.8941C1098.02 81.8975 1098.08 81.9124 1098.13 81.9377C1098.18 81.9631 1098.23 81.9985 1098.26 82.0418C1098.3 82.085 1098.33 82.1354 1098.35 82.1898L1098.35 82.1968L1098.35 82.2038C1098.68 83.1185 1099.55 83.7727 1100.57 83.7727H1101.07V83.2727V79.5636V79.0636H1100.57C1099.72 79.0636 1098.91 78.7255 1098.3 78.1237C1097.7 77.5219 1097.36 76.7057 1097.36 75.8546C1097.36 75.0035 1097.7 74.1872 1098.3 73.5854C1098.91 72.9836 1099.72 72.6455 1100.57 72.6455H1101.07V72.1455V71.7183H1101.93V72.1455ZM1101.07 74V73.5H1100.57C1099.95 73.5 1099.35 73.7481 1098.91 74.1897C1098.47 74.6312 1098.22 75.2301 1098.22 75.8546C1098.22 76.479 1098.47 77.0779 1098.91 77.5195C1099.35 77.961 1099.95 78.2091 1100.57 78.2091H1101.07V77.7091V74ZM1101.93 83.2727V83.7727H1102.43C1103.05 83.7727 1103.65 83.5246 1104.09 83.083C1104.53 82.6415 1104.78 82.0426 1104.78 81.4181C1104.78 80.7937 1104.53 80.1948 1104.09 79.7532C1103.65 79.3117 1103.05 79.0636 1102.43 79.0636H1101.93V79.5636V83.2727Z" fill="#FAFAFA" stroke="#FAFAFA"/>
<path d="M1094.21 66.5778L1094.52 66.7C1098.87 68.3799 1104.11 68.3799 1108.46 66.6982L1108.77 66.5773L1109 66.8204C1110.9 68.8212 1112.49 71.0949 1113.71 73.5659L1113.71 73.5679C1114.99 76.1704 1115.7 78.8135 1115.59 81.1302L1115.59 81.1302C1115.47 83.3913 1114.57 85.3573 1112.52 86.8061L1112.52 86.8061C1110.41 88.2962 1106.95 89.3337 1101.54 89.3337C1096.12 89.3337 1092.64 88.3142 1090.51 86.8423L1090.51 86.8421C1088.45 85.4121 1087.54 83.4721 1087.41 81.2375L1094.21 66.5778ZM1094.21 66.5778L1093.98 66.8263M1094.21 66.5778L1093.98 66.8263M1093.98 66.8263C1092.16 68.7857 1090.47 71.1898 1089.25 73.693L1089.25 73.6931M1093.98 66.8263L1089.25 73.6931M1089.25 73.6931C1087.98 76.3124 1087.28 78.9433 1087.41 81.2373L1089.25 73.6931ZM1111.34 60.1815C1111.78 60.3993 1112.16 60.6077 1112.48 60.7944L1109.35 65.3726L1109.11 65.7113L1109.4 66.0046C1111.34 67.9862 1113.17 70.5165 1114.48 73.192C1115.79 75.8722 1116.57 78.6626 1116.44 81.1736C1116.32 83.6638 1115.31 85.8864 1113.02 87.5036C1110.71 89.1364 1107.04 90.1882 1101.54 90.1882C1096.03 90.1882 1092.35 89.1552 1090.03 87.5442C1087.72 85.949 1086.7 83.7544 1086.56 81.2858C1086.42 78.7952 1087.18 76.0154 1088.48 73.3202C1089.79 70.63 1091.62 68.0599 1093.58 65.9994L1093.86 65.7072L1093.63 65.3739L1090.52 60.798C1090.68 60.7053 1090.85 60.6076 1091.04 60.5067L1091.04 60.5067L1091.04 60.5058C1091.24 60.4033 1091.44 60.2978 1091.66 60.1903L1091.86 60.0947C1094.1 59.0241 1097.66 57.8096 1101.54 57.8096C1105.44 57.8096 1109 59.0429 1111.22 60.1202C1111.22 60.1202 1111.22 60.1202 1111.22 60.1202L1111.34 60.1807C1111.34 60.181 1111.34 60.1812 1111.34 60.1815ZM1107.72 66.0593L1107.88 66.0048L1107.97 65.8705L1110.71 61.8619L1111.3 61.0065L1110.26 61.0809C1107.67 61.2676 1104.6 61.8749 1101.66 62.7275C1099.67 63.3007 1097.44 63.2194 1095.33 62.8312C1094.8 62.7331 1094.28 62.6163 1093.76 62.481L1092.47 62.1472L1093.22 63.2459L1095 65.8672L1095.09 66.0025L1095.25 66.0573C1099.17 67.4544 1103.8 67.4544 1107.72 66.0593ZM1093.08 60.4805L1091.8 61.0236L1093.13 61.42C1093.89 61.6451 1094.68 61.8414 1095.49 61.9906L1095.49 61.9907C1097.52 62.3655 1099.61 62.4299 1101.42 61.9059L1101.42 61.9057C1103.39 61.3323 1105.39 60.8813 1107.41 60.5553L1107.48 59.5829C1105.74 59.0586 1103.69 58.6641 1101.54 58.6641C1098.25 58.6641 1095.21 59.578 1093.08 60.4805Z" fill="#FAFAFA" stroke="#FAFAFA"/>
<path d="M1070.53 160.909V157.034L1080.25 141.727H1083.59V147.091H1081.61L1075.49 156.784V156.966H1089.3V160.909H1070.53ZM1081.7 165V159.727L1081.8 158.011V141.727H1086.41V165H1081.7ZM1102.98 165.511C1101.02 165.504 1099.34 165.023 1097.93 164.068C1096.53 163.114 1095.45 161.731 1094.69 159.92C1093.94 158.11 1093.57 155.932 1093.58 153.386C1093.58 150.848 1093.96 148.686 1094.71 146.898C1095.46 145.11 1096.54 143.75 1097.94 142.818C1099.35 141.879 1101.03 141.409 1102.98 141.409C1104.93 141.409 1106.6 141.879 1108 142.818C1109.41 143.758 1110.49 145.121 1111.25 146.909C1112.01 148.689 1112.38 150.848 1112.38 153.386C1112.38 155.939 1112 158.121 1111.24 159.932C1110.49 161.742 1109.41 163.125 1108.01 164.08C1106.61 165.034 1104.93 165.511 1102.98 165.511ZM1102.98 161.432C1104.31 161.432 1105.38 160.761 1106.17 159.42C1106.97 158.08 1107.36 156.068 1107.35 153.386C1107.35 151.621 1107.17 150.152 1106.81 148.977C1106.45 147.803 1105.94 146.92 1105.29 146.33C1104.63 145.739 1103.87 145.443 1102.98 145.443C1101.65 145.443 1100.59 146.106 1099.8 147.432C1099 148.758 1098.6 150.742 1098.59 153.386C1098.59 155.174 1098.77 156.667 1099.13 157.864C1099.49 159.053 1100 159.947 1100.66 160.545C1101.32 161.136 1102.09 161.432 1102.98 161.432ZM1121.6 159.977L1121.61 154.17H1122.31L1127.9 147.545H1133.46L1125.95 156.318H1124.8L1121.6 159.977ZM1117.21 165V141.727H1122.05V165H1117.21ZM1128.12 165L1122.98 157.398L1126.21 153.977L1133.79 165H1128.12Z" fill="#0592EF"/>
<path d="M1002.82 195.52H997.96L997.064 198H995.528L999.56 186.912H1001.24L1005.26 198H1003.72L1002.82 195.52ZM1002.41 194.336L1000.39 188.704L998.376 194.336H1002.41ZM1011.29 189.072C1012.35 189.072 1013.22 189.397 1013.88 190.048C1014.54 190.688 1014.87 191.616 1014.87 192.832V198H1013.43V193.04C1013.43 192.165 1013.21 191.499 1012.77 191.04C1012.34 190.571 1011.74 190.336 1010.98 190.336C1010.21 190.336 1009.6 190.576 1009.14 191.056C1008.69 191.536 1008.47 192.235 1008.47 193.152V198H1007.01V189.232H1008.47V190.48C1008.76 190.032 1009.15 189.685 1009.64 189.44C1010.14 189.195 1010.69 189.072 1011.29 189.072ZM1025.02 189.232V198H1023.57V196.704C1023.29 197.152 1022.9 197.504 1022.4 197.76C1021.91 198.005 1021.36 198.128 1020.77 198.128C1020.08 198.128 1019.47 197.989 1018.93 197.712C1018.38 197.424 1017.95 196.997 1017.63 196.432C1017.32 195.867 1017.17 195.179 1017.17 194.368V189.232H1018.61V194.176C1018.61 195.04 1018.83 195.707 1019.26 196.176C1019.7 196.635 1020.3 196.864 1021.06 196.864C1021.83 196.864 1022.45 196.624 1022.9 196.144C1023.34 195.664 1023.57 194.965 1023.57 194.048V189.232H1025.02ZM1026.94 193.584C1026.94 192.688 1027.12 191.904 1027.48 191.232C1027.84 190.549 1028.34 190.021 1028.97 189.648C1029.61 189.275 1030.32 189.088 1031.1 189.088C1031.87 189.088 1032.53 189.253 1033.1 189.584C1033.66 189.915 1034.08 190.331 1034.36 190.832V189.232H1035.83V198H1034.36V196.368C1034.07 196.88 1033.64 197.307 1033.07 197.648C1032.5 197.979 1031.84 198.144 1031.08 198.144C1030.3 198.144 1029.6 197.952 1028.97 197.568C1028.34 197.184 1027.84 196.645 1027.48 195.952C1027.12 195.259 1026.94 194.469 1026.94 193.584ZM1034.36 193.6C1034.36 192.939 1034.23 192.363 1033.96 191.872C1033.7 191.381 1033.33 191.008 1032.87 190.752C1032.43 190.485 1031.93 190.352 1031.39 190.352C1030.84 190.352 1030.35 190.48 1029.9 190.736C1029.45 190.992 1029.09 191.365 1028.83 191.856C1028.56 192.347 1028.43 192.923 1028.43 193.584C1028.43 194.256 1028.56 194.843 1028.83 195.344C1029.09 195.835 1029.45 196.213 1029.9 196.48C1030.35 196.736 1030.84 196.864 1031.39 196.864C1031.93 196.864 1032.43 196.736 1032.87 196.48C1033.33 196.213 1033.7 195.835 1033.96 195.344C1034.23 194.843 1034.36 194.261 1034.36 193.6ZM1039.75 186.16V198H1038.29V186.16H1039.75ZM1050.11 189.088C1050.87 189.088 1051.53 189.253 1052.1 189.584C1052.67 189.915 1053.1 190.331 1053.38 190.832V189.232H1054.85V198.192C1054.85 198.992 1054.68 199.701 1054.34 200.32C1054 200.949 1053.51 201.44 1052.87 201.792C1052.24 202.144 1051.5 202.32 1050.66 202.32C1049.51 202.32 1048.55 202.048 1047.78 201.504C1047.01 200.96 1046.56 200.219 1046.42 199.28H1047.86C1048.02 199.813 1048.35 200.24 1048.85 200.56C1049.35 200.891 1049.95 201.056 1050.66 201.056C1051.46 201.056 1052.11 200.805 1052.61 200.304C1053.12 199.803 1053.38 199.099 1053.38 198.192V196.352C1053.09 196.864 1052.66 197.291 1052.1 197.632C1051.53 197.973 1050.87 198.144 1050.11 198.144C1049.33 198.144 1048.63 197.952 1047.99 197.568C1047.36 197.184 1046.86 196.645 1046.5 195.952C1046.13 195.259 1045.95 194.469 1045.95 193.584C1045.95 192.688 1046.13 191.904 1046.5 191.232C1046.86 190.549 1047.36 190.021 1047.99 189.648C1048.63 189.275 1049.33 189.088 1050.11 189.088ZM1053.38 193.6C1053.38 192.939 1053.24 192.363 1052.98 191.872C1052.71 191.381 1052.35 191.008 1051.89 190.752C1051.44 190.485 1050.95 190.352 1050.4 190.352C1049.86 190.352 1049.36 190.48 1048.91 190.736C1048.47 190.992 1048.11 191.365 1047.84 191.856C1047.57 192.347 1047.44 192.923 1047.44 193.584C1047.44 194.256 1047.57 194.843 1047.84 195.344C1048.11 195.835 1048.47 196.213 1048.91 196.48C1049.36 196.736 1049.86 196.864 1050.4 196.864C1050.95 196.864 1051.44 196.736 1051.89 196.48C1052.35 196.213 1052.71 195.835 1052.98 195.344C1053.24 194.843 1053.38 194.261 1053.38 193.6ZM1058.77 190.656C1059.02 190.155 1059.38 189.765 1059.85 189.488C1060.33 189.211 1060.92 189.072 1061.6 189.072V190.576H1061.21C1059.58 190.576 1058.77 191.461 1058.77 193.232V198H1057.31V189.232H1058.77V190.656ZM1067.1 198.144C1066.28 198.144 1065.53 197.957 1064.86 197.584C1064.2 197.211 1063.68 196.683 1063.29 196C1062.92 195.307 1062.73 194.507 1062.73 193.6C1062.73 192.704 1062.93 191.915 1063.31 191.232C1063.71 190.539 1064.24 190.011 1064.91 189.648C1065.58 189.275 1066.33 189.088 1067.17 189.088C1068 189.088 1068.75 189.275 1069.42 189.648C1070.09 190.011 1070.62 190.533 1071.01 191.216C1071.4 191.899 1071.6 192.693 1071.6 193.6C1071.6 194.507 1071.4 195.307 1070.99 196C1070.6 196.683 1070.06 197.211 1069.37 197.584C1068.69 197.957 1067.93 198.144 1067.1 198.144ZM1067.1 196.864C1067.63 196.864 1068.12 196.741 1068.57 196.496C1069.03 196.251 1069.4 195.883 1069.68 195.392C1069.97 194.901 1070.11 194.304 1070.11 193.6C1070.11 192.896 1069.97 192.299 1069.69 191.808C1069.42 191.317 1069.05 190.955 1068.61 190.72C1068.16 190.475 1067.67 190.352 1067.15 190.352C1066.62 190.352 1066.13 190.475 1065.68 190.72C1065.24 190.955 1064.89 191.317 1064.62 191.808C1064.36 192.299 1064.22 192.896 1064.22 193.6C1064.22 194.315 1064.35 194.917 1064.61 195.408C1064.87 195.899 1065.23 196.267 1065.66 196.512C1066.1 196.747 1066.58 196.864 1067.1 196.864ZM1076.62 198.144C1075.95 198.144 1075.34 198.032 1074.81 197.808C1074.28 197.573 1073.85 197.253 1073.55 196.848C1073.24 196.432 1073.07 195.957 1073.03 195.424H1074.54C1074.58 195.861 1074.78 196.219 1075.15 196.496C1075.52 196.773 1076 196.912 1076.6 196.912C1077.16 196.912 1077.59 196.789 1077.91 196.544C1078.23 196.299 1078.39 195.989 1078.39 195.616C1078.39 195.232 1078.22 194.949 1077.88 194.768C1077.54 194.576 1077.01 194.389 1076.3 194.208C1075.65 194.037 1075.11 193.867 1074.7 193.696C1074.29 193.515 1073.94 193.253 1073.64 192.912C1073.35 192.56 1073.21 192.101 1073.21 191.536C1073.21 191.088 1073.34 190.677 1073.61 190.304C1073.88 189.931 1074.25 189.637 1074.75 189.424C1075.24 189.2 1075.8 189.088 1076.43 189.088C1077.4 189.088 1078.18 189.333 1078.78 189.824C1079.37 190.315 1079.69 190.987 1079.74 191.84H1078.28C1078.25 191.381 1078.06 191.013 1077.72 190.736C1077.39 190.459 1076.94 190.32 1076.38 190.32C1075.85 190.32 1075.44 190.432 1075.13 190.656C1074.82 190.88 1074.67 191.173 1074.67 191.536C1074.67 191.824 1074.76 192.064 1074.94 192.256C1075.13 192.437 1075.36 192.587 1075.64 192.704C1075.93 192.811 1076.32 192.933 1076.83 193.072C1077.45 193.243 1077.97 193.413 1078.36 193.584C1078.76 193.744 1079.09 193.989 1079.37 194.32C1079.66 194.651 1079.81 195.083 1079.82 195.616C1079.82 196.096 1079.68 196.528 1079.42 196.912C1079.15 197.296 1078.77 197.6 1078.28 197.824C1077.8 198.037 1077.25 198.144 1076.62 198.144ZM1084.98 198.144C1084.3 198.144 1083.7 198.032 1083.17 197.808C1082.64 197.573 1082.21 197.253 1081.9 196.848C1081.6 196.432 1081.42 195.957 1081.39 195.424H1082.9C1082.94 195.861 1083.14 196.219 1083.5 196.496C1083.88 196.773 1084.36 196.912 1084.96 196.912C1085.52 196.912 1085.95 196.789 1086.27 196.544C1086.59 196.299 1086.75 195.989 1086.75 195.616C1086.75 195.232 1086.58 194.949 1086.24 194.768C1085.9 194.576 1085.37 194.389 1084.66 194.208C1084.01 194.037 1083.47 193.867 1083.06 193.696C1082.65 193.515 1082.3 193.253 1082 192.912C1081.71 192.56 1081.57 192.101 1081.57 191.536C1081.57 191.088 1081.7 190.677 1081.97 190.304C1082.24 189.931 1082.61 189.637 1083.1 189.424C1083.6 189.2 1084.16 189.088 1084.78 189.088C1085.76 189.088 1086.54 189.333 1087.14 189.824C1087.73 190.315 1088.05 190.987 1088.1 191.84H1086.64C1086.61 191.381 1086.42 191.013 1086.08 190.736C1085.75 190.459 1085.3 190.32 1084.74 190.32C1084.21 190.32 1083.8 190.432 1083.49 190.656C1083.18 190.88 1083.02 191.173 1083.02 191.536C1083.02 191.824 1083.12 192.064 1083.3 192.256C1083.49 192.437 1083.72 192.587 1084 192.704C1084.29 192.811 1084.68 192.933 1085.18 193.072C1085.81 193.243 1086.33 193.413 1086.72 193.584C1087.12 193.744 1087.45 193.989 1087.73 194.32C1088.02 194.651 1088.17 195.083 1088.18 195.616C1088.18 196.096 1088.04 196.528 1087.78 196.912C1087.51 197.296 1087.13 197.6 1086.64 197.824C1086.16 198.037 1085.61 198.144 1084.98 198.144ZM1097.6 198.144C1096.93 198.144 1096.33 198.032 1095.79 197.808C1095.26 197.573 1094.84 197.253 1094.53 196.848C1094.22 196.432 1094.05 195.957 1094.02 195.424H1095.52C1095.56 195.861 1095.77 196.219 1096.13 196.496C1096.5 196.773 1096.99 196.912 1097.59 196.912C1098.14 196.912 1098.58 196.789 1098.9 196.544C1099.22 196.299 1099.38 195.989 1099.38 195.616C1099.38 195.232 1099.21 194.949 1098.87 194.768C1098.52 194.576 1098 194.389 1097.28 194.208C1096.63 194.037 1096.1 193.867 1095.68 193.696C1095.28 193.515 1094.92 193.253 1094.63 192.912C1094.34 192.56 1094.19 192.101 1094.19 191.536C1094.19 191.088 1094.33 190.677 1094.59 190.304C1094.86 189.931 1095.24 189.637 1095.73 189.424C1096.22 189.2 1096.78 189.088 1097.41 189.088C1098.38 189.088 1099.16 189.333 1099.76 189.824C1100.36 190.315 1100.68 190.987 1100.72 191.84H1099.27C1099.23 191.381 1099.05 191.013 1098.71 190.736C1098.37 190.459 1097.93 190.32 1097.36 190.32C1096.84 190.32 1096.42 190.432 1096.11 190.656C1095.8 190.88 1095.65 191.173 1095.65 191.536C1095.65 191.824 1095.74 192.064 1095.92 192.256C1096.11 192.437 1096.35 192.587 1096.63 192.704C1096.91 192.811 1097.31 192.933 1097.81 193.072C1098.44 193.243 1098.95 193.413 1099.35 193.584C1099.74 193.744 1100.08 193.989 1100.35 194.32C1100.64 194.651 1100.79 195.083 1100.8 195.616C1100.8 196.096 1100.67 196.528 1100.4 196.912C1100.13 197.296 1099.76 197.6 1099.27 197.824C1098.79 198.037 1098.23 198.144 1097.6 198.144ZM1102.31 193.584C1102.31 192.688 1102.49 191.904 1102.86 191.232C1103.22 190.549 1103.72 190.021 1104.35 189.648C1104.99 189.275 1105.69 189.088 1106.47 189.088C1107.24 189.088 1107.91 189.253 1108.47 189.584C1109.04 189.915 1109.46 190.331 1109.74 190.832V189.232H1111.21V198H1109.74V196.368C1109.45 196.88 1109.02 197.307 1108.44 197.648C1107.88 197.979 1107.21 198.144 1106.46 198.144C1105.68 198.144 1104.97 197.952 1104.35 197.568C1103.72 197.184 1103.22 196.645 1102.86 195.952C1102.49 195.259 1102.31 194.469 1102.31 193.584ZM1109.74 193.6C1109.74 192.939 1109.6 192.363 1109.34 191.872C1109.07 191.381 1108.71 191.008 1108.25 190.752C1107.8 190.485 1107.31 190.352 1106.76 190.352C1106.22 190.352 1105.72 190.48 1105.27 190.736C1104.83 190.992 1104.47 191.365 1104.2 191.856C1103.93 192.347 1103.8 192.923 1103.8 193.584C1103.8 194.256 1103.93 194.843 1104.2 195.344C1104.47 195.835 1104.83 196.213 1105.27 196.48C1105.72 196.736 1106.22 196.864 1106.76 196.864C1107.31 196.864 1107.8 196.736 1108.25 196.48C1108.71 196.213 1109.07 195.835 1109.34 195.344C1109.6 194.843 1109.74 194.261 1109.74 193.6ZM1115.13 186.16V198H1113.67V186.16H1115.13ZM1125.61 193.28C1125.61 193.557 1125.59 193.851 1125.56 194.16H1118.55C1118.6 195.024 1118.9 195.701 1119.43 196.192C1119.98 196.672 1120.63 196.912 1121.4 196.912C1122.03 196.912 1122.55 196.768 1122.97 196.48C1123.39 196.181 1123.69 195.787 1123.86 195.296H1125.43C1125.2 196.139 1124.73 196.827 1124.02 197.36C1123.32 197.883 1122.44 198.144 1121.4 198.144C1120.57 198.144 1119.82 197.957 1119.16 197.584C1118.51 197.211 1118 196.683 1117.62 196C1117.25 195.307 1117.06 194.507 1117.06 193.6C1117.06 192.693 1117.24 191.899 1117.61 191.216C1117.97 190.533 1118.48 190.011 1119.13 189.648C1119.79 189.275 1120.55 189.088 1121.4 189.088C1122.23 189.088 1122.97 189.269 1123.61 189.632C1124.25 189.995 1124.74 190.496 1125.08 191.136C1125.43 191.765 1125.61 192.48 1125.61 193.28ZM1124.1 192.976C1124.1 192.421 1123.98 191.947 1123.74 191.552C1123.49 191.147 1123.15 190.843 1122.73 190.64C1122.31 190.427 1121.85 190.32 1121.34 190.32C1120.6 190.32 1119.97 190.555 1119.45 191.024C1118.94 191.493 1118.64 192.144 1118.57 192.976H1124.1ZM1132.55 187.808C1132.27 187.808 1132.03 187.712 1131.84 187.52C1131.65 187.328 1131.55 187.093 1131.55 186.816C1131.55 186.539 1131.65 186.304 1131.84 186.112C1132.03 185.92 1132.27 185.824 1132.55 185.824C1132.81 185.824 1133.04 185.92 1133.22 186.112C1133.41 186.304 1133.51 186.539 1133.51 186.816C1133.51 187.093 1133.41 187.328 1133.22 187.52C1133.04 187.712 1132.81 187.808 1132.55 187.808ZM1133.25 189.232V198H1131.79V189.232H1133.25ZM1140 189.072C1141.07 189.072 1141.93 189.397 1142.6 190.048C1143.26 190.688 1143.59 191.616 1143.59 192.832V198H1142.15V193.04C1142.15 192.165 1141.93 191.499 1141.49 191.04C1141.05 190.571 1140.46 190.336 1139.7 190.336C1138.93 190.336 1138.32 190.576 1137.86 191.056C1137.41 191.536 1137.19 192.235 1137.19 193.152V198H1135.73V189.232H1137.19V190.48C1137.48 190.032 1137.87 189.685 1138.36 189.44C1138.86 189.195 1139.41 189.072 1140 189.072ZM1154.06 198.144C1153.23 198.144 1152.49 197.957 1151.82 197.584C1151.15 197.211 1150.63 196.683 1150.25 196C1149.87 195.307 1149.69 194.507 1149.69 193.6C1149.69 192.704 1149.88 191.915 1150.26 191.232C1150.66 190.539 1151.19 190.011 1151.86 189.648C1152.54 189.275 1153.29 189.088 1154.12 189.088C1154.95 189.088 1155.7 189.275 1156.38 189.648C1157.05 190.011 1157.58 190.533 1157.96 191.216C1158.35 191.899 1158.55 192.693 1158.55 193.6C1158.55 194.507 1158.35 195.307 1157.94 196C1157.55 196.683 1157.01 197.211 1156.33 197.584C1155.65 197.957 1154.89 198.144 1154.06 198.144ZM1154.06 196.864C1154.58 196.864 1155.07 196.741 1155.53 196.496C1155.99 196.251 1156.35 195.883 1156.63 195.392C1156.92 194.901 1157.06 194.304 1157.06 193.6C1157.06 192.896 1156.93 192.299 1156.65 191.808C1156.37 191.317 1156.01 190.955 1155.56 190.72C1155.11 190.475 1154.63 190.352 1154.1 190.352C1153.57 190.352 1153.08 190.475 1152.63 190.72C1152.19 190.955 1151.84 191.317 1151.58 191.808C1151.31 192.299 1151.18 192.896 1151.18 193.6C1151.18 194.315 1151.3 194.917 1151.56 195.408C1151.83 195.899 1152.18 196.267 1152.62 196.512C1153.05 196.747 1153.53 196.864 1154.06 196.864ZM1168.24 189.232V198H1166.79V196.704C1166.51 197.152 1166.12 197.504 1165.62 197.76C1165.13 198.005 1164.58 198.128 1163.99 198.128C1163.3 198.128 1162.69 197.989 1162.15 197.712C1161.6 197.424 1161.17 196.997 1160.85 196.432C1160.54 195.867 1160.39 195.179 1160.39 194.368V189.232H1161.83V194.176C1161.83 195.04 1162.05 195.707 1162.48 196.176C1162.92 196.635 1163.52 196.864 1164.27 196.864C1165.05 196.864 1165.67 196.624 1166.11 196.144C1166.56 195.664 1166.79 194.965 1166.79 194.048V189.232H1168.24ZM1172.16 190.656C1172.41 190.155 1172.78 189.765 1173.24 189.488C1173.72 189.211 1174.31 189.072 1174.99 189.072V190.576H1174.6C1172.97 190.576 1172.16 191.461 1172.16 193.232V198H1170.7V189.232H1172.16V190.656ZM1184.04 198.144C1183.37 198.144 1182.76 198.032 1182.23 197.808C1181.7 197.573 1181.28 197.253 1180.97 196.848C1180.66 196.432 1180.49 195.957 1180.46 195.424H1181.96C1182 195.861 1182.2 196.219 1182.57 196.496C1182.94 196.773 1183.43 196.912 1184.02 196.912C1184.58 196.912 1185.02 196.789 1185.34 196.544C1185.66 196.299 1185.82 195.989 1185.82 195.616C1185.82 195.232 1185.64 194.949 1185.3 194.768C1184.96 194.576 1184.43 194.389 1183.72 194.208C1183.07 194.037 1182.54 193.867 1182.12 193.696C1181.71 193.515 1181.36 193.253 1181.06 192.912C1180.78 192.56 1180.63 192.101 1180.63 191.536C1180.63 191.088 1180.76 190.677 1181.03 190.304C1181.3 189.931 1181.68 189.637 1182.17 189.424C1182.66 189.2 1183.22 189.088 1183.85 189.088C1184.82 189.088 1185.6 189.333 1186.2 189.824C1186.8 190.315 1187.12 190.987 1187.16 191.84H1185.7C1185.67 191.381 1185.48 191.013 1185.14 190.736C1184.81 190.459 1184.36 190.32 1183.8 190.32C1183.28 190.32 1182.86 190.432 1182.55 190.656C1182.24 190.88 1182.09 191.173 1182.09 191.536C1182.09 191.824 1182.18 192.064 1182.36 192.256C1182.55 192.437 1182.79 192.587 1183.06 192.704C1183.35 192.811 1183.75 192.933 1184.25 193.072C1184.88 193.243 1185.39 193.413 1185.78 193.584C1186.18 193.744 1186.51 193.989 1186.79 194.32C1187.08 194.651 1187.23 195.083 1187.24 195.616C1187.24 196.096 1187.11 196.528 1186.84 196.912C1186.57 197.296 1186.19 197.6 1185.7 197.824C1185.22 198.037 1184.67 198.144 1184.04 198.144ZM1190.05 187.808C1189.77 187.808 1189.53 187.712 1189.34 187.52C1189.15 187.328 1189.05 187.093 1189.05 186.816C1189.05 186.539 1189.15 186.304 1189.34 186.112C1189.53 185.92 1189.77 185.824 1190.05 185.824C1190.31 185.824 1190.54 185.92 1190.72 186.112C1190.91 186.304 1191.01 186.539 1191.01 186.816C1191.01 187.093 1190.91 187.328 1190.72 187.52C1190.54 187.712 1190.31 187.808 1190.05 187.808ZM1190.75 189.232V198H1189.29V189.232H1190.75ZM1195.01 190.432V195.6C1195.01 196.027 1195.1 196.331 1195.28 196.512C1195.46 196.683 1195.78 196.768 1196.22 196.768H1197.3V198H1195.98C1195.17 198 1194.57 197.813 1194.16 197.44C1193.75 197.067 1193.55 196.453 1193.55 195.6V190.432H1192.42V189.232H1193.55V187.024H1195.01V189.232H1197.3V190.432H1195.01ZM1207.06 193.28C1207.06 193.557 1207.04 193.851 1207.01 194.16H1200C1200.06 195.024 1200.35 195.701 1200.88 196.192C1201.43 196.672 1202.08 196.912 1202.85 196.912C1203.48 196.912 1204 196.768 1204.42 196.48C1204.85 196.181 1205.15 195.787 1205.32 195.296H1206.88C1206.65 196.139 1206.18 196.827 1205.48 197.36C1204.77 197.883 1203.9 198.144 1202.85 198.144C1202.02 198.144 1201.27 197.957 1200.61 197.584C1199.96 197.211 1199.45 196.683 1199.08 196C1198.7 195.307 1198.52 194.507 1198.52 193.6C1198.52 192.693 1198.7 191.899 1199.06 191.216C1199.42 190.533 1199.93 190.011 1200.58 189.648C1201.24 189.275 1202 189.088 1202.85 189.088C1203.68 189.088 1204.42 189.269 1205.06 189.632C1205.7 189.995 1206.19 190.496 1206.53 191.136C1206.88 191.765 1207.06 192.48 1207.06 193.28ZM1205.56 192.976C1205.56 192.421 1205.43 191.947 1205.19 191.552C1204.94 191.147 1204.61 190.843 1204.18 190.64C1203.76 190.427 1203.3 190.32 1202.79 190.32C1202.05 190.32 1201.42 190.555 1200.9 191.024C1200.39 191.493 1200.09 192.144 1200.02 192.976H1205.56Z" fill="#0592EF"/>
<defs>
<filter id="filter0_d_42_6737" x="300" y="0" width="314" height="274" filterUnits="userSpaceOnUse" color-interpolation-filters="sRGB">
<feFlood flood-opacity="0" result="BackgroundImageFix"/>
<feColorMatrix in="SourceAlpha" type="matrix" values="0 0 0 0 0 0 0 0 0 0 0 0 0 0 0 0 0 0 127 0" result="hardAlpha"/>
<feOffset dy="6"/>
<feGaussianBlur stdDeviation="11"/>
<feComposite in2="hardAlpha" operator="out"/>
<feColorMatrix type="matrix" values="0 0 0 0 0.141176 0 0 0 0 0.643137 0 0 0 0 0.972549 0 0 0 0.12 0"/>
<feBlend mode="normal" in2="BackgroundImageFix" result="effect1_dropShadow_42_6737"/>
<feBlend mode="normal" in="SourceGraphic" in2="effect1_dropShadow_42_6737" result="shape"/>
</filter>
</defs>
</svg>
