<svg width="102" height="19" viewBox="0 0 102 19" fill="none" xmlns="http://www.w3.org/2000/svg">
<g clip-path="url(#clip0_72_8737)">
<path d="M9.75814 13.4559C9.51756 13.334 9.23439 13.334 8.99382 13.4559L5.91055 15.0187C5.25755 15.3496 4.52229 14.7518 4.69936 14.0338L5.4203 11.1106C5.48923 10.8312 5.41657 10.5352 5.22645 10.3211L2.84659 7.64067C2.37221 7.10638 2.70919 6.25267 3.41623 6.19754L6.73617 5.93866C7.04673 5.91445 7.31969 5.72087 7.44858 5.43344L8.59803 2.87008C8.90163 2.19305 9.85033 2.19305 10.1539 2.87008L11.3034 5.43344C11.4323 5.72087 11.7052 5.91445 12.0158 5.93866L15.3357 6.19754C16.0428 6.25267 16.3797 7.10638 15.9054 7.64067L13.5255 10.3211C13.3354 10.5352 13.2627 10.8312 13.3317 11.1106L14.0526 14.0338C14.2297 14.7518 13.4944 15.3496 12.8414 15.0186L9.75814 13.4559Z" fill="#24A4F8"/>
<path d="M30.7581 13.4559C30.5176 13.334 30.2344 13.334 29.9938 13.4559L26.9105 15.0187C26.2575 15.3496 25.5223 14.7518 25.6994 14.0338L26.4203 11.1106C26.4892 10.8312 26.4166 10.5352 26.2264 10.3211L23.8466 7.64067C23.3722 7.10638 23.7092 6.25267 24.4162 6.19754L27.7362 5.93866C28.0467 5.91445 28.3197 5.72087 28.4486 5.43344L29.598 2.87008C29.9016 2.19305 30.8503 2.19305 31.1539 2.87008L32.3034 5.43344C32.4323 5.72087 32.7052 5.91445 33.0158 5.93866L36.3357 6.19754C37.0428 6.25267 37.3797 7.10638 36.9054 7.64067L34.5255 10.3211C34.3354 10.5352 34.2627 10.8312 34.3317 11.1106L35.0526 14.0338C35.2297 14.7518 34.4944 15.3496 33.8414 15.0186L30.7581 13.4559Z" fill="#24A4F8"/>
<path d="M51.7581 13.4559C51.5176 13.334 51.2344 13.334 50.9938 13.4559L47.9105 15.0187C47.2575 15.3496 46.5223 14.7518 46.6994 14.0338L47.4203 11.1106C47.4892 10.8312 47.4166 10.5352 47.2264 10.3211L44.8466 7.64067C44.3722 7.10638 44.7092 6.25267 45.4162 6.19754L48.7362 5.93866C49.0467 5.91445 49.3197 5.72087 49.4486 5.43344L50.598 2.87008C50.9016 2.19305 51.8503 2.19305 52.1539 2.87008L53.3034 5.43344C53.4323 5.72087 53.7052 5.91445 54.0158 5.93866L57.3357 6.19754C58.0428 6.25267 58.3797 7.10638 57.9054 7.64067L55.5255 10.3211C55.3354 10.5352 55.2627 10.8312 55.3317 11.1106L56.0526 14.0338C56.2297 14.7518 55.4944 15.3496 54.8414 15.0186L51.7581 13.4559Z" fill="#24A4F8"/>
<path d="M72.7581 13.4559C72.5176 13.334 72.2344 13.334 71.9938 13.4559L68.9105 15.0187C68.2575 15.3496 67.5223 14.7518 67.6994 14.0338L68.4203 11.1106C68.4892 10.8312 68.4166 10.5352 68.2264 10.3211L65.8466 7.64067C65.3722 7.10638 65.7092 6.25267 66.4162 6.19754L69.7362 5.93866C70.0467 5.91445 70.3197 5.72087 70.4486 5.43344L71.598 2.87008C71.9016 2.19305 72.8503 2.19305 73.1539 2.87008L74.3034 5.43344C74.4323 5.72087 74.7052 5.91445 75.0158 5.93866L78.3357 6.19754C79.0428 6.25267 79.3797 7.10638 78.9054 7.64067L76.5255 10.3211C76.3354 10.5352 76.2627 10.8312 76.3317 11.1106L77.0526 14.0338C77.2297 14.7518 76.4944 15.3496 75.8414 15.0186L72.7581 13.4559Z" fill="#24A4F8"/>
<path d="M93.7581 13.4559C93.5176 13.334 93.2344 13.334 92.9938 13.4559L89.9105 15.0187C89.2575 15.3496 88.5223 14.7518 88.6994 14.0338L89.4203 11.1106C89.4892 10.8312 89.4166 10.5352 89.2264 10.3211L86.8466 7.64067C86.3722 7.10638 86.7092 6.25267 87.4162 6.19754L90.7362 5.93866C91.0467 5.91445 91.3197 5.72087 91.4486 5.43344L92.598 2.87008C92.9016 2.19305 93.8503 2.19305 94.1539 2.87008L95.3034 5.43344C95.4323 5.72087 95.7052 5.91445 96.0158 5.93866L99.3357 6.19754C100.043 6.25267 100.38 7.10638 99.9054 7.64067L97.5255 10.3211C97.3354 10.5352 97.2627 10.8312 97.3317 11.1106L98.0526 14.0338C98.2297 14.7518 97.4944 15.3496 96.8414 15.0186L93.7581 13.4559Z" fill="#24A4F8"/>
</g>
<defs>
<clipPath id="clip0_72_8737">
<rect width="101" height="18" fill="white" transform="translate(0.375977 0.112305)"/>
</clipPath>
</defs>
</svg>
