<svg width="448" height="37" viewBox="0 0 448 37" fill="none" xmlns="http://www.w3.org/2000/svg">
<path d="M19.42 4.37V28H15.544V17.664H4.426V28H0.55V4.37H4.426V14.502H15.544V4.37H19.42ZM26.4947 6.784C25.792 6.784 25.2027 6.546 24.7267 6.07C24.2507 5.594 24.0127 5.00467 24.0127 4.302C24.0127 3.59933 24.2507 3.01 24.7267 2.534C25.2027 2.058 25.792 1.82 26.4947 1.82C27.1747 1.82 27.7527 2.058 28.2287 2.534C28.7047 3.01 28.9427 3.59933 28.9427 4.302C28.9427 5.00467 28.7047 5.594 28.2287 6.07C27.7527 6.546 27.1747 6.784 26.4947 6.784ZM28.3987 9.266V28H24.5227V9.266H28.3987ZM37.7375 23.342L33.6235 32.726H31.1075L33.5215 23.342H37.7375ZM80.7263 4.37L73.7223 28H69.3363L64.3723 10.116L59.1023 28L54.7503 28.034L48.0523 4.37H52.1663L57.0623 23.614L62.3663 4.37H66.7183L71.6483 23.512L76.5783 4.37H80.7263ZM101.093 18.174C101.093 18.8767 101.048 19.5113 100.957 20.078H86.643C86.7564 21.574 87.3117 22.7753 88.309 23.682C89.3064 24.5887 90.5304 25.042 91.981 25.042C94.0664 25.042 95.5397 24.1693 96.401 22.424H100.583C100.016 24.1467 98.985 25.5633 97.489 26.674C96.0157 27.762 94.1797 28.306 91.981 28.306C90.1904 28.306 88.581 27.9093 87.153 27.116C85.7477 26.3 84.637 25.1667 83.821 23.716C83.0277 22.2427 82.631 20.5427 82.631 18.616C82.631 16.6893 83.0164 15.0007 83.787 13.55C84.5804 12.0767 85.6797 10.9433 87.085 10.15C88.513 9.35667 90.145 8.96 91.981 8.96C93.749 8.96 95.3244 9.34533 96.707 10.116C98.0897 10.8867 99.1664 11.9747 99.937 13.38C100.708 14.7627 101.093 16.3607 101.093 18.174ZM97.047 16.95C97.0244 15.522 96.5144 14.3773 95.517 13.516C94.5197 12.6547 93.2844 12.224 91.811 12.224C90.4737 12.224 89.329 12.6547 88.377 13.516C87.425 14.3547 86.8584 15.4993 86.677 16.95H97.047ZM108.783 2.84V28H104.907V2.84H108.783ZM112.58 18.616C112.58 16.6893 112.966 15.0007 113.736 13.55C114.53 12.0767 115.618 10.9433 117 10.15C118.383 9.35667 119.97 8.96 121.76 8.96C124.027 8.96 125.897 9.504 127.37 10.592C128.866 11.6573 129.875 13.1873 130.396 15.182H126.214C125.874 14.2527 125.33 13.5273 124.582 13.006C123.834 12.4847 122.894 12.224 121.76 12.224C120.174 12.224 118.904 12.7907 117.952 13.924C117.023 15.0347 116.558 16.5987 116.558 18.616C116.558 20.6333 117.023 22.2087 117.952 23.342C118.904 24.4753 120.174 25.042 121.76 25.042C124.004 25.042 125.489 24.056 126.214 22.084H130.396C129.852 23.988 128.832 25.5067 127.336 26.64C125.84 27.7507 123.982 28.306 121.76 28.306C119.97 28.306 118.383 27.9093 117 27.116C115.618 26.3 114.53 25.1667 113.736 23.716C112.966 22.2427 112.58 20.5427 112.58 18.616ZM142.385 28.306C140.617 28.306 139.019 27.9093 137.591 27.116C136.163 26.3 135.041 25.1667 134.225 23.716C133.409 22.2427 133.001 20.5427 133.001 18.616C133.001 16.712 133.42 15.0233 134.259 13.55C135.098 12.0767 136.242 10.9433 137.693 10.15C139.144 9.35667 140.764 8.96 142.555 8.96C144.346 8.96 145.966 9.35667 147.417 10.15C148.868 10.9433 150.012 12.0767 150.851 13.55C151.69 15.0233 152.109 16.712 152.109 18.616C152.109 20.52 151.678 22.2087 150.817 23.682C149.956 25.1553 148.777 26.3 147.281 27.116C145.808 27.9093 144.176 28.306 142.385 28.306ZM142.385 24.94C143.382 24.94 144.312 24.702 145.173 24.226C146.057 23.75 146.771 23.036 147.315 22.084C147.859 21.132 148.131 19.976 148.131 18.616C148.131 17.256 147.87 16.1113 147.349 15.182C146.828 14.23 146.136 13.516 145.275 13.04C144.414 12.564 143.484 12.326 142.487 12.326C141.49 12.326 140.56 12.564 139.699 13.04C138.86 13.516 138.192 14.23 137.693 15.182C137.194 16.1113 136.945 17.256 136.945 18.616C136.945 20.6333 137.455 22.1973 138.475 23.308C139.518 24.396 140.821 24.94 142.385 24.94ZM178.619 8.96C180.092 8.96 181.407 9.266 182.563 9.878C183.741 10.49 184.659 11.3967 185.317 12.598C185.997 13.7993 186.337 15.25 186.337 16.95V28H182.495V17.528C182.495 15.8507 182.075 14.57 181.237 13.686C180.398 12.7793 179.253 12.326 177.803 12.326C176.352 12.326 175.196 12.7793 174.335 13.686C173.496 14.57 173.077 15.8507 173.077 17.528V28H169.235V17.528C169.235 15.8507 168.815 14.57 167.977 13.686C167.138 12.7793 165.993 12.326 164.543 12.326C163.092 12.326 161.936 12.7793 161.075 13.686C160.236 14.57 159.817 15.8507 159.817 17.528V28H155.941V9.266H159.817V11.408C160.451 10.6373 161.256 10.0367 162.231 9.606C163.205 9.17533 164.248 8.96 165.359 8.96C166.855 8.96 168.192 9.27733 169.371 9.912C170.549 10.5467 171.456 11.4647 172.091 12.666C172.657 11.5327 173.541 10.6373 174.743 9.98C175.944 9.3 177.236 8.96 178.619 8.96ZM208.439 18.174C208.439 18.8767 208.393 19.5113 208.303 20.078H193.989C194.102 21.574 194.657 22.7753 195.655 23.682C196.652 24.5887 197.876 25.042 199.327 25.042C201.412 25.042 202.885 24.1693 203.747 22.424H207.929C207.362 24.1467 206.331 25.5633 204.835 26.674C203.361 27.762 201.525 28.306 199.327 28.306C197.536 28.306 195.927 27.9093 194.499 27.116C193.093 26.3 191.983 25.1667 191.167 23.716C190.373 22.2427 189.977 20.5427 189.977 18.616C189.977 16.6893 190.362 15.0007 191.133 13.55C191.926 12.0767 193.025 10.9433 194.431 10.15C195.859 9.35667 197.491 8.96 199.327 8.96C201.095 8.96 202.67 9.34533 204.053 10.116C205.435 10.8867 206.512 11.9747 207.283 13.38C208.053 14.7627 208.439 16.3607 208.439 18.174ZM204.393 16.95C204.37 15.522 203.86 14.3773 202.863 13.516C201.865 12.6547 200.63 12.224 199.157 12.224C197.819 12.224 196.675 12.6547 195.723 13.516C194.771 14.3547 194.204 15.4993 194.023 16.95H204.393ZM225.607 12.428V22.798C225.607 23.5007 225.766 24.0107 226.083 24.328C226.423 24.6227 226.99 24.77 227.783 24.77H230.163V28H227.103C225.358 28 224.02 27.592 223.091 26.776C222.162 25.96 221.697 24.634 221.697 22.798V12.428H219.487V9.266H221.697V4.608H225.607V9.266H230.163V12.428H225.607ZM241.862 28.306C240.094 28.306 238.496 27.9093 237.068 27.116C235.64 26.3 234.518 25.1667 233.702 23.716C232.886 22.2427 232.478 20.5427 232.478 18.616C232.478 16.712 232.897 15.0233 233.736 13.55C234.574 12.0767 235.719 10.9433 237.17 10.15C238.62 9.35667 240.241 8.96 242.032 8.96C243.822 8.96 245.443 9.35667 246.894 10.15C248.344 10.9433 249.489 12.0767 250.328 13.55C251.166 15.0233 251.586 16.712 251.586 18.616C251.586 20.52 251.155 22.2087 250.294 23.682C249.432 25.1553 248.254 26.3 246.758 27.116C245.284 27.9093 243.652 28.306 241.862 28.306ZM241.862 24.94C242.859 24.94 243.788 24.702 244.65 24.226C245.534 23.75 246.248 23.036 246.792 22.084C247.336 21.132 247.608 19.976 247.608 18.616C247.608 17.256 247.347 16.1113 246.826 15.182C246.304 14.23 245.613 13.516 244.752 13.04C243.89 12.564 242.961 12.326 241.964 12.326C240.966 12.326 240.037 12.564 239.176 13.04C238.337 13.516 237.668 14.23 237.17 15.182C236.671 16.1113 236.422 17.256 236.422 18.616C236.422 20.6333 236.932 22.1973 237.952 23.308C238.994 24.396 240.298 24.94 241.862 24.94ZM272.035 28.238C270.449 28.238 269.021 27.966 267.751 27.422C266.482 26.8553 265.485 26.062 264.759 25.042C264.034 24.022 263.671 22.832 263.671 21.472H267.819C267.91 22.492 268.307 23.3307 269.009 23.988C269.735 24.6453 270.743 24.974 272.035 24.974C273.373 24.974 274.415 24.6567 275.163 24.022C275.911 23.3647 276.285 22.526 276.285 21.506C276.285 20.7127 276.047 20.0667 275.571 19.568C275.118 19.0693 274.54 18.684 273.837 18.412C273.157 18.14 272.205 17.8453 270.981 17.528C269.44 17.12 268.182 16.712 267.207 16.304C266.255 15.8733 265.439 15.216 264.759 14.332C264.079 13.448 263.739 12.2693 263.739 10.796C263.739 9.436 264.079 8.246 264.759 7.226C265.439 6.206 266.391 5.424 267.615 4.88C268.839 4.336 270.256 4.064 271.865 4.064C274.155 4.064 276.025 4.642 277.475 5.798C278.949 6.93133 279.765 8.49533 279.923 10.49H275.639C275.571 9.62867 275.163 8.892 274.415 8.28C273.667 7.668 272.681 7.362 271.457 7.362C270.347 7.362 269.44 7.64533 268.737 8.212C268.035 8.77867 267.683 9.59467 267.683 10.66C267.683 11.3853 267.899 11.986 268.329 12.462C268.783 12.9153 269.349 13.278 270.029 13.55C270.709 13.822 271.639 14.1167 272.817 14.434C274.381 14.8647 275.651 15.2953 276.625 15.726C277.623 16.1567 278.461 16.8253 279.141 17.732C279.844 18.616 280.195 19.806 280.195 21.302C280.195 22.5033 279.867 23.6367 279.209 24.702C278.575 25.7673 277.634 26.6287 276.387 27.286C275.163 27.9207 273.713 28.238 272.035 28.238ZM294.459 8.96C295.887 8.96 297.156 9.266 298.267 9.878C299.4 10.49 300.284 11.3967 300.919 12.598C301.576 13.7993 301.905 15.25 301.905 16.95V28H298.063V17.528C298.063 15.8507 297.643 14.57 296.805 13.686C295.966 12.7793 294.821 12.326 293.371 12.326C291.92 12.326 290.764 12.7793 289.903 13.686C289.064 14.57 288.645 15.8507 288.645 17.528V28H284.769V2.84H288.645V11.442C289.302 10.6487 290.129 10.0367 291.127 9.606C292.147 9.17533 293.257 8.96 294.459 8.96ZM314.975 28.306C313.207 28.306 311.609 27.9093 310.181 27.116C308.753 26.3 307.631 25.1667 306.815 23.716C305.999 22.2427 305.591 20.5427 305.591 18.616C305.591 16.712 306.01 15.0233 306.849 13.55C307.687 12.0767 308.832 10.9433 310.283 10.15C311.733 9.35667 313.354 8.96 315.145 8.96C316.935 8.96 318.556 9.35667 320.007 10.15C321.457 10.9433 322.602 12.0767 323.441 13.55C324.279 15.0233 324.699 16.712 324.699 18.616C324.699 20.52 324.268 22.2087 323.407 23.682C322.545 25.1553 321.367 26.3 319.871 27.116C318.397 27.9093 316.765 28.306 314.975 28.306ZM314.975 24.94C315.972 24.94 316.901 24.702 317.763 24.226C318.647 23.75 319.361 23.036 319.905 22.084C320.449 21.132 320.721 19.976 320.721 18.616C320.721 17.256 320.46 16.1113 319.939 15.182C319.417 14.23 318.726 13.516 317.865 13.04C317.003 12.564 316.074 12.326 315.077 12.326C314.079 12.326 313.15 12.564 312.289 13.04C311.45 13.516 310.781 14.23 310.283 15.182C309.784 16.1113 309.535 17.256 309.535 18.616C309.535 20.6333 310.045 22.1973 311.065 23.308C312.107 24.396 313.411 24.94 314.975 24.94ZM332.406 12.02C333.064 11.1587 333.959 10.4333 335.092 9.844C336.226 9.25467 337.506 8.96 338.934 8.96C340.566 8.96 342.051 9.368 343.388 10.184C344.748 10.9773 345.814 12.0993 346.584 13.55C347.355 15.0007 347.74 16.6667 347.74 18.548C347.74 20.4293 347.355 22.118 346.584 23.614C345.814 25.0873 344.748 26.2433 343.388 27.082C342.051 27.898 340.566 28.306 338.934 28.306C337.506 28.306 336.237 28.0227 335.126 27.456C334.016 26.8667 333.109 26.1413 332.406 25.28V36.908H328.53V9.266H332.406V12.02ZM343.796 18.548C343.796 17.256 343.524 16.1453 342.98 15.216C342.459 14.264 341.756 13.55 340.872 13.074C340.011 12.5753 339.082 12.326 338.084 12.326C337.11 12.326 336.18 12.5753 335.296 13.074C334.435 13.5727 333.732 14.298 333.188 15.25C332.667 16.202 332.406 17.324 332.406 18.616C332.406 19.908 332.667 21.0413 333.188 22.016C333.732 22.968 334.435 23.6933 335.296 24.192C336.18 24.6907 337.11 24.94 338.084 24.94C339.082 24.94 340.011 24.6907 340.872 24.192C341.756 23.6707 342.459 22.9227 342.98 21.948C343.524 20.9733 343.796 19.84 343.796 18.548ZM355.449 11.986C356.016 11.034 356.764 10.2973 357.693 9.776C358.645 9.232 359.767 8.96 361.059 8.96V12.972H360.073C358.555 12.972 357.399 13.3573 356.605 14.128C355.835 14.8987 355.449 16.236 355.449 18.14V28H351.573V9.266H355.449V11.986ZM381.792 18.174C381.792 18.8767 381.747 19.5113 381.656 20.078H367.342C367.456 21.574 368.011 22.7753 369.008 23.682C370.006 24.5887 371.23 25.042 372.68 25.042C374.766 25.042 376.239 24.1693 377.1 22.424H381.282C380.716 24.1467 379.684 25.5633 378.188 26.674C376.715 27.762 374.879 28.306 372.68 28.306C370.89 28.306 369.28 27.9093 367.852 27.116C366.447 26.3 365.336 25.1667 364.52 23.716C363.727 22.2427 363.33 20.5427 363.33 18.616C363.33 16.6893 363.716 15.0007 364.486 13.55C365.28 12.0767 366.379 10.9433 367.784 10.15C369.212 9.35667 370.844 8.96 372.68 8.96C374.448 8.96 376.024 9.34533 377.406 10.116C378.789 10.8867 379.866 11.9747 380.636 13.38C381.407 14.7627 381.792 16.3607 381.792 18.174ZM377.746 16.95C377.724 15.522 377.214 14.3773 376.216 13.516C375.219 12.6547 373.984 12.224 372.51 12.224C371.173 12.224 370.028 12.6547 369.076 13.516C368.124 14.3547 367.558 15.4993 367.376 16.95H377.746ZM376.08 4.234L368.566 7.94V5.084L376.08 0.935998V4.234ZM408.285 8.96C409.758 8.96 411.073 9.266 412.229 9.878C413.407 10.49 414.325 11.3967 414.983 12.598C415.663 13.7993 416.003 15.25 416.003 16.95V28H412.161V17.528C412.161 15.8507 411.741 14.57 410.903 13.686C410.064 12.7793 408.919 12.326 407.469 12.326C406.018 12.326 404.862 12.7793 404.001 13.686C403.162 14.57 402.743 15.8507 402.743 17.528V28H398.901V17.528C398.901 15.8507 398.481 14.57 397.643 13.686C396.804 12.7793 395.659 12.326 394.209 12.326C392.758 12.326 391.602 12.7793 390.741 13.686C389.902 14.57 389.483 15.8507 389.483 17.528V28H385.607V9.266H389.483V11.408C390.117 10.6373 390.922 10.0367 391.897 9.606C392.871 9.17533 393.914 8.96 395.025 8.96C396.521 8.96 397.858 9.27733 399.037 9.912C400.215 10.5467 401.122 11.4647 401.757 12.666C402.323 11.5327 403.207 10.6373 404.409 9.98C405.61 9.3 406.902 8.96 408.285 8.96ZM438.105 18.174C438.105 18.8767 438.059 19.5113 437.969 20.078H423.655C423.768 21.574 424.323 22.7753 425.321 23.682C426.318 24.5887 427.542 25.042 428.993 25.042C431.078 25.042 432.551 24.1693 433.413 22.424H437.595C437.028 24.1467 435.997 25.5633 434.501 26.674C433.027 27.762 431.191 28.306 428.993 28.306C427.202 28.306 425.593 27.9093 424.165 27.116C422.759 26.3 421.649 25.1667 420.833 23.716C420.039 22.2427 419.643 20.5427 419.643 18.616C419.643 16.6893 420.028 15.0007 420.799 13.55C421.592 12.0767 422.691 10.9433 424.097 10.15C425.525 9.35667 427.157 8.96 428.993 8.96C430.761 8.96 432.336 9.34533 433.719 10.116C435.101 10.8867 436.178 11.9747 436.949 13.38C437.719 14.7627 438.105 16.3607 438.105 18.174ZM434.059 16.95C434.036 15.522 433.526 14.3773 432.529 13.516C431.531 12.6547 430.296 12.224 428.823 12.224C427.485 12.224 426.341 12.6547 425.389 13.516C424.437 14.3547 423.87 15.4993 423.689 16.95H434.059ZM446.781 4.37L446.339 20.86H443.109L442.667 4.37H446.781ZM444.843 28.238C444.14 28.238 443.551 28 443.075 27.524C442.599 27.048 442.361 26.4587 442.361 25.756C442.361 25.0533 442.599 24.464 443.075 23.988C443.551 23.512 444.14 23.274 444.843 23.274C445.523 23.274 446.101 23.512 446.577 23.988C447.053 24.464 447.291 25.0533 447.291 25.756C447.291 26.4587 447.053 27.048 446.577 27.524C446.101 28 445.523 28.238 444.843 28.238Z" fill="#222222"/>
</svg>
