<svg width="80" height="80" viewBox="0 0 80 80" fill="none" xmlns="http://www.w3.org/2000/svg">
<path opacity="0.3" d="M80 40C80 62.0914 62.0914 80 40 80C17.9086 80 0 62.0914 0 40C0 17.9086 17.9086 0 40 0C62.0914 0 80 17.9086 80 40ZM10.9071 40C10.9071 56.0675 23.9325 69.0929 40 69.0929C56.0675 69.0929 69.0929 56.0675 69.0929 40C69.0929 23.9325 56.0675 10.9071 40 10.9071C23.9325 10.9071 10.9071 23.9325 10.9071 40Z" fill="white"/>
<circle cx="40" cy="40" r="29" fill="white"/>
<path d="M39.9998 57.2725C49.5392 57.2725 57.2725 49.5392 57.2725 39.9998C57.2725 30.4603 49.5392 22.7271 39.9998 22.7271C30.4603 22.7271 22.7271 30.4603 22.7271 39.9998C22.7271 49.5392 30.4603 57.2725 39.9998 57.2725Z" stroke="#222222" stroke-width="2" stroke-linecap="round" stroke-linejoin="round"/>
<path d="M45.0909 34.5468C44.7615 33.9756 44.283 33.5047 43.7065 33.1845C43.13 32.8644 42.4772 32.7069 41.8181 32.7291H38.1818C37.2174 32.7291 36.2924 33.1121 35.6105 33.7939C34.9285 34.4756 34.5454 35.4003 34.5454 36.3644C34.5454 37.3286 34.9285 38.2533 35.6105 38.935C36.2924 39.6168 37.2174 39.9998 38.1818 39.9998H41.8181C42.7826 39.9998 43.7075 40.3828 44.3894 41.0645C45.0714 41.7463 45.4545 42.671 45.4545 43.6351C45.4545 44.5993 45.0714 45.5239 44.3894 46.2057C43.7075 46.8874 42.7826 47.2704 41.8181 47.2704H38.1818C37.5227 47.2926 36.8699 47.1352 36.2934 46.815C35.717 46.4948 35.2384 46.024 34.909 45.4528" stroke="#222222" stroke-width="2.75" stroke-linecap="round" stroke-linejoin="round"/>
<path d="M40 28.1816V32.121M40 47.8786V51.818" stroke="#222222" stroke-width="2.75" stroke-linecap="round" stroke-linejoin="round"/>
</svg>
