<svg width="81" height="80" viewBox="0 0 81 80" fill="none" xmlns="http://www.w3.org/2000/svg">
<path opacity="0.3" d="M80.5 40C80.5 62.0914 62.5914 80 40.5 80C18.4086 80 0.5 62.0914 0.5 40C0.5 17.9086 18.4086 0 40.5 0C62.5914 0 80.5 17.9086 80.5 40ZM11.4071 40C11.4071 56.0675 24.4325 69.0929 40.5 69.0929C56.5675 69.0929 69.5929 56.0675 69.5929 40C69.5929 23.9325 56.5675 10.9071 40.5 10.9071C24.4325 10.9071 11.4071 23.9325 11.4071 40Z" fill="#A1BCD6"/>
<circle cx="40.5" cy="40" r="29" fill="#0592EF"/>
<path d="M40.9273 38.1455V38.6455L41.4273 38.6455C42.0911 38.6455 42.7385 38.8513 43.2805 39.2345C43.8224 39.6177 44.2323 40.1595 44.4536 40.7852C44.4722 40.8381 44.4803 40.8941 44.4773 40.95C44.4743 41.0061 44.4603 41.061 44.4361 41.1116C44.4119 41.1622 44.378 41.2076 44.3362 41.2451C44.2945 41.2826 44.2458 41.3116 44.1929 41.3303C44.1399 41.3489 44.0839 41.357 44.0278 41.354C43.9718 41.351 43.9169 41.337 43.8663 41.3128C43.764 41.264 43.6854 41.1765 43.6476 41.0696L43.6475 41.0693C43.4851 40.6103 43.1844 40.2129 42.7868 39.9318C42.3891 39.6508 41.9141 39.4999 41.4272 39.5L40.9273 39.5002V40V43.7091V44.2091H41.4273C42.2784 44.2091 43.0947 44.5472 43.6965 45.149C44.2983 45.7508 44.6364 46.5671 44.6364 47.4181C44.6364 48.2692 44.2983 49.0855 43.6965 49.6873C43.0947 50.2891 42.2784 50.6272 41.4273 50.6272H40.9273V51.1272V51.5545H40.0728V51.1272V50.6272L39.5728 50.6272C38.9091 50.6272 38.2617 50.4214 37.7197 50.0382C37.1777 49.655 36.7679 49.1132 36.5466 48.4875L36.5468 48.4874L36.5417 48.4743C36.5212 48.421 36.5115 48.3641 36.5133 48.307C36.5151 48.2499 36.5284 48.1938 36.5523 48.1419C36.5762 48.09 36.6102 48.0434 36.6525 48.0049C36.6947 47.9664 36.7442 47.9368 36.798 47.9177C36.8519 47.8987 36.909 47.8907 36.9661 47.8941C37.0231 47.8975 37.0788 47.9124 37.13 47.9377C37.1812 47.9631 37.2268 47.9985 37.2641 48.0418C37.3014 48.085 37.3296 48.1354 37.3471 48.1898L37.3494 48.1968L37.3518 48.2038C37.6763 49.1185 38.5479 49.7727 39.5728 49.7727H40.0728V49.2727V45.5636V45.0636H39.5728C38.7217 45.0636 37.9055 44.7255 37.3037 44.1237C36.7019 43.5219 36.3638 42.7057 36.3638 41.8546C36.3638 41.0035 36.7019 40.1872 37.3037 39.5854C37.9055 38.9836 38.7217 38.6455 39.5728 38.6455H40.0728V38.1455V37.7183H40.9273V38.1455ZM40.0728 40V39.5H39.5728C38.9484 39.5 38.3495 39.7481 37.9079 40.1897C37.4664 40.6312 37.2183 41.2301 37.2183 41.8546C37.2183 42.479 37.4664 43.0779 37.9079 43.5195C38.3495 43.961 38.9484 44.2091 39.5728 44.2091H40.0728V43.7091V40ZM40.9273 49.2727V49.7727H41.4273C42.0518 49.7727 42.6507 49.5246 43.0922 49.083C43.5338 48.6415 43.7819 48.0426 43.7819 47.4181C43.7819 46.7937 43.5338 46.1948 43.0922 45.7532C42.6507 45.3117 42.0518 45.0636 41.4273 45.0636H40.9273V45.5636V49.2727Z" fill="#FAFAFA" stroke="#FAFAFA"/>
<path d="M47.7695 32.5773L48.0001 32.8204C49.8981 34.8212 51.4858 37.0949 52.7105 39.5659L52.7115 39.5679C53.9873 42.1704 54.7037 44.8135 54.5867 47.1302L54.5867 47.1302C54.4723 49.3913 53.5716 51.3573 51.5218 52.8061L51.5218 52.8061C49.4129 54.2962 45.9467 55.3337 40.5354 55.3337C35.1198 55.3337 31.6397 54.3142 29.5132 52.8423L29.5129 52.8421C27.4494 51.4121 26.5376 49.4721 26.4101 47.2375L47.7695 32.5773ZM47.7695 32.5773L47.457 32.6982M47.7695 32.5773L47.457 32.6982M47.457 32.6982C43.1083 34.3799 37.8707 34.3799 33.5219 32.7L33.3417 33.1664L32.9752 32.8263C31.1573 34.7857 29.4657 37.1898 28.251 39.693L28.2509 39.6931M47.457 32.6982L28.2509 39.6931M28.2509 39.6931C26.9804 42.3124 26.2784 44.9433 26.4101 47.2373L28.2509 39.6931ZM50.3428 26.1815C50.7832 26.3994 51.1642 26.6077 51.4775 26.7944L48.3457 31.3726L48.114 31.7113L48.4009 32.0046C50.3394 33.9862 52.1697 36.5165 53.4805 39.192C54.7935 41.8722 55.5679 44.6626 55.441 47.1736C55.3151 49.6638 54.3054 51.8864 52.0163 53.5036C49.7051 55.1364 46.0382 56.1882 40.5364 56.1882C35.0332 56.1882 31.3544 55.1552 29.028 53.5442C26.7245 51.949 25.6991 49.7544 25.558 47.2858C25.4157 44.7952 26.1758 42.0154 27.4835 39.3202C28.7889 36.63 30.6229 34.0599 32.5812 31.9994L32.8589 31.7072L32.6323 31.3739L29.5225 26.798C29.6798 26.7053 29.8536 26.6076 30.043 26.5067L30.043 26.5067L30.0447 26.5058C30.2353 26.4033 30.4408 26.2978 30.6614 26.1903L30.8573 26.0947C33.1034 25.0241 36.6645 23.8096 40.5364 23.8096C44.4385 23.8096 47.9975 25.043 50.2165 26.1202L50.3412 26.1807C50.3417 26.181 50.3423 26.1812 50.3428 26.1815ZM49.7117 27.8619L50.2968 27.0065L49.2631 27.0809C46.6696 27.2676 43.6003 27.8749 40.6554 28.7275C38.6714 29.3007 36.4387 29.2194 34.3339 28.8312C33.8046 28.7331 33.279 28.6163 32.758 28.481L31.4726 28.1472L32.2188 29.2459L33.9991 31.8672L34.091 32.0025L34.245 32.0573C38.1692 33.4544 42.7996 33.4544 46.7245 32.0593L46.5571 31.5882L46.9698 31.8705L49.7117 27.8619ZM34.4877 27.9906L34.4881 27.9907C36.523 28.3655 38.6079 28.4299 40.4168 27.9059L40.4175 27.9057C42.3859 27.3323 44.388 26.8813 46.4122 26.5553L46.4768 25.5829C44.7353 25.0586 42.6905 24.6641 40.5354 24.6641C37.2536 24.6641 34.2063 25.578 32.08 26.4805L32.2754 26.9407L32.1328 27.42C32.8897 27.6451 33.6821 27.8414 34.4877 27.9906Z" fill="#FAFAFA" stroke="#FAFAFA"/>
</svg>
